<?xml version="1.0" encoding="utf-8"?>
<!-- Generator: Adobe Illustrator 27.6.1, SVG Export Plug-In . SVG Version: 6.00 Build 0)  -->
<svg version="1.1" xmlns="http://www.w3.org/2000/svg" xmlns:xlink="http://www.w3.org/1999/xlink" x="0px" y="0px"
	 viewBox="0 0 750 500" style="enable-background:new 0 0 750 500;" xml:space="preserve">
<style type="text/css">
	.st0{fill:#F2AC30;}
	.st1{fill:#32015C;}
	.st2{fill:#FFD4D4;}
	.st3{fill:#D4336E;}
	.st4{fill:#495EDB;}
	.st5{fill:#7DB3DB;}
	.st6{fill:#DEF2FF;}
	.st7{fill:#FFC4C4;}
</style>
<g id="background">
</g>
<g id="objects">
	<g>
		<g>
			<g>
				<path class="st0" d="M604.79,232.82c3.15,4.63,7.94,7.62,3.45,11.85c-5.01,4.73-18.81,19.06-18.81,19.06l12.4,27.21
					c0,0,19.44-19.62,29.62-30.54c10.18-10.92,15.68-22.17,9.01-33.83C633.8,214.9,604.79,232.82,604.79,232.82z"/>
				<g>
					<path class="st0" d="M604.36,233.07c1.34,1.9,2.94,3.6,4.25,5.52c1.79,2.62,0.46,4.59-1.54,6.51
						c-2.42,2.33-4.77,4.72-7.13,7.12c-3.64,3.7-7.26,7.43-10.87,11.17c-0.17,0.17-0.17,0.39-0.08,0.61
						c4.13,9.07,8.27,18.14,12.4,27.21c0.14,0.3,0.58,0.31,0.79,0.1c4.99-5.04,9.95-10.09,14.89-15.17c3.87-3.98,7.73-7.97,11.55-12
						c4.35-4.58,8.61-9.21,11.73-14.75c2.81-4.99,4.15-10.61,3.13-16.29c-0.69-3.84-2.51-8.33-6.26-10.05
						c-6.35-2.9-14.95,0.74-20.81,3.24c-4.08,1.74-8.1,3.78-11.88,6.1c-0.55,0.34-0.05,1.2,0.5,0.86c4.73-2.91,9.8-5.38,14.98-7.36
						c3.81-1.45,7.85-2.65,11.95-2.76c4.89-0.14,7.6,2.16,9.45,6.54c5.78,13.69-6.15,26.03-14.8,35.11
						c-7.12,7.48-14.35,14.85-21.59,22.2c-1.19,1.21-2.37,2.41-3.56,3.61c0.26,0.03,0.52,0.07,0.79,0.1
						c-4.12-9.04-8.24-18.08-12.36-27.12c-0.15-0.32-0.32,0.72-0.02,0.41c0.19-0.2,0.39-0.4,0.58-0.6c0.92-0.95,1.83-1.9,2.75-2.84
						c2.88-2.98,5.78-5.94,8.69-8.89c1.41-1.43,2.84-2.86,4.27-4.28c1.15-1.13,2.76-2.29,3.58-3.68c2.52-4.26-2.27-7.94-4.53-11.12
						C604.86,232.04,603.99,232.54,604.36,233.07z"/>
				</g>
			</g>
			<g>
				<path class="st1" d="M522.51,313.81c-0.59,8.13-7.85,84.97-11.94,128.21h45.15l12.34-105.72l10.14,105.72h51.56
					c-3.69-36.46-9.66-94.72-11.16-105.44c-2.22-15.83-5.28-43.78-18.61-66.55c-9.16-1.39-82.75,15.74-82.75,15.74
					C518.9,290.76,523.34,302.42,522.51,313.81z"/>
				<g>
					<path class="st1" d="M514.45,395.6c-1.46,15.47-2.93,30.94-4.39,46.42h1c2.03-21.46,4.07-42.92,6.08-64.39
						c2-21.26,4.3-42.53,5.87-63.82c0.59-9.6-2.12-18.69-5.13-27.68c10.16-2.36,20.33-4.62,30.53-6.81c15.22-3.27,30.6-6.9,46.1-8.6
						c1.3-0.14,4.76-0.94,5.47,0.29c3.63,6.28,6.44,13,8.77,19.86c4.03,11.88,6.31,24.28,8.09,36.67
						c1.83,12.77,3.2,25.58,4.57,38.41c2.7,25.34,5.29,50.7,7.85,76.06h1c-2.44-24.17-4.91-48.34-7.47-72.49
						c-1.3-12.3-2.56-24.6-4.23-36.85c-1.61-11.79-3.49-23.53-6.68-35.01c-1.79-6.44-4.05-12.75-6.79-18.85
						c-1.39-3.09-2.97-6.1-4.67-9.04c-0.27-0.46-1.37-0.32-1.82-0.33c-5.36-0.02-10.84,1.16-16.09,2.06
						c-8.24,1.43-16.44,3.08-24.62,4.79c-13.14,2.73-26.24,5.63-39.32,8.64c-0.49,0.11-0.98,0.23-1.47,0.34
						c-0.25,0.06-0.43,0.36-0.35,0.62c3.05,9.07,5.85,18.22,5.26,27.91C519.99,341.1,517.02,368.35,514.45,395.6z"/>
					<path class="st1" d="M568.55,336.3c-0.06-0.65-0.93-0.64-1,0c-2.58,22.1-5.16,44.2-7.74,66.3c-1.53,13.14-3.07,26.28-4.6,39.42
						h1c1.57-13.47,3.14-26.94,4.71-40.41c2.36-20.2,4.71-40.41,7.07-60.61c1.98,20.62,3.96,41.24,5.93,61.85
						c1.25,13.06,2.5,26.11,3.76,39.17h1c-1.3-13.55-2.6-27.1-3.9-40.66C572.71,379.67,570.63,357.98,568.55,336.3z"/>
				</g>
			</g>
			<path class="st2" d="M390.98,172.65c-1.11-3.33-5.74-16.48-5.74-16.48s-13.51-8.51-19.44-11.85c-5.92-3.33-8.52-14.81,1.11-17.59
				c2.59-4.81,6.55-5.23,8.77-3.94c1.48-10.92,7.01-12.24,13.11-10.2c6.11,2.04,9.83,7.28,13.53,15.61
				c3.7,8.33,4.57,12.78,7.71,21.11c3.15,8.33,5.55,14.63,5.55,14.63S408.38,179.13,390.98,172.65z"/>
			<path class="st3" d="M395.43,144.88c0,8.18-6.63,14.81-14.81,14.81c-8.18,0-14.81-6.63-14.81-14.81
				c0-8.18,6.63-14.81,14.81-14.81C388.79,130.08,395.43,136.71,395.43,144.88z"/>
			<path class="st2" d="M363.54,142.9c2.08,2.36,5.55,1.11,5-4.03c3.47-0.28,4.16-5.14,7.36-9.44c1.39,5.55,3.89,6.25,5.69,5.41
				c1.8-0.83,3.33-1.94,3.47-7.08c0.14-5.14,1.67-6.53,3.89-5.83c2.22,0.69,4.17,5.83,6.94,12.22c2.78,6.39,3.05,11.38-0.97,12.36
				c-4.03,0.97-7.63,2.5-9.99,6.8c-2.36,4.3,0.42,8.47,7.78,5.28c7.36-3.19,9.58-8.33,9.58-8.33s-0.14-12.91-4.44-23.46
				c-4.3-10.55-14.03-8.33-14.03-8.33l-11.52,8.61l-9.16,9.86"/>
			<g>
				<path class="st4" d="M532.23,134.15c5.37,0.46,11.02-5.55,9.72-12.77c-1.29-7.22-12.68,3.79-12.68,3.79L532.23,134.15z"/>
				<g>
					<path class="st4" d="M532.23,134.65c4.09,0.18,7.39-2.49,9.21-5.99c1.15-2.22,2.48-8.17-0.38-9.8
						c-3.82-2.18-9.64,3.55-12.14,5.96c-0.12,0.12-0.18,0.32-0.13,0.49c0.99,2.99,1.98,5.99,2.96,8.98c0.2,0.61,1.17,0.35,0.96-0.27
						c-0.84-2.55-1.69-5.11-2.53-7.66c-0.13-0.4-0.26-0.8-0.39-1.19c0.03,0.1-0.35,0.53,0.18,0.04c0.85-0.79,1.74-1.54,2.65-2.26
						c1.67-1.33,6.84-5.49,8.54-2.46c1.44,2.56,0.12,6.57-1.24,8.85c-1.6,2.68-4.57,4.46-7.7,4.32
						C531.58,133.62,531.59,134.62,532.23,134.65z"/>
				</g>
			</g>
			<path class="st2" d="M477.25,103.23c-1.11,7.03-2.41,13.1,3.89,24.39c6.29,11.29,8.52,25.5,29.25,22.63
				c1.67,4.63,2.59,9.44,2.59,9.44l27.21-5.92l-8.7-26.47c11.57-3.42,11.38-10.69,9.34-15.51c-2.04-4.81-20.08-23.92-26.56-25.59
				C507.79,84.54,483.91,85.83,477.25,103.23z"/>
			<path d="M508.73,124.13c1.71-1.91-1.41-6.01-3.21-4.28C503.71,121.58,507.33,125.69,508.73,124.13z"/>
			<path d="M489.71,126.63c1.71-1.91-1.41-6.01-3.22-4.28C484.69,124.07,488.31,128.19,489.71,126.63z"/>
			<g>
				<path d="M498.21,135.48c-1.73,0-3.45-0.47-5.24-1.45c-2.42-1.61-2.18-3.93-1.63-5.98c1.18-5.08-1.21-9.53-6.54-12.2
					c-0.25-0.12-0.35-0.42-0.22-0.67c0.12-0.25,0.42-0.35,0.67-0.22c5.7,2.84,8.34,7.83,7.07,13.33c-0.57,2.16-0.58,3.72,1.18,4.89
					c1.6,0.87,3.16,1.3,4.72,1.3c0.28,0,0.5,0.22,0.5,0.5S498.49,135.48,498.21,135.48z"/>
			</g>
			<g>
				<path d="M499.28,139.28c-0.23,0-0.43-0.15-0.49-0.38c-0.06-0.27,0.1-0.54,0.37-0.6c4.16-1,7.24-2.97,10.29-6.59
					c0.18-0.21,0.49-0.24,0.7-0.06c0.21,0.18,0.24,0.49,0.06,0.7c-3.2,3.8-6.43,5.87-10.82,6.92
					C499.35,139.27,499.32,139.28,499.28,139.28z"/>
			</g>
			<g>
				<path d="M510.66,150.57c-0.2,0-0.39-0.12-0.47-0.32c-0.1-0.26,0.03-0.55,0.29-0.65c3.1-1.21,6-3.19,8.61-5.9l0.42-0.48
					c1.14-1.29,2.31-2.62,3.11-4.13c0.82-1.55,1.56-3.21,2.19-4.94c0.57-1.52,1.17-3.26,1.17-4.83c0-0.28,0.22-0.5,0.5-0.5
					c0.28,0,0.5,0.22,0.5,0.5c0,1.73-0.64,3.58-1.24,5.17c-0.65,1.77-1.41,3.47-2.25,5.06c-0.85,1.61-2.07,2.99-3.24,4.32
					l-0.43,0.49c-2.73,2.83-5.75,4.89-8.99,6.15C510.78,150.56,510.72,150.57,510.66,150.57z"/>
			</g>
			<g>
				<path class="st4" d="M500.85,114.71c-0.74-2.41,2.13-3.98,6.2-2.31c4.07,1.67,4.87,3.53,3.61,3.24
					C503.35,113.97,501.31,115.73,500.85,114.71z"/>
				<g>
					<path class="st4" d="M501.33,114.58c-0.82-3.5,4.54-2.15,6.12-1.47c1.02,0.44,2.02,1.02,2.85,1.77
						c0.07,0.07,0.14,0.15,0.21,0.22c0.15,0.42,0.25,0.44,0.29,0.05c-0.7-0.11-1.4-0.29-2.1-0.41c-1.65-0.29-3.34-0.4-5.01-0.34
						c-0.34,0.01-2.2,0.39-2.39,0.06c-0.32-0.56-1.18-0.06-0.86,0.5c0.64,1.14,3,0.44,4,0.42c2.15-0.04,4.19,0.45,6.3,0.77
						c0.47,0.07,0.99-0.18,0.99-0.72c0-0.76-0.84-1.43-1.38-1.82c-1.64-1.17-3.54-2.03-5.54-2.34c-2.36-0.37-5.07,0.84-4.43,3.57
						C500.52,115.47,501.48,115.21,501.33,114.58z"/>
				</g>
			</g>
			<g>
				<path class="st4" d="M486.41,115.73c-2.59-1.48-6.02-2.31-7.13-0.83c-1.11,1.48-0.19,3.24,0.93,3.15
					c1.11-0.09,5.37-0.83,7.04-0.65C488.17,117.39,487.25,116.38,486.41,115.73z"/>
				<g>
					<path class="st4" d="M486.66,115.3c-1.8-0.98-4.84-2.45-6.9-1.39c-1.5,0.77-2.27,3.67-0.32,4.47c0.78,0.32,1.67,0.06,2.48-0.05
						c1.37-0.19,2.74-0.37,4.12-0.44c0.69-0.04,1.59,0.24,2.01-0.45c0.44-0.72-0.89-1.72-1.3-2.06c-0.49-0.41-1.2,0.29-0.71,0.71
						c0.24,0.2,1.27,0.8,0.65,0.78c-0.59-0.02-1.19,0.04-1.78,0.09c-1.2,0.1-2.4,0.28-3.6,0.45c-0.37,0.05-0.74,0.1-1.12,0.14
						c-0.76-0.12-1.06-0.66-0.88-1.61c0.14-0.99,0.94-1.23,1.72-1.31c1.73-0.17,3.64,0.73,5.11,1.54
						C486.73,116.47,487.23,115.61,486.66,115.3z"/>
				</g>
			</g>
			<g>
				<path class="st4" d="M516.96,92.31c-1.3,6.67,0.37,19.9,6.85,26.84c6.48,6.94,5.55-5.46,4.81-7.5c3.7-4.26,10.71-5.05,13.4,1.8
					c0.83,2.77-0.61,7.92-0.61,7.92c4.83-1.83,7.2-8.79,5.44-12.68c-1.76-3.89-2.41-11.48-1.94-17.4
					c0.46-5.92-5.46-19.34-21.85-15.09c-4.64-8.06-9.41-9.59-17.8-8.33c-7.62,1.14-16.14-4.02-22.53-1.89
					c-4.22,1.41-6.7,5.97-0.31,12.36c-9.9-2.78-18.79-2.41-22.68,7.4c-3.89,9.81,1.11,22.49,16.57,22.77
					c0.37-3.38,1.34-6.22,1.34-6.22c1.2,7.22,7.27,7.33,12.91,2.98c5.65-4.35,10.09-10.83,10.09-10.83
					c-2.22,6.02-0.28,6.76,4.07,6.29C509.09,100.27,514.09,93.51,516.96,92.31z"/>
				<g>
					<path class="st4" d="M516.47,92.18c-1.18,6.54-0.02,13.69,2.39,19.83c0.74,1.89,6,12.56,9.4,9.27c1.24-1.2,1.32-3.21,1.37-4.82
						c0.03-1.02-0.05-2.04-0.17-3.05c-0.13-1.1-0.5-1.44,0.29-2.19c2.88-2.8,7.4-3.17,10.24-0.21c2.63,2.74,1.84,6.94,0.93,10.24
						c-0.13,0.46,0.35,0.73,0.73,0.56c4.1-1.75,6.34-6.26,6.26-10.59c-0.04-2.13-1.21-4.13-1.7-6.18
						c-0.82-3.47-0.98-7.12-0.95-10.67c0.03-3.65,0.19-6.5-1.31-9.93c-1.47-3.35-4.07-6.11-7.29-7.81
						c-1.67-0.89-3.59-1.43-5.47-1.62c-1.27-0.13-2.53-0.14-3.8-0.06c-0.77,0.05-3.92,0.97-4.3,0.32c-2.33-3.96-5.58-7.15-10.2-8.05
						c-2.27-0.44-4.64-0.24-6.91,0.04c-3.7,0.46-7.12-0.04-10.74-0.84c-4.7-1.05-10.45-2.82-14.8,0.17c-4.76,3.27-1.33,9,1.64,12.09
						c0.16-0.28,0.32-0.56,0.49-0.84c-5.07-1.39-11.16-2.57-16.15-0.24c-4.72,2.21-7.58,7.09-8.24,12.16
						c-0.61,4.68,0.52,9.26,3.46,12.98c3.5,4.43,9.26,6.08,14.69,6.25c0.3,0.01,0.47-0.24,0.5-0.5c0.26-2.06,0.67-4.12,1.32-6.09
						c-0.32,0-0.64,0-0.96,0c1.19,6.08,6.09,7.5,11.3,4.82c5.11-2.62,9.39-7.89,12.62-12.55c-0.3-0.13-0.61-0.26-0.91-0.39
						c-0.62,1.75-1.52,4.07-0.47,5.84c0.84,1.42,3.11,1.23,4.47,1.14c5.64-0.4,8.34-6.31,13.02-8.55c0.58-0.28,0.07-1.14-0.5-0.86
						c-3.47,1.66-5.9,5.18-9.14,7.24c-1.73,1.11-3.93,1.49-5.95,1.1c-2.52-0.48-0.98-4.19-0.47-5.65c0.2-0.57-0.61-0.83-0.91-0.39
						c-2.47,3.57-5.46,6.85-8.73,9.69c-2.2,1.91-4.8,3.58-7.78,3.81c-3.37,0.26-5.01-2.65-5.58-5.54c-0.1-0.52-0.82-0.44-0.96,0
						c-0.69,2.06-1.09,4.21-1.36,6.36c0.17-0.17,0.33-0.33,0.5-0.5c-5.15-0.16-10.08-1.67-13.64-5.56
						c-2.86-3.13-3.92-7.49-3.63-11.64c0.34-4.88,2.95-9.78,7.35-12.09c4.8-2.52,10.96-1.25,15.89,0.1
						c0.49,0.13,0.83-0.48,0.49-0.84c-3.36-3.5-5.98-9.3,0.09-11.52c4.97-1.82,11.09,0.88,16.03,1.72
						c4.62,0.78,9.12-0.69,13.72,0.02c4.7,0.72,7.72,4.39,10,8.26c0.12,0.2,0.35,0.28,0.56,0.23c5.48-1.35,11.22-1.08,15.72,2.63
						c2.99,2.47,4.98,6.3,5.45,10.13c0.29,2.4-0.13,4.9-0.08,7.32c0.07,3.09,0.42,6.19,1.13,9.2c0.68,2.87,1.88,4.91,1.25,7.98
						c-0.62,3.04-2.64,5.77-5.5,7c0.24,0.19,0.49,0.38,0.73,0.56c1.17-4.29,1.61-8.79-2.01-12.01c-3.55-3.15-8.78-1.29-11.62,1.8
						c-0.12,0.13-0.18,0.31-0.13,0.49c0.65,1.99,0.65,4.43,0.36,6.49c-0.7,5.1-4.82,0.18-6.25-1.9c-4.46-6.51-6.21-16.19-4.81-23.93
						C517.55,91.81,516.59,91.55,516.47,92.18z"/>
				</g>
			</g>
			<g>
				<path d="M477.89,104.29c-0.25,0-0.46-0.18-0.5-0.43l-0.09-0.64c-0.17-1.23-0.35-2.51-0.19-3.75c0.36-2.27,1.43-4.5,3.08-6.46
					c0.7-0.87,1.49-1.79,2.5-2.5c0.22-0.16,0.54-0.1,0.7,0.12c0.16,0.23,0.1,0.54-0.12,0.7c-0.91,0.64-1.65,1.49-2.3,2.31
					c-1.54,1.83-2.53,3.89-2.86,5.97c-0.15,1.09,0.03,2.3,0.19,3.47l0.09,0.65c0.04,0.27-0.16,0.52-0.43,0.56
					C477.94,104.29,477.92,104.29,477.89,104.29z"/>
			</g>
			<g>
				<path d="M529.45,118.06c-0.03,0-0.05,0-0.08-0.01c-0.27-0.04-0.46-0.29-0.41-0.56c0.09-0.57,0.18-1.08,0.18-1.58
					c0-0.5-0.08-0.92-0.17-1.37c-0.17-0.76-0.36-1.62-0.64-2.46c-0.38-1.22-0.92-2.47-1.53-3.51c-0.14-0.24-0.06-0.54,0.18-0.68
					c0.24-0.14,0.54-0.06,0.68,0.18c0.65,1.11,1.22,2.43,1.62,3.71c0.29,0.87,0.49,1.76,0.66,2.54c0.1,0.5,0.2,0.99,0.2,1.59
					c0,0.58-0.09,1.16-0.19,1.71C529.91,117.88,529.69,118.06,529.45,118.06z"/>
			</g>
			<g>
				<path class="st0" d="M390.06,171.91c5.83,1.67,18.61-1.39,24.99-10.27c4.44,10,19.44,43.59,20.55,45.26
					c1.11,1.67,14.72-8.33,30.27-20.83c15.55-12.49,24.99-16.1,34.43-14.99c9.44,1.11,13.88-0.28,13.05-5.55
					c-0.83-5.28-1.94-9.72-1.94-9.72s10.83,4.44,27.77-5.55c3.61,10.55,3.33,12.5,4.72,14.16c1.39,1.67,13.88-3.61,25.82-1.94
					c11.94,1.66,36.56,27.97,48.22,38.87c14.25,13.33,30.78,27.77,22.77,43.87c-5.59,11.24-25.73,3.33-25.73,3.33
					s-1.67-5-10.55-13.88c-8.89-8.89-23.88-24.16-23.88-24.16s17.59,52.95,20.92,61c-17.77,14.99-69.87,22.59-83.99,16.17
					c-4.62-13.87-20.23-61.9-27.17-74.95c-21.1,14.72-35.82,28.88-48.31,33.32c-12.5,4.44-23.6,8.88-34.71-21.38
					C400.91,207.34,390.06,171.91,390.06,171.91z"/>
				<g>
					<path class="st0" d="M389.92,172.39c9.12,2.39,20.21-3.31,25.56-10.5c-0.29,0-0.58,0-0.86,0
						c6.52,14.66,12.84,29.44,19.83,43.88c0.63,1.3,0.99,2.13,2.59,1.61c3.69-1.21,7.12-4.13,10.23-6.35
						c11.5-8.25,21.9-18.43,34.38-25.2c4.02-2.18,8.37-3.82,12.93-4.3c4.51-0.48,8.96,0.74,13.48,0.29c2.72-0.27,5.42-1.43,5.84-4.4
						c0.29-2.06-0.46-4.37-0.84-6.36c-0.35-1.8-0.73-3.59-1.17-5.37c-0.21,0.21-0.41,0.41-0.62,0.61c2.36,0.95,5.17,1.04,7.66,0.99
						c7.28-0.15,14.28-2.99,20.49-6.59c-0.24-0.1-0.49-0.2-0.73-0.3c1.41,4.16,2.38,8.5,3.87,12.63c0.8,2.23,2.07,2.37,4.3,2.07
						c6.21-0.85,12.15-2.46,18.49-2.43c4.85,0.02,8.62,1.44,12.69,3.95c9.1,5.61,17,13.34,24.68,20.71
						c7.83,7.5,15.72,14.97,23.48,22.54c8.97,8.75,20.25,20.99,14.41,34.44c-3.79,8.72-15.42,6.86-22.75,4.71
						c-0.86-0.25-1.71-0.53-2.55-0.84c-0.47-0.18,0.22,0.45,0.12,0.18c-0.11-0.29-0.24-0.57-0.37-0.85
						c-1.72-3.65-4.47-6.87-7.13-9.85c-7.38-8.26-15.61-15.86-23.38-23.76c-1.22-1.23-2.43-2.47-3.64-3.71c-0.34-0.35-1,0-0.84,0.49
						c3.95,11.9,7.94,23.78,11.98,35.64c2.43,7.13,4.85,14.26,7.42,21.34c0.36,1,0.73,1.99,1.11,2.98c0.15,0.39,0.33,0.71,0.21,0.82
						c-0.89,0.74-1.85,1.41-2.81,2.06c-3.76,2.52-7.92,4.44-12.12,6.11c-9.63,3.83-19.86,6.24-30.07,7.91
						c-9.36,1.53-19.01,2.45-28.49,1.74c-1.76-0.13-3.51-0.36-5.25-0.7c-0.63-0.12-3.95-0.59-4.18-1.28
						c-1.05-3.16-2.1-6.33-3.14-9.49c-3.1-9.36-6.24-18.7-9.48-28.01c-2.55-7.33-5.16-14.65-7.93-21.9
						c-1.99-5.19-3.98-10.46-6.57-15.39c-0.12-0.23-0.47-0.33-0.68-0.18c-11.52,8.06-22.31,17.12-33.81,25.2
						c-6.97,4.91-14.51,8.87-22.89,10.73c-8.14,1.81-14.14-2.25-18.56-8.91c-6.23-9.38-9.3-20.97-12.81-31.58
						c-3.95-11.94-7.75-23.94-11.43-35.96c-0.19-0.61-1.15-0.35-0.96,0.27c4.79,15.61,9.69,31.2,15.04,46.63
						c3.28,9.47,6.68,20.46,14.49,27.27c4.83,4.21,10.79,4.35,16.69,2.71c8.13-2.27,15.22-6.21,22.08-11.08
						c11.09-7.87,21.53-16.6,32.67-24.4c-0.23-0.06-0.46-0.12-0.68-0.18c3.72,7.06,6.38,14.75,9.12,22.22
						c3.62,9.85,7.03,19.78,10.38,29.72c2.54,7.53,5.02,15.07,7.53,22.61c0.6,1.8,5.64,2.14,7.22,2.37
						c3.86,0.55,7.78,0.62,11.67,0.54c12.27-0.25,24.6-2.28,36.45-5.39c10.26-2.69,21.3-6.31,29.58-13.19
						c0.12-0.1,0.19-0.34,0.13-0.49c-4.48-10.92-7.93-22.34-11.71-33.52c-3.09-9.15-6.16-18.31-9.21-27.48
						c-0.28,0.16-0.56,0.32-0.84,0.49c5.66,5.76,11.33,11.52,17.01,17.25c4.24,4.28,8.67,8.42,12.49,13.09
						c1.79,2.19,3.83,4.75,4.8,7.46c0.36,1,3.65,1.45,4.48,1.67c3.66,0.99,7.47,1.57,11.27,1.37c3.7-0.2,7.33-1.47,9.73-4.39
						c3.01-3.66,3.71-9.15,3.1-13.68c-0.75-5.54-3.96-10.53-7.31-14.85c-4.23-5.46-9.36-10.21-14.39-14.92
						c-7.54-7.05-14.8-14.38-22.34-21.43c-7.17-6.7-14.71-13.82-23.47-18.41c-9.42-4.93-19.84-0.92-29.66,0.18
						c-2.09,0.23-2.36-1.29-2.85-3c-1.06-3.72-2.14-7.42-3.38-11.08c-0.1-0.3-0.44-0.47-0.73-0.3c-6.13,3.55-12.84,6.19-19.98,6.46
						c-2.41,0.09-5.13-0.04-7.4-0.95c-0.37-0.15-0.7,0.28-0.62,0.61c0.44,1.78,0.81,3.57,1.17,5.37c0.49,2.48,1.85,6.08-0.27,8.14
						c-1.65,1.61-4.77,1.5-6.88,1.48c-2.67-0.03-5.3-0.53-7.97-0.54c-10.33-0.04-19.7,6.36-27.61,12.31
						c-10.19,7.67-19.76,16.83-31.02,22.97c-0.4,0.22-2.16,1.28-2.45,0.77c-0.42-0.76-0.78-1.56-1.15-2.34
						c-1.51-3.17-2.96-6.38-4.41-9.57c-5.01-11.02-9.95-22.08-14.87-33.14c-0.17-0.38-0.67-0.26-0.86,0
						c-5.08,6.82-15.77,12.31-24.43,10.04C389.57,171.27,389.3,172.23,389.92,172.39z"/>
				</g>
			</g>
			<g>
				<path d="M388.08,160.21c-1.49,0-2.69-0.45-3.5-1.34c-1.26-1.38-1.3-3.61-0.09-5.81c2.53-4.61,6.45-6.11,10.32-7.05
					c1.05-0.25,1.77-0.8,2.2-1.66c0.96-1.93,0.4-5.48-1.57-10.01c-2.48-5.71-4.62-10.64-6.67-11.27c-0.9-0.28-1.52-0.27-1.95,0.05
					c-0.76,0.54-1.18,2.11-1.25,4.66c-0.14,5.41-1.86,6.64-3.76,7.52c-0.97,0.45-1.97,0.45-2.88,0.02
					c-1.37-0.66-2.45-2.25-3.22-4.73c-0.81,1.22-1.45,2.47-2.03,3.6c-1.28,2.49-2.4,4.67-4.59,5.12c0.16,2.49-0.63,4.34-2.14,5.01
					c-1.25,0.55-2.7,0.14-3.77-1.08c-0.18-0.21-0.16-0.52,0.04-0.71c0.21-0.18,0.52-0.16,0.71,0.04c0.78,0.88,1.78,1.2,2.62,0.83
					c0.92-0.41,1.8-1.79,1.51-4.47c-0.01-0.13,0.03-0.27,0.11-0.37c0.09-0.1,0.21-0.17,0.35-0.18c1.97-0.16,2.99-2.14,4.28-4.65
					c0.73-1.43,1.57-3.05,2.72-4.59c0.11-0.16,0.31-0.23,0.5-0.19c0.19,0.04,0.34,0.18,0.39,0.37c0.86,3.46,2.09,4.68,2.96,5.1
					c0.8,0.39,1.55,0.2,2.03-0.02c1.72-0.79,3.05-1.79,3.18-6.64c0.08-2.96,0.61-4.69,1.67-5.44c0.94-0.67,2.07-0.43,2.83-0.19
					c2.37,0.74,4.22,4.77,7.29,11.83c1.48,3.4,2.94,8.04,1.54,10.85c-0.56,1.13-1.52,1.86-2.86,2.19c-3.64,0.88-7.33,2.28-9.67,6.56
					c-0.99,1.81-1.01,3.59-0.05,4.65c1.24,1.37,3.93,1.34,7.19-0.07c7.07-3.07,9.3-8.02,9.32-8.07c0.11-0.25,0.4-0.37,0.66-0.26
					c0.25,0.11,0.37,0.4,0.26,0.66c-0.09,0.22-2.38,5.36-9.84,8.59C391.1,159.82,389.46,160.21,388.08,160.21z"/>
			</g>
			<g>
				<path d="M399.08,187.01c-1.74,0-3.32-0.3-4.77-0.89c-0.26-0.1-0.38-0.4-0.27-0.65c0.1-0.26,0.4-0.38,0.65-0.27
					c2.55,1.04,5.58,1.08,9.26,0.12c3.1-0.78,7.07-2.05,10.34-5.02c0.19-0.19,0.41-0.4,0.64-0.61c0.69-0.64,1.41-1.3,1.89-2.18
					c0.13-0.24,0.44-0.33,0.68-0.19c0.24,0.13,0.33,0.44,0.19,0.68c-0.56,1.02-1.37,1.76-2.09,2.42c-0.22,0.2-0.44,0.4-0.63,0.6
					c-3.46,3.14-7.58,4.46-10.78,5.27C402.35,186.77,400.65,187.01,399.08,187.01z"/>
			</g>
			<g>
				<path d="M399.41,186.67c-0.2,0-0.4-0.13-0.47-0.33c-0.31-0.84-0.6-1.7-0.89-2.56c-0.41-1.22-0.84-2.48-1.33-3.72
					c-0.52-1.29-1.11-2.76-1.58-4.19c-0.12-0.37-0.28-0.74-0.44-1.1c-0.31-0.72-0.63-1.46-0.7-2.26c-0.02-0.27,0.18-0.52,0.46-0.54
					c0.26-0.03,0.52,0.18,0.54,0.46c0.05,0.64,0.33,1.27,0.62,1.95c0.17,0.39,0.33,0.78,0.47,1.18c0.47,1.4,1.05,2.86,1.56,4.14
					c0.5,1.27,0.93,2.54,1.34,3.77c0.29,0.86,0.58,1.71,0.88,2.54c0.09,0.26-0.04,0.55-0.3,0.64
					C399.52,186.66,399.46,186.67,399.41,186.67z"/>
			</g>
			<g>
				<path d="M404.5,186.02c-0.17,0-0.33-0.08-0.42-0.23c-0.35-0.56-0.6-1.25-0.84-1.92c-0.1-0.28-0.21-0.57-0.32-0.85
					c-0.2-0.58-0.4-1.14-0.61-1.69c-0.21-0.56-0.42-1.11-0.6-1.67c-0.4-1.12-0.91-2.34-1.55-3.74c-0.29-0.67-0.53-1.36-0.75-2.02
					c-0.23-0.66-0.46-1.33-0.73-1.97c-0.11-0.25,0.01-0.55,0.26-0.66c0.25-0.11,0.55,0.01,0.66,0.26c0.29,0.67,0.53,1.36,0.76,2.04
					c0.22,0.65,0.45,1.32,0.72,1.94c0.65,1.41,1.17,2.67,1.58,3.82c0.19,0.55,0.39,1.1,0.59,1.64c0.21,0.57,0.43,1.13,0.61,1.7
					c0.11,0.26,0.21,0.56,0.32,0.85c0.23,0.65,0.45,1.25,0.74,1.72c0.15,0.23,0.08,0.54-0.16,0.69
					C404.68,185.99,404.59,186.02,404.5,186.02z"/>
			</g>
			<g>
				<path d="M410.79,183.98c-0.22,0-0.43-0.15-0.49-0.38c-0.11-0.44-0.34-0.98-0.56-1.51c-0.13-0.29-0.25-0.58-0.35-0.85
					c-0.23-0.55-0.44-1.12-0.66-1.68c-0.2-0.54-0.41-1.09-0.63-1.63l-0.05-0.13c-1.07-2.59-2.18-5.28-3.37-7.91
					c-0.11-0.25,0-0.55,0.25-0.66c0.25-0.11,0.55,0,0.66,0.25c1.19,2.65,2.3,5.34,3.38,7.94l0.05,0.13
					c0.23,0.55,0.44,1.11,0.65,1.66c0.21,0.56,0.42,1.11,0.65,1.67c0.1,0.27,0.22,0.54,0.34,0.82c0.24,0.56,0.48,1.13,0.61,1.65
					c0.07,0.27-0.1,0.54-0.36,0.61C410.87,183.98,410.83,183.98,410.79,183.98z"/>
			</g>
			<g>
				<path d="M413.85,177.78c-0.18,0-0.36-0.1-0.45-0.28c-0.15-0.3-0.27-0.64-0.4-0.99c-0.11-0.3-0.21-0.61-0.34-0.86l-1.42-3.44
					c-0.4-0.85-0.81-1.74-1.11-2.64c-0.07-0.15-0.17-0.36-0.28-0.57c-0.28-0.54-0.59-1.14-0.66-1.74c-0.03-0.27,0.16-0.52,0.43-0.56
					c0.27-0.03,0.52,0.16,0.56,0.43c0.05,0.42,0.32,0.95,0.56,1.41c0.12,0.24,0.24,0.47,0.33,0.68c0.3,0.89,0.7,1.75,1.08,2.57
					l0.3,0.65l1.12,2.8c0.13,0.26,0.25,0.6,0.37,0.94c0.11,0.31,0.22,0.61,0.35,0.88c0.12,0.25,0.03,0.55-0.22,0.67
					C414,177.76,413.92,177.78,413.85,177.78z"/>
			</g>
			<g>
				<path d="M518.9,170.47c-0.25,0-0.47-0.19-0.5-0.45c-0.09-0.94-0.38-2.04-0.62-2.76c-0.1-0.43-0.18-0.81-0.26-1.19
					c-0.17-0.82-0.33-1.59-0.57-2.32c-0.45-1.18-0.83-2.39-1.19-3.56c-0.16-0.59-0.28-1.11-0.4-1.62c-0.11-0.5-0.23-1.01-0.37-1.51
					c-0.07-0.27,0.08-0.54,0.35-0.61c0.27-0.07,0.54,0.09,0.61,0.35c0.14,0.52,0.26,1.03,0.38,1.55c0.11,0.5,0.23,1,0.36,1.5
					c0.37,1.2,0.74,2.4,1.19,3.56c0.27,0.81,0.44,1.65,0.61,2.46c0.08,0.37,0.15,0.75,0.24,1.13c0.32,0.95,0.57,2.07,0.66,2.93
					c0.03,0.27-0.17,0.52-0.45,0.55C518.93,170.47,518.91,170.47,518.9,170.47z"/>
			</g>
			<g>
				<path d="M523.9,171.4c-0.28,0-0.5-0.22-0.5-0.5c0-0.27-0.09-0.56-0.17-0.84c-0.03-0.12-0.07-0.23-0.09-0.33
					c-0.1-0.61-0.3-1.27-0.45-1.72c-0.31-1.43-0.71-2.78-1.02-3.81c-0.19-0.72-0.36-1.43-0.52-2.14c-0.16-0.68-0.32-1.36-0.5-2.05
					c-0.07-0.34-0.16-0.66-0.26-0.99c-0.2-0.67-0.4-1.36-0.4-2.1c0-0.28,0.22-0.5,0.5-0.5c0.28,0,0.5,0.22,0.5,0.5
					c0,0.59,0.18,1.21,0.36,1.81c0.11,0.36,0.21,0.71,0.28,1.05c0.18,0.66,0.34,1.35,0.5,2.04c0.16,0.7,0.32,1.39,0.51,2.09
					c0.31,1.03,0.72,2.41,1.03,3.82c0.15,0.43,0.36,1.14,0.46,1.78c0.01,0.05,0.04,0.15,0.07,0.25c0.09,0.32,0.21,0.71,0.21,1.13
					C524.4,171.17,524.17,171.4,523.9,171.4z"/>
			</g>
			<g>
				<path d="M529.54,170.28c-0.21,0-0.41-0.13-0.47-0.34c-0.05-0.14-0.09-0.31-0.14-0.48c-0.04-0.16-0.09-0.32-0.14-0.45
					c-0.19-0.48-0.29-0.88-0.39-1.36c-0.12-0.73-0.33-1.47-0.53-2.19c-0.1-0.37-0.21-0.75-0.3-1.12l-0.34-1.28
					c-0.64-2.37-1.24-4.61-1.79-6.97c-0.06-0.27,0.1-0.54,0.37-0.6c0.27-0.06,0.54,0.1,0.6,0.37c0.55,2.34,1.14,4.57,1.78,6.93
					l0.35,1.29c0.09,0.37,0.19,0.74,0.3,1.1c0.21,0.74,0.42,1.51,0.55,2.27c0.08,0.42,0.17,0.75,0.34,1.19
					c0.06,0.18,0.11,0.35,0.16,0.52c0.04,0.15,0.09,0.3,0.13,0.43c0.09,0.26-0.05,0.55-0.32,0.63
					C529.65,170.28,529.59,170.28,529.54,170.28z"/>
			</g>
			<g>
				<path d="M535,168.06c-0.21,0-0.41-0.14-0.48-0.35c-0.68-2.13-1.25-4.25-1.76-6.23l-0.26-0.86c-0.29-0.94-0.58-1.92-0.93-2.89
					c-0.16-0.44-0.29-0.91-0.41-1.39c-0.17-0.62-0.34-1.26-0.59-1.82c-0.11-0.25,0-0.55,0.25-0.66c0.25-0.11,0.55,0,0.66,0.25
					c0.29,0.63,0.47,1.31,0.64,1.97c0.12,0.45,0.24,0.89,0.39,1.3c0.36,1,0.66,1.99,0.95,2.94l0.27,0.87
					c0.52,1.98,1.09,4.09,1.76,6.2c0.08,0.26-0.06,0.54-0.33,0.63C535.11,168.06,535.05,168.06,535,168.06z"/>
			</g>
			<g>
				<path d="M521.72,173.03c-0.69,0-1.3-0.05-1.89-0.16c-0.86-0.13-1.7-0.36-2.51-0.59c-0.96-0.27-1.86-0.52-2.82-0.61
					c-0.27-0.03-0.48-0.27-0.45-0.55c0.03-0.27,0.28-0.47,0.55-0.45c1.04,0.1,2.03,0.38,2.98,0.64c0.78,0.22,1.59,0.44,2.41,0.56
					c0.89,0.16,1.83,0.19,3.03,0.09c0.46-0.04,0.94-0.03,1.4-0.02c0.59,0.01,1.21,0.03,1.8-0.07c2.17-0.36,4.3-1.29,6.36-2.19
					c1.69-0.76,3.5-1.6,5.3-2.74c1.01-0.64,2.03-1.29,3.03-2.02c0.52-0.44,1.1-1.01,1.61-1.52c0.2-0.2,0.51-0.2,0.71,0
					c0.2,0.2,0.2,0.51,0,0.71c-0.52,0.52-1.11,1.12-1.7,1.6c-1.05,0.76-2.08,1.42-3.08,2.06c-1.88,1.19-3.72,2.05-5.45,2.83
					c-2.12,0.92-4.31,1.88-6.6,2.26c-0.68,0.11-1.35,0.1-1.99,0.08c-0.45-0.01-0.88-0.02-1.29,0.02
					C522.61,173.01,522.15,173.03,521.72,173.03z"/>
			</g>
			<g>
				<path d="M490.85,215.04c-0.18,0-0.36-0.1-0.45-0.28c-0.22-0.44-0.4-0.91-0.58-1.36c-0.17-0.45-0.34-0.88-0.54-1.27
					c-0.29-0.85-0.7-1.67-1.09-2.46c-0.21-0.46-0.42-0.85-0.63-1.24c-0.44-0.82-0.9-1.67-1.1-2.67c-0.05-0.27,0.12-0.53,0.39-0.59
					c0.26-0.06,0.53,0.12,0.59,0.39c0.17,0.85,0.57,1.6,1,2.39c0.22,0.41,0.44,0.83,0.63,1.26c0.42,0.84,0.84,1.69,1.13,2.54
					c0.19,0.37,0.37,0.84,0.55,1.3c0.17,0.45,0.34,0.88,0.54,1.28c0.12,0.25,0.02,0.55-0.22,0.67
					C491,215.02,490.93,215.04,490.85,215.04z"/>
			</g>
			<g>
				<path d="M577.02,208.04c-0.09,0-0.17-0.02-0.26-0.06c-0.99-0.51-1.8-1.29-2.58-2.04c-0.3-0.29-0.59-0.58-0.91-0.85
					c-0.87-0.74-1.78-1.39-2.95-2.08l-3.87-2.49c-0.27-0.17-0.35-0.54-0.18-0.82c0.17-0.28,0.53-0.36,0.79-0.19l3.85,2.48
					c1.22,0.72,2.18,1.4,3.11,2.2c0.33,0.29,0.64,0.59,0.95,0.89c0.75,0.73,1.46,1.41,2.3,1.84c0.29,0.15,0.4,0.5,0.26,0.8
					C577.43,207.92,577.23,208.04,577.02,208.04z"/>
			</g>
			<g>
				<path d="M601.99,272.65c-0.2,0-0.39-0.12-0.47-0.33l-6.46-17.36c-0.1-0.26,0.04-0.55,0.29-0.64c0.26-0.1,0.55,0.04,0.64,0.29
					l6.46,17.36c0.1,0.26-0.04,0.55-0.29,0.64C602.11,272.64,602.05,272.65,601.99,272.65z"/>
			</g>
			<g>
				<path d="M538.78,299.68c-4.69,0-9.35-0.23-13.91-0.71c-0.27-0.03-0.47-0.27-0.44-0.55s0.26-0.48,0.55-0.44
					c26.99,2.84,57.31-2.99,77.26-14.86c0.23-0.14,0.54-0.07,0.69,0.17c0.14,0.24,0.06,0.54-0.17,0.69
					C585.99,293.93,562.02,299.68,538.78,299.68z"/>
			</g>
			<g>
				<path d="M602.42,316.04c-1.61,0-3.22-0.34-4.83-1.02c-7.39-3.13-13.26-12.97-15.59-20.79c-0.08-0.26,0.07-0.54,0.34-0.62
					c0.27-0.08,0.54,0.07,0.62,0.34c2.33,7.84,8.24,17.28,15.02,20.15c3.28,1.39,6.58,1.23,9.82-0.46c0.25-0.13,0.55-0.03,0.67,0.21
					c0.13,0.24,0.03,0.55-0.21,0.67C606.34,315.53,604.38,316.04,602.42,316.04z"/>
			</g>
			<g>
				<path d="M611.36,328.74c-0.25,0-0.47-0.19-0.5-0.45c-1.91-20.21-12.34-41.26-12.45-41.47c-0.12-0.25-0.02-0.55,0.22-0.67
					c0.25-0.12,0.55-0.02,0.67,0.22c0.11,0.21,10.62,21.42,12.55,41.83c0.03,0.27-0.18,0.52-0.45,0.54
					C611.4,328.74,611.38,328.74,611.36,328.74z"/>
			</g>
			<g>
				<path d="M368.61,139.31c-0.93,0-1.86-0.43-2.5-1.21c-0.71-0.98-1.5-2.62-1.5-4.07c-0.15-2.69,1.24-5.63,2.43-7.61
					c0.14-0.24,0.45-0.31,0.69-0.17c0.24,0.14,0.31,0.45,0.17,0.69c-1.12,1.87-2.43,4.61-2.29,7.07c0,1.17,0.65,2.58,1.3,3.49
					c0.57,0.68,1.48,0.98,2.3,0.73c0.27-0.08,0.54,0.07,0.62,0.33c0.08,0.26-0.07,0.54-0.33,0.62
					C369.2,139.27,368.9,139.31,368.61,139.31z"/>
			</g>
			<g>
				<path d="M375.92,130.05c-0.25,0-0.47-0.19-0.5-0.45c-0.2-1.81-0.18-3.82-0.16-5.77c0.01-0.54,0.01-1.06,0.01-1.56
					c0-0.28,0.22-0.5,0.5-0.5c0.28,0,0.5,0.22,0.5,0.5c0,0.51,0,1.03-0.01,1.57c-0.02,1.92-0.04,3.9,0.15,5.65
					c0.03,0.27-0.17,0.52-0.44,0.55C375.96,130.05,375.94,130.05,375.92,130.05z"/>
			</g>
			<g>
				<path d="M566.65,330.23c-2.72,0-5.34-0.78-5.5-0.82c-0.16-0.05-0.29-0.17-0.33-0.33l-12.05-38.92
					c-0.08-0.26,0.07-0.54,0.33-0.62c0.26-0.08,0.54,0.07,0.62,0.33l11.97,38.66c1,0.27,4.72,1.16,7.38,0.42
					c-2.45-8.51-8.2-30.65-8.26-30.87c-0.07-0.27,0.09-0.54,0.36-0.61c0.28-0.07,0.54,0.09,0.61,0.36
					c0.06,0.23,6.02,23.2,8.38,31.31c0.07,0.25-0.06,0.52-0.31,0.61C568.88,330.11,567.75,330.23,566.65,330.23z"/>
			</g>
		</g>
		<g>
			<path class="st2" d="M226.17,243.81c-1.67,0.93-5.5,2.48-7.67,2.82c-0.66,0.1-3.07-18.37-3.07-18.37
				c11.18-4.1,16.66-7.96,19.62-16.48c2.96-8.51-5.21-9.99-5.67-18.58c-0.37-6.86,1.04-29-24.5-25.66
				c-25.55,3.33-46.1,39.43-35.73,50.35c10.37,10.92,19.81,12.4,19.62,15.18c-0.19,2.78-10,17.96-10.55,18.7
				c-0.56,0.74,7.03,15.73,14.81,18.88C200.8,273.8,243.94,272.32,226.17,243.81z"/>
			<g>
				<path class="st0" d="M111.58,441.79c-1.11-16.1-1.11-68.59,29.71-91.36c2.5-1.94,4.54-7.77,4.54-7.77
					c13.79,3.61,49.15,13.05,64.79,12.22c-1.85,5.27-7.03,13.33-7.03,13.33l4.9,73.3l-40.26,0.83l-8.05-12.77l1.11,12.22H111.58z"/>
				<g>
					<path class="st0" d="M112.08,441.79c-1.1-16.23,0.19-32.89,4.15-48.66c2.54-10.12,6.45-19.97,12.34-28.63
						c2.98-4.39,6.57-8.35,10.62-11.78c1.77-1.5,3.36-2.59,4.62-4.57c1.02-1.61,1.78-3.41,2.44-5.19c0.02-0.05,0.04-0.11,0.06-0.17
						c-0.2,0.12-0.41,0.23-0.61,0.35c10.53,2.76,21.07,5.46,31.7,7.77c10.74,2.33,22.16,4.98,33.22,4.46
						c-0.16-0.21-0.32-0.42-0.48-0.63c-1.67,4.57-4.24,8.86-6.83,12.96c-0.4,0.63-0.16,1.48-0.11,2.19
						c0.35,5.24,0.7,10.47,1.05,15.71c1.03,15.33,2.05,30.66,3.08,45.99c0.22,3.3,0.44,6.61,0.66,9.91c0.17-0.17,0.33-0.33,0.5-0.5
						c-10.28,0.21-20.56,0.43-30.84,0.64c-2.34,0.05-4.67,0.1-7.01,0.15c-0.63,0.01-1.27,0.03-1.9,0.04c-0.86,0.02,0,0.37-0.25-0.01
						c-2.63-4.17-5.25-8.33-7.88-12.5c-0.25-0.39-0.98-0.27-0.93,0.25c0.37,4.07,0.74,8.15,1.11,12.22c0.17-0.17,0.33-0.33,0.5-0.5
						c-16.57,0-33.14,0-49.7,0c-0.65,0-0.65,1,0,1c16.57,0,33.14,0,49.7,0c0.25,0,0.52-0.23,0.5-0.5
						c-0.37-4.07-0.74-8.15-1.11-12.22c-0.31,0.08-0.62,0.17-0.93,0.25c2.63,4.17,5.25,8.33,7.88,12.5c0.45,0.72,1.12,0.51,1.9,0.49
						c2.29-0.05,4.58-0.09,6.86-0.14c10.7-0.22,21.4-0.44,32.11-0.67c0.26,0,0.52-0.22,0.5-0.5c-1.59-23.81-3.19-47.63-4.78-71.44
						c-0.03-0.5-0.07-1-0.1-1.51c-0.04-0.59-0.14-0.02,0.33-0.76c2.54-4.05,5.02-8.28,6.67-12.79c0.11-0.3-0.17-0.65-0.48-0.63
						c-11,0.51-22.28-2.13-32.96-4.43c-10.64-2.29-21.18-5.02-31.7-7.78c-0.28-0.07-0.52,0.09-0.61,0.35
						c-0.57,1.59-1.28,3.12-2.1,4.6c-1.37,2.47-3.63,3.89-5.71,5.69c-3.76,3.26-7,7.09-9.83,11.17
						c-5.77,8.32-9.53,17.95-12.13,27.69c-4.23,15.82-5.52,32.67-4.57,49.01c0.02,0.37,0.05,0.74,0.07,1.11
						C111.12,442.43,112.12,442.44,112.08,441.79z"/>
				</g>
			</g>
			<g>
				<path d="M169.71,361.86c-0.03,0-0.06,0-0.09-0.01c-11.37-1.96-21.87-6.37-26.74-11.25c-0.2-0.2-0.2-0.51,0-0.71s0.51-0.2,0.71,0
					c4.74,4.74,15.02,9.04,26.21,10.97c0.27,0.05,0.45,0.31,0.41,0.58C170.16,361.69,169.95,361.86,169.71,361.86z"/>
			</g>
			<g>
				<path d="M121.2,442.02c-0.27,0-0.49-0.21-0.5-0.48c-0.47-10.61-1.4-64.73,26.84-88.15c0.21-0.18,0.53-0.15,0.7,0.07
					c0.18,0.21,0.15,0.53-0.07,0.7c-27.88,23.13-26.95,76.81-26.48,87.34c0.01,0.28-0.2,0.51-0.48,0.52
					C121.22,442.02,121.21,442.02,121.2,442.02z"/>
			</g>
			<g>
				<path class="st1" d="M218.54,246.25c8.25-2,11.79-4.75,17.25-5.31c1.85-5.93-4.35-16.11-8.7-17.96
					c-4.44,2.96-9.16,4.81-11.85,5.28C216.54,237,218.54,246.25,218.54,246.25z"/>
				<g>
					<path class="st1" d="M218.67,246.74c5.75-1.44,11.21-4.6,17.12-5.29c0.22-0.03,0.42-0.13,0.48-0.37
						c1.44-5.32-1.72-11.23-4.99-15.24c-0.5-0.62-3.37-3.98-4.45-3.28c-3.57,2.32-7.51,4.41-11.73,5.23
						c-0.29,0.06-0.39,0.36-0.35,0.61c0.91,6.03,2.01,12.03,3.29,17.99c0.14,0.63,1.1,0.36,0.96-0.27
						c-1.28-5.96-2.39-11.96-3.29-17.99c-0.12,0.21-0.23,0.41-0.35,0.61c1.73-0.34,3.4-0.9,5.02-1.6c1.02-0.44,2.02-0.91,3.01-1.41
						c0.52-0.26,3.38-2.34,3.8-2.15c3.62,1.71,6.08,6.46,7.43,9.99c0.7,1.85,1.07,3.82,0.96,5.8c-0.1,1.78-3,1.62-4.46,2.08
						c-4.29,1.35-8.34,3.21-12.73,4.31C217.78,245.93,218.05,246.89,218.67,246.74z"/>
				</g>
			</g>
			<g>
				<path d="M209.54,229.27c-5.28,0-10.72-1.31-15.32-3.76c-0.24-0.13-0.34-0.43-0.21-0.68c0.13-0.24,0.43-0.34,0.68-0.21
					c6.08,3.25,13.69,4.42,20.34,3.13c0.27-0.05,0.53,0.12,0.59,0.4c0.05,0.27-0.12,0.53-0.4,0.59
					C213.39,229.1,211.48,229.27,209.54,229.27z"/>
			</g>
			<g>
				<path class="st1" d="M183.22,208.27c2.46,7.73,7.46,9.79,6.18-1.77c21.8-13.05,22.56-31,19.51-37.25
					c13.47,1.81,22.49,7.91,20.41,23.19c14.3-3.75,13.33-27.91,0.97-32.35c-0.28-17.49-19.35-21.92-38.18-11.25
					c-8.44,4.78-11.44,10.62-22.94,15.12c-13.49,5.28-18.17,22.5-18.17,37c0,22.06-0.13,32.85-17.48,46.32
					c-17.35,13.47-33.64,30.57-23.6,51.79c6.11,12.91,19.44,12.08,19.44,12.08c-3.75,17.35,6.94,27.63,17.22,26.93
					c0,0,2.92-36.1,6.66-51.93c3.75-15.83,11.11-22.35,23.46-28.6c12.36-6.25,15.52-8.45,14.3-20.41
					c-0.96-9.33-2.64-16.24-2.64-16.24c-10.97,4.58-16.41-1.77-17.63-6.39C168.78,207.16,178.91,201.47,183.22,208.27z"/>
				<g>
					<path class="st1" d="M182.74,208.4c0.57,1.73,3.84,9.54,6.56,5.75c0.52-0.73,0.62-1.75,0.73-2.6c0.11-0.85,0.09-1.71,0.07-2.56
						c-0.04-1.95,0.13-2.38,1.79-3.45c3.68-2.38,7.05-5.24,9.99-8.49c6.22-6.87,11.82-18.8,7.47-28.04
						c-0.19,0.25-0.38,0.49-0.56,0.73c5.52,0.77,11.22,2.23,15.45,6.07c4.68,4.24,5.33,10.72,4.59,16.64
						c-0.04,0.33,0.35,0.56,0.63,0.48c7.8-2.2,11.15-10.06,10.82-17.64c-0.17-3.8-1.36-7.6-3.53-10.73
						c-0.92-1.33-2.08-2.46-3.38-3.41c-0.73-0.54-1.55-0.95-2.39-1.31c-0.46-0.2-0.39-2.46-0.48-3.07
						c-1.41-9.47-9.99-14.11-18.89-14.16c-11.6-0.06-21.3,6.32-29.92,13.36c-2.3,1.88-4.72,3.58-7.31,5.04
						c-2.88,1.62-6.07,2.57-8.92,4.26c-4.31,2.56-7.47,6.69-9.74,11.09c-5.27,10.2-5.08,21.5-5.25,32.65
						c-0.15,9.88-1.1,19.65-7.06,27.88c-3.47,4.79-8.16,8.37-12.73,12.03c-5.11,4.09-9.98,8.51-14.22,13.5
						c-4.25,4.99-7.72,10.72-9.32,17.12c-1.68,6.72-0.49,13.59,2.36,19.8c3.41,7.43,11.56,12.79,19.87,12.33
						c-0.16-0.21-0.32-0.42-0.48-0.63c-1.45,7.09-0.97,14.61,3.4,20.62c3.29,4.53,8.7,7.23,14.3,6.95c0.29-0.01,0.48-0.22,0.5-0.5
						c1.3-16.02,2.78-32.21,5.84-48c2.08-10.78,6.23-20.37,15.33-26.96c4.47-3.23,9.54-5.41,14.33-8.09
						c3.21-1.79,6.45-3.94,8.05-7.38c2.01-4.31,1.01-9.73,0.45-14.22c-0.54-4.24-1.22-8.5-2.23-12.66
						c-0.06-0.24-0.37-0.45-0.61-0.35c-6.27,2.49-13.77,2.06-16.66-4.95c-2.84-6.88,6.65-13.61,11.22-6.95
						c0.36,0.53,1.23,0.03,0.86-0.5c-4.35-6.33-14.69-2.1-13.62,5.49c0.45,3.17,2.34,5.9,4.96,7.7c4.03,2.77,9.27,1.87,13.5,0.18
						c-0.21-0.12-0.41-0.23-0.61-0.35c1.05,4.37,1.74,8.84,2.3,13.3c0.58,4.63,1.42,10.06-1.2,14.24
						c-2.49,3.99-7.83,6.15-11.83,8.19c-4.51,2.3-8.89,4.78-12.72,8.1c-7.68,6.66-10.84,16.29-12.68,25.98
						c-1.87,9.87-2.98,19.9-4.03,29.89c-0.61,5.78-1.17,11.56-1.64,17.35c0.17-0.17,0.33-0.33,0.5-0.5
						c-5.22,0.26-9.89-2.13-13.17-6.11c-4.6-5.58-4.95-13.41-3.56-20.19c0.06-0.3-0.14-0.65-0.48-0.63
						c-7.53,0.42-14.67-4.12-18.32-10.5c-7.12-12.43-2.81-26.06,5.64-36.46c4.12-5.07,9.04-9.46,14.09-13.58
						c4.51-3.68,9.07-7.13,12.73-11.72c5.72-7.16,7.4-15.85,7.84-24.8c0.54-11.09-0.36-21.92,3.45-32.58
						c1.79-5.01,4.65-9.66,8.72-13.13c2.27-1.94,4.92-3.04,7.63-4.19c2.85-1.2,5.52-2.77,8.04-4.55c4.1-2.89,7.68-6.44,11.94-9.12
						c5.36-3.37,11.59-5.65,17.9-6.3c4.97-0.51,10.15,0.3,14.35,3.11c4.43,2.96,6.28,8.13,6.44,13.26c0.01,0.24,0.15,0.4,0.37,0.48
						c12.65,4.83,12.27,27.65-0.97,31.38c0.21,0.16,0.42,0.32,0.63,0.48c0.75-5.98,0.03-12.04-4.17-16.64
						c-4.15-4.55-10.74-6.21-16.61-7.03c-0.44-0.06-0.76,0.31-0.56,0.73c2.23,4.74,1.25,10.7-0.4,15.44
						c-3.21,9.21-10.8,16.17-18.93,21.12c-0.14,0.09-0.26,0.26-0.25,0.43c0.12,1.23,1.01,7.47-1.19,7.62
						c-2.05,0.14-3.58-4.68-4.01-5.98C183.5,207.53,182.53,207.79,182.74,208.4z"/>
				</g>
			</g>
			<path d="M207.17,200.15c-2.54,0.34-2.85,5.48-0.35,5.34C209.32,205.36,209.25,199.87,207.17,200.15z"/>
			<g>
				<path d="M206.89,201.2c-0.16,0-0.31-0.08-0.41-0.22c-0.16-0.23-0.1-0.54,0.13-0.7l0.11-0.07c0.79-0.55,1.54-1.06,1.82-1.56
					c0.13-0.24,0.44-0.33,0.68-0.19c0.24,0.13,0.33,0.44,0.19,0.68c-0.39,0.7-1.2,1.26-2.13,1.9l-0.11,0.07
					C207.09,201.17,206.99,201.2,206.89,201.2z"/>
			</g>
			<path d="M225.36,194.25c-2.52,0.43-2.64,5.58-0.15,5.35C227.7,199.38,227.43,193.9,225.36,194.25z"/>
			<g>
				<path d="M225.1,195.32c-0.15,0-0.3-0.07-0.4-0.2c-0.17-0.22-0.12-0.53,0.1-0.7l0.13-0.1c0.76-0.57,1.49-1.11,1.74-1.61
					c0.13-0.25,0.42-0.34,0.67-0.22c0.25,0.13,0.34,0.43,0.22,0.67c-0.36,0.71-1.14,1.29-2.03,1.96l-0.13,0.1
					C225.31,195.29,225.21,195.32,225.1,195.32z"/>
			</g>
			<g>
				<path d="M220.43,212.59c-0.12,0-0.25-0.05-0.35-0.14c-0.2-0.19-0.21-0.51-0.01-0.71c0.3-0.32,0.59-0.61,0.87-0.89
					c2.87-2.92,3.64-3.7,0.81-8l-0.15-0.22c-3.31-5.04-3.78-6.03-0.78-11.61c0.13-0.24,0.44-0.33,0.68-0.2
					c0.24,0.13,0.33,0.43,0.2,0.68c-2.8,5.21-2.47,5.72,0.73,10.58l0.15,0.22c3.27,4.97,2.04,6.22-0.93,9.25
					c-0.27,0.28-0.56,0.57-0.86,0.88C220.69,212.54,220.56,212.59,220.43,212.59z"/>
			</g>
			<g>
				<path d="M200.09,195.91c-1.77,3.21-1.46,4.86,0.83,2.85c2.29-2.01,5.55-4.1,7.43-4.93c1.87-0.83,0.06-3.18-2.92-2.64
					C203.9,191.47,201.54,193.27,200.09,195.91z"/>
				<path d="M199.39,200.14L199.39,200.14c-0.33,0-0.62-0.16-0.78-0.44c-0.51-0.86,0.29-2.67,1.04-4.03
					c1.59-2.87,4.07-4.68,5.69-4.97c0.32-0.06,0.65-0.09,0.96-0.09c1.86,0,3.08,1.01,3.28,1.95c0.15,0.73-0.23,1.37-1.03,1.72
					c-1.77,0.79-4.99,2.82-7.3,4.85C200.48,199.81,199.87,200.14,199.39,200.14z M199.39,199.14l0,0.5L199.39,199.14
					C199.39,199.14,199.39,199.14,199.39,199.14z M206.3,191.61c-0.25,0-0.52,0.02-0.78,0.07c-1.38,0.25-3.63,1.99-5,4.47
					c-0.94,1.7-1.12,2.68-1.07,2.97c0.13-0.03,0.47-0.16,1.14-0.75c2.38-2.09,5.71-4.19,7.56-5.01c0.35-0.16,0.51-0.36,0.46-0.6
					C208.5,192.29,207.64,191.61,206.3,191.61z"/>
			</g>
			<g>
				<path d="M220.84,191.61c1.8-3.26,4.79-6.53,6.32-6.11c1.53,0.42,2.22,2.5,1.32,3.12c-0.9,0.62-1.6-1.11-4.58,0.9
					C221.28,191.29,220.7,192.16,220.84,191.61z"/>
				<path d="M220.86,192.28h-0.24l-0.17-0.2c-0.17-0.22-0.11-0.48-0.08-0.59l0.05-0.12c1.85-3.34,5.02-6.86,6.89-6.35
					c1.19,0.32,1.9,1.43,2.05,2.32c0.12,0.73-0.09,1.36-0.58,1.7c-0.42,0.29-0.93,0.25-1.41,0.12c-0.25-0.07-0.51-0.13-0.83-0.13
					c-0.66,0-1.43,0.3-2.35,0.92c-1.23,0.83-2,1.46-2.46,1.83C221.26,192.15,221.1,192.28,220.86,192.28z M226.88,185.96
					c-0.98,0-2.79,1.69-4.37,3.93c0.32-0.23,0.69-0.49,1.11-0.78c1.09-0.74,2.04-1.09,2.91-1.09c0.45,0,0.8,0.09,1.08,0.17
					c0.26,0.07,0.4,0.16,0.59,0.03c0.16-0.11,0.22-0.38,0.17-0.71c-0.1-0.61-0.59-1.32-1.33-1.52
					C226.98,185.97,226.93,185.96,226.88,185.96z"/>
			</g>
			<g>
				<path d="M215.42,219c-1.44,0-2.82-0.56-4.13-1.67c-1.09-0.9-2.19-2.26-3.09-3.81c-0.14-0.24-0.06-0.54,0.18-0.68
					c0.24-0.14,0.54-0.06,0.68,0.18c0.84,1.45,1.86,2.71,2.87,3.54c1.4,1.19,2.87,1.64,4.38,1.35c0.64-0.16,1.39-0.4,1.98-0.92
					c0.21-0.18,0.52-0.17,0.71,0.04c0.18,0.21,0.17,0.52-0.04,0.71c-0.75,0.67-1.65,0.96-2.43,1.15
					C216.15,218.96,215.78,219,215.42,219z"/>
			</g>
			<g>
				<path d="M219.32,215.5c-0.25,0-0.51-0.02-0.76-0.04c-0.8-0.06-1.61-0.08-2.38-0.19c-0.35-0.05-0.71-0.1-1.06-0.12
					c-0.98-0.16-1.76-0.29-2.64-0.5c-0.26-0.07-0.51-0.13-0.76-0.19c-0.52-0.12-1.05-0.25-1.59-0.45c-0.29-0.08-0.59-0.22-0.9-0.36
					c-0.2-0.09-0.41-0.18-0.63-0.27c-0.26-0.1-0.39-0.39-0.29-0.64c0.1-0.26,0.39-0.39,0.64-0.29c0.24,0.09,0.46,0.19,0.68,0.29
					c0.28,0.13,0.55,0.25,0.8,0.32c0.52,0.19,1.01,0.31,1.52,0.43c0.25,0.06,0.51,0.12,0.76,0.19c0.84,0.19,1.61,0.32,2.52,0.48
					c0.33,0.02,0.7,0.07,1.08,0.13c0.81,0.11,1.56,0.13,2.31,0.18c0.6,0.04,1.19,0.01,1.84-0.1l0.18,0.98
					C220.2,215.43,219.77,215.5,219.32,215.5z"/>
			</g>
			<g>
				<path class="st4" d="M217.15,198.68c0.59-0.85,1.33-1.51,2.3-1.89c1.02-0.4,1.83,0.1,2.68,0.6c0.56,0.33,1.06-0.53,0.5-0.86
					c-1.16-0.69-2.1-1.11-3.45-0.71c-1.22,0.37-2.2,1.33-2.9,2.35C215.92,198.71,216.78,199.21,217.15,198.68L217.15,198.68z"/>
			</g>
			<g>
				<path class="st4" d="M212.63,187.98c-12.37-7.7-20.67,14.06-10.84,21.27c5.16,3.78,11.39,0.65,13.92-4.58
					C218.25,199.41,217.64,191.61,212.63,187.98c-0.52-0.38-1.02,0.49-0.5,0.86c4.41,3.18,4.75,9.69,3.1,14.41
					c-1.9,5.44-8.34,8.99-13.26,4.84c-8.14-6.86-0.94-26.16,10.16-19.25C212.67,189.19,213.17,188.32,212.63,187.98z"/>
			</g>
			<g>
				<path class="st4" d="M189.6,208.27c3.22-0.95,6.43-1.9,9.65-2.85c0.62-0.18,0.35-1.15-0.27-0.96c-3.22,0.95-6.43,1.9-9.65,2.85
					C188.72,207.48,188.98,208.45,189.6,208.27L189.6,208.27z"/>
			</g>
			<g>
				<path class="st4" d="M235.83,195.42c0.69-4.2,0.62-11.26-3.73-13.63c-1.92-1.04-4.19-0.04-5.7,1.22
					c-2.48,2.08-3.48,5.77-4.04,8.8c-0.76,4.1-1.19,12.76,4.72,13.45C232.54,205.9,234.99,199.8,235.83,195.42
					c0.12-0.63-0.84-0.9-0.96-0.27c-0.7,3.63-2.34,8.72-6.66,9.16c-5.53,0.56-5.4-7.21-5.08-10.77c0.33-3.7,3.19-13.77,8.86-10.68
					c3.6,1.96,3.44,8.9,2.88,12.29C234.77,195.79,235.73,196.06,235.83,195.42z"/>
			</g>
			<path class="st2" d="M234.03,438.32c1.14-1.82-0.81-4.64-1.8-5.69c-2.93-3.11-5.97-5.83-11.71-6.11c-2.1-0.1-6.81,0.84-8.89,0.37
				c-3.36-0.76-4.72-24.25-4.72-24.25c-13.33,1.8-27.58,3.89-27.58,3.89s7.51,30.17,9.53,32.21c2.52,2.54,5.24,3.55,8.42,2.77
				c3.04-0.74,8.15-1.77,11.29-2.04c3.43-0.29,6.23,0.03,9.44,1.11c1.34,0.45,1.52,1.59,4.07,0.65c1.03-0.38,3.56,1.06,4.63,0.74
				c0,0,1.76-0.97,2.04-1.39C229.04,440.17,232.09,441.42,234.03,438.32z"/>
			<g>
				<path class="st4" d="M146.94,336l-1.11,6.66c0,0,7.03,5.37,19.99,6.85c2.59,12.59,13.51,57.02,13.51,57.02
					c9.44,2.22,23.6-0.19,28.04-3.15c-0.18-13.88-5.46-46.28-6.94-49.06c6.48,1.48,10.18,0.56,10.18,0.56
					c4.07-12.41,9.07-25.92,10.92-31.1c1.85-5.18,3.7-7.4,8.15-9.25c4.44-1.85,19.25-8.33,16.29-32.21
					c9.44,1.3,23.33,3.52,23.33,3.52l-0.37-39.61c0,0-23.88-11.85-44.24-1.85c6.29,5.92,4.26,16.29-7.22,21.84
					c-11.48,5.55-27.03,0.74-36.1-10.37c-10.37,2.96-24.62,11.85-28.32,30.92C149.34,305.83,146.94,336,146.94,336z"/>
				<g>
					<path class="st4" d="M146.45,335.87c-0.37,2.22-0.74,4.44-1.11,6.66c-0.04,0.25,0.03,0.42,0.23,0.56
						c1.63,1.23,3.53,2.14,5.38,2.98c1.93,0.87,3.94,1.57,5.97,2.18c0.83,0.25,8.44,1.54,8.47,1.67c1.43,6.91,3.1,13.78,4.73,20.65
						c2.86,12.04,5.77,24.07,8.73,36.09c0.04,0.16,0.19,0.31,0.35,0.35c8.05,1.78,17.22,1.03,25.01-1.61
						c1.19-0.4,2.36-0.91,3.42-1.59c0.65-0.41,0.19-2.5,0.16-3.15c-0.16-3.53-0.5-7.05-0.88-10.57c-0.82-7.66-1.92-15.3-3.2-22.89
						c-0.5-2.96-1.03-5.91-1.66-8.85c-0.3-1.41-0.54-2.98-1.18-4.28c-0.19,0.24-0.38,0.49-0.56,0.73c3.31,0.71,7.08,1.35,10.45,0.56
						c0.44-0.1,0.55-0.96,0.63-1.2c0.56-1.71,1.14-3.41,1.72-5.12c1.04-3.06,2.11-6.12,3.19-9.17c1.69-4.79,3.43-9.57,5.16-14.35
						c1.75-4.84,3.59-8.52,8.54-10.59c4.32-1.81,8.17-4.4,11.12-8.08c5.53-6.88,6.36-16.08,5.38-24.55
						c-0.21,0.16-0.42,0.32-0.63,0.48c7.79,1.08,15.56,2.28,23.33,3.52c0.31,0.05,0.64-0.13,0.63-0.48
						c-0.12-13.21-0.25-26.41-0.37-39.61c0-0.17-0.09-0.36-0.25-0.43c-13.49-6.65-30.99-8.41-44.75-1.85
						c-0.29,0.14-0.32,0.57-0.1,0.79c3.55,3.49,4.21,8.31,2.07,12.76c-2.46,5.1-8.1,8.4-13.38,9.82
						c-11.53,3.09-23.99-3.04-31.3-11.8c-0.11-0.13-0.33-0.17-0.49-0.13c-7.08,2.07-13.52,5.95-18.62,11.28
						c-6.72,7.02-9.4,15.83-10.99,25.18c-2.47,14.6-4.01,29.42-5.19,44.18c-0.05,0.64,0.95,0.64,1,0
						c0.54-6.71,1.21-13.42,1.95-20.11c0.67-6.1,1.43-12.19,2.33-18.26c0.86-5.85,1.66-11.83,3.66-17.42
						c3.7-10.32,12.04-18.34,22.08-22.49c0.9-0.37,1.81-0.69,2.73-1c1.41-0.47,1.86,0.69,2.79,1.68c2.04,2.14,4.41,3.96,6.9,5.54
						c4.61,2.91,9.94,4.63,15.37,5.03c7.44,0.55,15.83-2.41,20.42-8.51c3.87-5.14,4.11-11.79-0.63-16.45
						c-0.03,0.26-0.07,0.52-0.1,0.79c11.25-5.36,24.06-4.66,35.75-1.16c2.66,0.8,5.3,1.75,7.81,2.93c0.06,0.03-0.07-0.63-0.07,0.3
						c0.01,0.97,0.02,1.94,0.03,2.92c0.11,12.02,0.22,24.04,0.34,36.05c0.21-0.16,0.42-0.32,0.63-0.48
						c-7.76-1.24-15.54-2.44-23.33-3.52c-0.28-0.04-0.67,0.12-0.63,0.48c1,8.59,0.09,17.65-5.64,24.51
						c-3.17,3.8-7.26,5.76-11.61,7.81c-3.33,1.56-5.26,4.29-6.64,7.61c-1.64,3.92-2.93,8.02-4.36,12.02
						c-2.04,5.68-4.04,11.37-5.96,17.08c-0.11,0.33-0.87,3.07-0.89,3.08c-0.48,0.11-0.98,0.15-1.48,0.19
						c-2.79,0.24-5.61-0.19-8.33-0.77c-0.44-0.09-0.76,0.33-0.56,0.73c1.07,2.16,1.29,5,1.74,7.33c0.88,4.6,1.62,9.22,2.3,13.85
						c0.8,5.37,1.49,10.76,2.05,16.16c0.23,2.25,0.43,4.49,0.58,6.75c0.07,0.98,0.12,1.97,0.16,2.95c0.05,1.34,0.08,1.54-1.15,2.13
						c-5.14,2.48-11.51,3.03-17.12,3.15c-1.48,0.03-2.95-0.03-4.43-0.14c-0.47-0.03-4.35-0.47-4.33-0.36
						c-0.11-0.43-0.21-0.86-0.32-1.29c-1.62-6.59-3.22-13.18-4.81-19.77c-2.89-11.96-5.89-23.91-8.39-35.96
						c-0.05-0.24-0.27-0.34-0.48-0.37c-6.4-0.79-12.81-2.54-18.38-5.88c-0.4-0.24-0.8-0.5-1.18-0.77c-0.38-0.27,0.12-0.01,0.06,0.39
						c0.05-0.3,0.1-0.61,0.15-0.91c0.32-1.9,0.63-3.81,0.95-5.71C147.52,335.5,146.56,335.23,146.45,335.87z"/>
				</g>
			</g>
			<g>
				<path d="M165.82,350.01c-0.23,0-0.44-0.16-0.49-0.4c-3.07-15.18-6.42-29.78-8.13-35.5c-0.08-0.26,0.07-0.54,0.34-0.62
					c0.26-0.08,0.54,0.07,0.62,0.33c1.72,5.75,5.08,20.38,8.15,35.59c0.05,0.27-0.12,0.54-0.39,0.59
					C165.88,350.01,165.85,350.01,165.82,350.01z"/>
			</g>
			<g>
				<path d="M200.99,355.75c-0.24,0-0.45-0.17-0.49-0.41c-0.25-1.32-0.94-2.87-1.8-4.83c-1.01-2.28-2.27-5.12-3.37-8.82
					c-1.27-4.29-1.54-14.05-1.79-22.66c-0.15-5.28-0.29-10.26-0.64-13.15c-0.03-0.27,0.16-0.52,0.44-0.56
					c0.28-0.04,0.52,0.16,0.56,0.44c0.36,2.94,0.5,7.94,0.65,13.25c0.24,8.55,0.51,18.24,1.74,22.4c1.08,3.63,2.33,6.44,3.33,8.7
					c0.89,2.02,1.6,3.61,1.87,5.05c0.05,0.27-0.13,0.53-0.4,0.58C201.05,355.75,201.02,355.75,200.99,355.75z"/>
			</g>
			<g>
				<path d="M246.16,283.56c-0.25,0-0.47-0.19-0.5-0.45c-0.01-0.05-0.56-5.4-1.11-9.05c-0.04-0.27,0.15-0.53,0.42-0.57
					c0.28-0.04,0.53,0.15,0.57,0.42c0.55,3.67,1.11,9.04,1.11,9.09c0.03,0.28-0.17,0.52-0.45,0.55
					C246.19,283.56,246.18,283.56,246.16,283.56z"/>
			</g>
			<g>
				<path d="M160.08,430.91c-0.26,0-0.49-0.21-0.5-0.47l-0.65-12.68c-0.01-0.28,0.2-0.51,0.47-0.52c0.26-0.03,0.51,0.2,0.52,0.47
					l0.65,12.68c0.01,0.28-0.2,0.51-0.47,0.52C160.1,430.91,160.09,430.91,160.08,430.91z"/>
			</g>
			<g>
				<path d="M159.71,422.77c-0.23,0-0.44-0.16-0.49-0.39c-0.06-0.27,0.11-0.54,0.38-0.6l8.43-1.85c0.27-0.06,0.54,0.11,0.6,0.38
					c0.06,0.27-0.11,0.54-0.38,0.6l-8.43,1.85C159.78,422.76,159.74,422.77,159.71,422.77z"/>
			</g>
			<g>
				<path d="M222.37,441.46c-0.21,0-0.41-0.14-0.48-0.35c-0.08-0.26,0.07-0.54,0.33-0.62c0.12-0.04,0.15-0.09,0.17-0.14
					c0.15-0.42-0.32-1.47-0.71-2.07c-1.62-2.22-4.55-3.96-7.44-4.41c-1.25-0.27-2.48-0.18-3.77-0.09c-0.57,0.06-1.16,0.19-1.77,0.34
					c-0.31,0.07-0.63,0.15-0.94,0.21c-0.27,0.06-0.53-0.12-0.59-0.39c-0.05-0.27,0.12-0.53,0.39-0.59c0.3-0.06,0.6-0.13,0.91-0.2
					c0.62-0.15,1.27-0.29,1.92-0.36c1.32-0.09,2.68-0.19,4.04,0.1c3.11,0.48,6.29,2.38,8.07,4.82c0.14,0.21,1.22,1.89,0.83,2.98
					c-0.13,0.37-0.41,0.63-0.81,0.76C222.47,441.46,222.42,441.46,222.37,441.46z"/>
			</g>
			<g>
				<path d="M227.74,441.56c-0.18,0-0.36-0.1-0.45-0.28c-0.12-0.25-0.02-0.55,0.22-0.67c0.74-0.37,1.05-0.73,1.12-1.28
					c0.19-0.77,0.16-1.48-0.06-2.08c-0.45-1.61-1.93-2.97-3.02-3.97c-1.29-1.2-2.98-1.91-4.47-2.5c-1.49-0.58-2.96-0.71-4.64-0.43
					c-0.72,0.05-1.42,0.16-2.09,0.28c-0.69,0.12-1.41,0.23-2.13,0.28c-0.27,0.03-0.51-0.19-0.53-0.47
					c-0.02-0.28,0.19-0.51,0.47-0.53c0.67-0.04,1.36-0.16,2.03-0.27c0.7-0.12,1.42-0.24,2.14-0.28c1.82-0.31,3.46-0.15,5.12,0.49
					c1.57,0.61,3.37,1.38,4.79,2.69c1.17,1.08,2.78,2.56,3.29,4.4c0.28,0.74,0.32,1.67,0.1,2.57c-0.12,1.09-0.94,1.64-1.65,1.99
					C227.89,441.54,227.82,441.56,227.74,441.56z"/>
			</g>
			<path class="st2" d="M311.78,206.05l-2.5-10c0,0,6.48-16.84,9.99-17.4c3.52-0.56,7.59-2.78,6.3-9.07
				c-1.3-6.29-4.45-4.81-4.45-4.81c-3.14-5.37-5.92-5-7.77-4.07c-5-6.66-15.74-7.59-21.66,3.33c-5.92,10.92-3.89,31.84,0.19,56.27
				C298.18,216.04,311.78,206.05,311.78,206.05z"/>
			<g>
				<path d="M207.31,274.37c-6.76,0-17.45-1.7-27.32-10.54c-0.21-0.18-0.22-0.5-0.04-0.71c0.19-0.21,0.5-0.22,0.71-0.04
					c10.98,9.83,23,10.61,29.18,10.2c7.11-0.47,13.54-2.93,16.4-6.27c3.53-4.26,4.94-10.07,5.09-14.07
					c0.01-0.28,0.27-0.49,0.52-0.48c0.28,0.01,0.49,0.24,0.48,0.52c-0.19,5.4-2.18,10.89-5.32,14.68c-3.03,3.54-9.74,6.14-17.1,6.63
					C209.13,274.34,208.26,274.37,207.31,274.37z"/>
			</g>
		</g>
		<g>
			<path class="st5" d="M297.35,191.29c-3.61-1.33-4.15-4.43-1.19-6.89l15.95-13.29c2.95-2.46,5.9-1.38,6.56,2.41l3.54,20.46
				c0.66,3.79-1.76,5.8-5.37,4.47L297.35,191.29z"/>
			<path class="st2" d="M313.75,171.54c0.19,3.31,2.12,4.05,3.5,3.22c-0.55,3.68,2.76,4.41,3.68,3.59
				c0.92-0.83-0.28-11.59-6.72-10.77C313.29,170.07,313.75,171.54,313.75,171.54z"/>
			<path class="st2" d="M307.35,156.13c-8.42-2.34-16.29,4.28-18.77,16.84c-1.13,5.73-0.83,13.46-0.07,21.01
				c1.39,0.13,2.76,0.36,4.12,0.67l0.51-9.81c2.35,0.69,12.7,2.07,14.22-3.59c1.52-5.66-5.25-7.46-11.32-5.25
				c0.69-3.04,2.21-8.14,6.07-9.53c3.87-1.38,6.21,8.56,10.63,6.07C317.15,170.07,315.77,158.47,307.35,156.13z"/>
			<g>
				<path d="M298.72,186.01c-2.46,0-4.72-0.39-5.73-0.69c-0.27-0.08-0.42-0.36-0.34-0.62c0.08-0.26,0.36-0.42,0.62-0.34
					c1.75,0.51,7.96,1.38,11.41-0.56c1.14-0.64,1.88-1.54,2.19-2.68c0.45-1.69,0.14-3.05-0.93-4.03c-1.91-1.75-5.91-2.01-9.73-0.62
					c-0.17,0.06-0.36,0.03-0.5-0.09c-0.14-0.12-0.2-0.31-0.16-0.49c1.27-5.57,3.36-8.8,6.39-9.89c2.15-0.77,3.78,1.26,5.36,3.23
					c1.94,2.41,3.35,3.92,5.2,2.88c0.95-0.54,1.64-1.58,1.98-3.02c0.62-2.65-0.06-5.97-1.76-8.48c-0.15-0.23-0.09-0.54,0.13-0.69
					c0.23-0.15,0.54-0.09,0.69,0.13c1.84,2.73,2.59,6.36,1.9,9.27c-0.41,1.72-1.26,2.99-2.46,3.67c-2.71,1.53-4.71-0.94-6.46-3.13
					c-1.42-1.77-2.77-3.44-4.24-2.91c-2.53,0.91-4.35,3.62-5.54,8.3c3.89-1.17,7.86-0.75,9.88,1.11c0.94,0.86,1.92,2.44,1.22,5.03
					c-0.38,1.41-1.27,2.51-2.66,3.29C303.37,185.68,300.96,186.01,298.72,186.01z"/>
			</g>
			<g>
				<path d="M315.76,175.57c-0.15,0-0.3-0.01-0.44-0.04c-0.74-0.13-1.99-0.72-2.12-3.23c-0.01-0.28,0.2-0.51,0.47-0.53
					c0.27-0.02,0.51,0.2,0.53,0.47c0.05,0.95,0.32,2.12,1.3,2.3c1.44,0.25,3.96-1.63,5.19-4.54c0.65-1.52,0.48-3.6-0.46-5.56
					c-0.12-0.25-0.01-0.55,0.24-0.67c0.25-0.12,0.55-0.01,0.67,0.24c1.07,2.25,1.25,4.57,0.48,6.38
					C320.37,173.33,317.79,175.57,315.76,175.57z"/>
			</g>
			<g>
				<path d="M319.75,179.1c-0.71,0-1.35-0.22-1.86-0.65c-0.94-0.8-1.28-2.19-0.96-3.91c0.05-0.27,0.31-0.45,0.58-0.4
					c0.27,0.05,0.45,0.31,0.4,0.58c-0.26,1.35-0.04,2.41,0.62,2.96c0.54,0.46,1.36,0.54,2.25,0.21c0.26-0.1,0.55,0.04,0.64,0.3
					c0.1,0.26-0.04,0.55-0.3,0.64C320.66,179.01,320.19,179.1,319.75,179.1z"/>
			</g>
		</g>
		<g>
			<path class="st6" d="M455.62,223.57l-74.35-42.92c-7.41-4.28-19.53-4.28-26.93,0l-74.35,42.92
				c-7.41,4.28-13.47,14.77-13.47,23.32v85.85c0,8.55,6.06,19.05,13.47,23.33L354.34,399c7.41,4.28,19.52,4.28,26.93,0l74.35-42.92
				c7.41-4.28,13.46-14.77,13.46-23.33V246.9C469.09,238.35,463.03,227.85,455.62,223.57z"/>
			<g>
				<g>
					<path class="st0" d="M419.8,273.21c0-28.01-22.71-50.72-50.72-50.72c-28.01,0-50.72,22.71-50.72,50.72
						c0,20.24,11.85,37.7,28.99,45.84c5.54,3.37,5.56,7.74,5.32,15.55c-0.2,6.57-0.65,11.87,2.38,14.65
						c2.42,2.65,7.79,4.49,14.03,4.49c6.25,0,11.61-1.84,14.03-4.49c3.03-2.78,2.58-8.08,2.38-14.65
						c-0.24-7.81-0.23-12.18,5.31-15.55C407.95,310.91,419.8,293.45,419.8,273.21z"/>
					<g>
						<path class="st0" d="M420.3,273.21c-0.15-21.91-14.21-41.46-34.93-48.58c-20.9-7.18-44.36,0.66-57.5,18.16
							c-13.79,18.36-12.93,44.31,1.08,62.24c3.5,4.48,7.82,8.27,12.58,11.36c2.43,1.58,5.26,2.59,7.46,4.47
							c2.21,1.88,2.94,4.61,3.17,7.39c0.5,5.88-1,11.96,0.45,17.75c1.17,4.67,6.23,6.71,10.46,7.64c7.14,1.58,19.83,0.82,22.48-7.64
							c2.62-8.38-3.99-21.92,6.15-26.83C409.16,310.73,420.16,292.46,420.3,273.21c0-0.65-1-0.64-1,0
							c-0.09,12.78-4.88,24.92-13.55,34.31c-4.13,4.47-9.13,8.07-14.55,10.79c-4.05,2.03-5.82,5.56-6.19,9.94
							c-0.51,6.05,1.67,13.31-0.99,18.99c-2.83,6.04-12.87,6.36-18.39,5.81c-3.31-0.33-6.81-1.34-9.45-3.42
							c-2.64-2.09-3.05-5.27-3.14-8.43c-0.17-5.55,1.12-11.53-0.6-16.93c-1.53-4.79-6.54-6.31-10.4-8.74
							c-5.29-3.34-9.87-7.76-13.57-12.79c-7.42-10.06-10.56-22.73-9.29-35.1c2.45-23.91,22.68-42.75,46.42-44.53
							c13.88-1.04,27.67,4.03,37.84,13.45c10.16,9.41,15.79,22.87,15.89,36.65C419.3,273.85,420.3,273.85,420.3,273.21z"/>
					</g>
				</g>
				<g>
					<path class="st1" d="M385.57,327.5c-5.27,1.17-10.8,1.79-16.49,1.79c-5.69,0-11.22-0.62-16.49-1.79
						c0.21,2.01,0.16,4.33,0.08,7.09c-0.2,6.57-0.65,11.87,2.38,14.65c2.42,2.65,7.79,4.49,14.03,4.49c6.25,0,11.61-1.84,14.03-4.49
						c3.03-2.78,2.58-8.08,2.38-14.65C385.41,331.84,385.36,329.51,385.57,327.5z"/>
					<g>
						<path class="st1" d="M385.44,327.02c-10.8,2.33-21.92,2.33-32.72,0c-0.29-0.06-0.66,0.14-0.63,0.48
							c0.58,6.47-1.65,14.15,1.2,20.23c2.52,5.38,10.67,6.43,15.79,6.5c5.46,0.08,12.84-1.3,15.8-6.5c1.34-2.35,1.27-5.47,1.26-8.07
							c-0.01-4.05-0.43-8.11-0.07-12.16c0.06-0.64-0.94-0.64-1,0c-0.54,6,1,12.33-0.49,18.23c-1.56,6.23-10.25,7.43-15.51,7.5
							c-5.54,0.08-13.6-1.42-15.51-7.5c-0.84-2.68-0.58-5.76-0.5-8.52c0.1-3.23,0.3-6.48,0.01-9.7c-0.21,0.16-0.42,0.32-0.63,0.48
							c10.97,2.37,22.28,2.37,33.25,0C386.33,327.85,386.06,326.89,385.44,327.02z"/>
					</g>
				</g>
				<g>
					<path class="st1" d="M363.15,330.91c-0.01,0-0.02,0-0.04,0c-0.55-0.02-0.98-0.48-0.96-1.03c0.31-9.14-1.08-21.3-4.53-30.97
						c-1.05,0.13-2.13,0.18-3.23,0.14c-9.75-0.29-15.33-5.41-17.14-9.72c-1.14-2.71-0.93-5.3,0.56-6.93
						c0.96-1.04,3.29-2.55,8.19-0.96c5.93,1.93,10.1,7.89,12.93,15.22c3.87-0.82,6.85-2.79,9.06-4.91
						c-5.17-5.1-8.72-12.74-8.99-20.09c-0.3-8.31,4.23-11.98,8.58-12.64c4.88-0.74,9.49,2.13,10.72,6.67
						c1.61,5.95-0.66,17.39-6.61,24.94c-0.28,0.35-0.56,0.69-0.84,1.02c1,0.83,2.06,1.56,3.15,2.17c1.2,0.66,2.42,1.17,3.65,1.52
						c3.65-10.98,8.96-15.73,11.95-17.64c2.74-1.74,5.89-1.96,8.43-0.59c2.18,1.18,3.5,3.36,3.53,5.83
						c0.03,2.44-1.17,7.27-9.6,12.13c-4.88,2.81-9.27,3.25-12.9,2.64c-2.17,7.23-3.63,17.11-3.27,30.52
						c0.01,0.55-0.42,1.01-0.97,1.03c-0.54,0-1.01-0.42-1.03-0.97c-0.36-13.53,1.06-23.58,3.26-31.03
						c-1.52-0.44-2.86-1.04-4.02-1.68c-1.24-0.69-2.43-1.52-3.56-2.47c-2.86,2.79-6.19,4.63-9.85,5.45
						c3.69,10.66,4.79,23.61,4.53,31.39C364.13,330.48,363.68,330.91,363.15,330.91z M342.09,282.74c-1.23,0-2.19,0.34-2.81,1.01
						c-0.95,1.04-1.02,2.83-0.19,4.8c1.59,3.76,6.56,8.24,15.36,8.49c0.85,0.03,1.66,0,2.44-0.08c-2.7-6.75-6.5-12-11.51-13.63
						C344.14,282.94,343.04,282.74,342.09,282.74z M379.68,295.78c3.71,0.54,7.53-0.28,11.28-2.44c5.51-3.18,8.65-6.96,8.6-10.37
						c-0.02-1.77-0.93-3.26-2.48-4.1c-1.89-1.02-4.28-0.83-6.4,0.52C388.46,280.8,383.31,285.07,379.68,295.78z M369.04,260.92
						c-0.39,0-0.78,0.03-1.16,0.09c-3.49,0.53-7.13,3.59-6.88,10.59c0.25,6.86,3.56,13.98,8.36,18.72c0.27-0.31,0.52-0.61,0.76-0.91
						c6.08-7.71,7.54-18.42,6.25-23.17C375.39,262.63,372.07,260.92,369.04,260.92z"/>
				</g>
				<g>
					<path d="M368.56,335.85c-4.39,0-8.88-0.45-13.28-1.74c-0.26-0.08-0.42-0.36-0.34-0.62c0.08-0.27,0.36-0.42,0.62-0.34
						c8.71,2.56,17.88,1.72,25.8,0.73c0.25-0.04,0.52,0.16,0.56,0.43c0.03,0.27-0.16,0.52-0.43,0.56
						C377.42,335.38,373.05,335.85,368.56,335.85z"/>
				</g>
			</g>
			<path class="st3" d="M292.17,320.73c-3.02,2.36-5.92,1.19-6.46-2.6l-2.9-20.49c-0.54-3.79,1.93-5.73,5.48-4.29l19.19,7.73
				c3.55,1.43,3.99,4.53,0.98,6.9L292.17,320.73z"/>
			<g>
				<path class="st4" d="M359.79,383.4c-0.61,0-1.19-0.12-1.71-0.36c-0.84-0.39-2.23-1.47-2.17-4.34c0.06-2.68,1.68-5,4.58-6.52
					c0.48-0.25,0.99-0.48,1.51-0.68c-1.91-1.68-4.51-2.84-7.19-3.05c-2.13-0.17-6.01,0.18-8.12,4.4c-0.12,0.25-0.42,0.35-0.67,0.22
					c-0.25-0.12-0.35-0.42-0.22-0.67c1.73-3.46,5.04-5.27,9.09-4.95c3.08,0.24,6.07,1.66,8.18,3.68c5.03-1.53,11.41-0.83,15.63,1.92
					c0.23,0.15,0.3,0.46,0.15,0.69c-0.15,0.23-0.46,0.3-0.69,0.15c-3.86-2.52-9.63-3.21-14.31-1.94c0.84,0.98,1.49,2.08,1.85,3.23
					c0.77,2.42,0.07,4.88-1.86,6.58C362.61,382.83,361.14,383.4,359.79,383.4z M362.8,372.27c-0.64,0.23-1.26,0.49-1.84,0.8
					c-1.81,0.96-3.98,2.71-4.05,5.66c-0.04,1.73,0.51,2.91,1.59,3.41c1.3,0.61,3.22,0.14,4.67-1.13c0.78-0.69,2.5-2.6,1.57-5.52
					C364.37,374.33,363.7,373.23,362.8,372.27z"/>
			</g>
			<path class="st5" d="M439.74,331.42c0,6.64-5.39,12.03-12.03,12.03c-6.64,0-12.03-5.39-12.03-12.03
				c0-6.65,5.39-12.03,12.03-12.03C434.36,319.39,439.74,324.77,439.74,331.42z"/>
			<path class="st7" d="M440.7,242.62c-1.95,2.56-5.61,3.06-8.17,1.11l-9.06-6.89c-2.56-1.95-3.06-5.61-1.11-8.17l0,0
				c1.95-2.56,5.61-3.06,8.17-1.11l9.06,6.89C442.15,236.4,442.65,240.05,440.7,242.62L440.7,242.62z"/>
			<path class="st7" d="M315.1,337.71c3.06-0.99,6.35,0.7,7.34,3.76l3.49,10.84c0.99,3.06-0.7,6.35-3.76,7.34l0,0
				c-3.06,0.99-6.35-0.7-7.34-3.76l-3.49-10.84C310.35,341.99,312.03,338.7,315.1,337.71L315.1,337.71z"/>
			<g>
				<path class="st4" d="M299.15,254.22c-4.64,0-8.41-3.77-8.41-8.41c0-4.64,3.77-8.41,8.41-8.41c4.64,0,8.41,3.77,8.41,8.41
					C307.56,250.44,303.79,254.22,299.15,254.22z M299.15,238.39c-4.09,0-7.41,3.33-7.41,7.41c0,4.09,3.33,7.41,7.41,7.41
					c4.09,0,7.41-3.33,7.41-7.41C306.56,241.71,303.23,238.39,299.15,238.39z"/>
			</g>
			<g>
				<path class="st0" d="M343.84,215.55c-1.67,0-3.48-0.29-5.5-0.87c-0.27-0.08-0.42-0.35-0.34-0.62c0.08-0.27,0.35-0.42,0.62-0.34
					c5.26,1.5,8.86,1.02,12.39-1.67c0.96-0.73,2.05-1.67,3.09-2.75c-1.71-0.81-3.18-2.14-4.27-3.93c-1.32-2.16-1.63-5.33-0.73-7.53
					c0.64-1.57,1.82-2.61,3.42-3c2.45-0.31,5.48,0.87,6.42,3.36c1.86,3.71-0.54,7.77-3.1,10.69c1.17,0.33,2.44,0.42,3.73,0.23
					c4.04-0.59,7.34-3.55,8.41-7.54c0.07-0.27,0.35-0.42,0.61-0.35c0.27,0.07,0.43,0.35,0.35,0.61c-1.17,4.38-4.79,7.63-9.23,8.27
					c-1.62,0.23-3.19,0.09-4.62-0.4c-1.59,1.67-3.08,2.84-3.48,3.14C349.22,214.66,346.74,215.55,343.84,215.55z M353.31,195.77
					c-0.21,0-0.42,0.01-0.62,0.04c-1.23,0.31-2.15,1.12-2.67,2.4c-0.79,1.93-0.52,4.72,0.65,6.63c1.04,1.71,2.48,2.96,4.14,3.67
					c2.67-2.98,4.78-6.77,3.2-9.93C357.33,196.75,355.17,195.77,353.31,195.77z"/>
			</g>
		</g>
		<g>
			<path class="st2" d="M486.99,318.67c-0.42-3.61-2.43-11.16-3.94-15.06c-1.11-2.88-0.3-4.67-4.61-7.17
				c-4.3-2.5-9.58-6.94-10.55-7.36c-0.97-0.42-2.5-6.39-8.19-1.11c-5.69,5.28-11.94,5.69-13.46,0.69c-2.92-0.55-4.58-2.91-3.75-4.58
				c0.83-1.67,7.5-6.25,7.5-6.25c-3.33,1.8-9.16,2.22-10-0.28c-0.83-2.5,1.94-4.44,6.66-5.83c4.72-1.39,23.6-9.86,28.74-6.66
				c5.14,3.19,13.33,10.14,19.16,14.02c5.83,3.89,7.91,10.13,10.69,17.49c2.78,7.36,5,15.13,5,15.13S502.96,324.5,486.99,318.67z"/>
			<g>
				<path d="M445.78,288.78c-1.25,0-2.43-0.48-3.35-1.82c-0.16-0.23-0.1-0.54,0.13-0.7c0.22-0.16,0.54-0.1,0.7,0.13
					c1.82,2.64,4.93,1.07,8.22-0.93l0.66-0.4c0.25-0.13,0.48-0.25,0.71-0.36c0.83-0.41,1.61-0.79,2.23-1.38
					c0.2-0.19,0.52-0.18,0.71,0.02c0.19,0.2,0.18,0.52-0.02,0.71c-0.74,0.69-1.62,1.13-2.48,1.55c-0.23,0.11-0.45,0.22-0.67,0.34
					l-0.63,0.38C450.33,287.34,447.94,288.78,445.78,288.78z"/>
			</g>
			<g>
				<path d="M443.65,279.68c-0.55,0-1.11-0.06-1.7-0.21c-0.27-0.07-0.43-0.34-0.36-0.61c0.07-0.27,0.35-0.43,0.61-0.36
					c1.32,0.35,2.58,0.12,3.91-0.12c0.32-0.06,0.64-0.12,0.97-0.17c1.08-0.25,2.17-0.6,3.31-1.08c0.25-0.13,0.51-0.25,0.77-0.36
					c0.25-0.11,0.5-0.23,0.77-0.36c0.19-0.09,0.37-0.21,0.56-0.33c0.38-0.23,0.8-0.5,1.29-0.63c0.26-0.08,0.54,0.08,0.62,0.34
					c0.08,0.27-0.08,0.54-0.34,0.62c-0.35,0.1-0.7,0.32-1.04,0.52c-0.21,0.13-0.43,0.26-0.64,0.37c-0.28,0.14-0.54,0.26-0.8,0.38
					c-0.25,0.11-0.5,0.23-0.77,0.36c-1.22,0.51-2.37,0.88-3.54,1.15c-0.36,0.06-0.67,0.11-0.98,0.17
					C445.4,279.53,444.54,279.68,443.65,279.68z"/>
			</g>
			<path class="st4" d="M480.34,267.14c1.96,1.3,2.49,3.97,1.2,5.93l-11.52,17.35c-1.3,1.96-3.97,2.5-5.92,1.2l-17.35-11.52
				c-1.96-1.3-2.5-3.97-1.2-5.93l11.52-17.35c1.3-1.96,3.97-2.5,5.93-1.2L480.34,267.14z"/>
			<path class="st2" d="M572.86,217.17c-25.73,1.37-21.29,22.58-19.24,29.51c1.88,6.35-6.86,11.64-2.4,19.48
				c4.46,7.83,12.33,12.08,24.54,12.64c0,0-0.61,13.61-1.16,18.05l25.55-1.67c-1.07-7.87-3.38-24.19-0.23-30.27
				c1.28-2.47,9,7.91,17.21-4.72C625.35,247.57,598.59,215.81,572.86,217.17z"/>
			<g>
				<path d="M575.75,279.18c-0.26,0-0.48-0.21-0.5-0.47c-0.02-0.28,0.19-0.51,0.47-0.53c6.15-0.36,12.7-2.88,17.52-6.73
					c0.21-0.17,0.53-0.14,0.7,0.08c0.17,0.22,0.14,0.53-0.08,0.7c-4.98,3.97-11.74,6.57-18.09,6.94
					C575.77,279.18,575.76,279.18,575.75,279.18z"/>
			</g>
			<path d="M576.53,249.65c2.56-0.13,3.79,4.88,1.31,5.19C575.36,255.16,574.44,249.76,576.53,249.65z"/>
			<g>
				<path d="M576.91,250.65c-0.07,0-0.14-0.01-0.21-0.04l-0.15-0.07c-1.02-0.46-1.9-0.85-2.4-1.46c-0.18-0.21-0.15-0.53,0.07-0.7
					c0.21-0.18,0.53-0.15,0.7,0.07c0.36,0.43,1.18,0.8,2.04,1.19l0.15,0.07c0.25,0.11,0.36,0.41,0.25,0.66
					C577.28,250.54,577.1,250.65,576.91,250.65z"/>
			</g>
			<path d="M557.57,247.16c2.56-0.04,3.61,5.01,1.12,5.24C556.21,252.63,555.47,247.19,557.57,247.16z"/>
			<g>
				<path d="M557.93,248.17c-0.08,0-0.15-0.02-0.22-0.05l-0.17-0.08c-0.99-0.49-1.85-0.91-2.33-1.54c-0.17-0.22-0.13-0.53,0.09-0.7
					c0.22-0.17,0.53-0.13,0.7,0.09c0.34,0.44,1.14,0.84,1.98,1.25l0.17,0.08c0.25,0.12,0.35,0.42,0.23,0.67
					C558.29,248.07,558.11,248.17,557.93,248.17z"/>
			</g>
			<g>
				<path d="M565.7,261c-1.63,0-3.27-0.19-4.67-1.45c-1.77-1.58-0.72-3.5-0.04-4.77c1.01-1.86,2.04-4.07,1.99-6.33
					c-0.04-1.9-0.76-2.78-1.86-4.11l-0.46-0.56c-0.17-0.22-0.14-0.53,0.08-0.7c0.21-0.17,0.53-0.14,0.7,0.08l0.45,0.55
					c1.14,1.39,2.04,2.48,2.08,4.72c0.05,2.49-1.04,4.85-2.11,6.83c-0.82,1.51-1.27,2.57-0.18,3.55c1.41,1.26,3.17,1.22,5.03,1.17
					c0.29-0.01,0.57-0.01,0.85-0.02c0,0,0,0,0,0c0.27,0,0.5,0.22,0.5,0.5c0,0.28-0.22,0.5-0.5,0.5c-0.28,0-0.56,0.01-0.84,0.02
					C566.4,261,566.05,261,565.7,261z"/>
			</g>
			<g>
				<path d="M568.56,268.67c-1.5,0-2.87-1.32-4.07-3.91c-0.08-0.16-0.06-0.36,0.05-0.5c0.11-0.15,0.29-0.22,0.46-0.2
					c1.61,0.2,6.48-1.52,8.11-3.31c0.15-0.17,0.39-0.21,0.6-0.11c0.2,0.1,0.31,0.32,0.26,0.54
					C573.35,264.28,571.26,268.67,568.56,268.67z M565.75,265.04c0.91,1.73,1.88,2.63,2.82,2.63c1.68,0,3.24-2.69,4.04-5.21
					C570.61,263.81,567.54,264.85,565.75,265.04z"/>
			</g>
			<g>
				<path class="st3" d="M572.66,243.25c-0.69-1.74,1-3.69,4.12-2.38c2.33,0.98,4.61,3.21,5.72,5.29c1.11,2.08-0.21,0.87-1.53-0.17
					c-1.32-1.04-3.11-2.26-6.38-2.19C573.46,243.84,572.8,243.95,572.66,243.25z"/>
				<path class="st3" d="M582.83,247.81c-0.38,0-0.8-0.33-1.72-1.07l-0.44-0.35c-1.28-1.01-2.88-2.08-5.8-2.08l-0.62,0.01
					c-0.18,0.01-0.35,0.01-0.5,0.01c-0.45,0-1.37,0-1.57-0.98c-0.29-0.71-0.21-1.56,0.25-2.24c0.82-1.21,2.63-1.51,4.56-0.7
					c2.33,0.99,4.73,3.2,5.96,5.52c0.48,0.9,0.57,1.28,0.39,1.59C583.24,247.68,583,247.81,582.83,247.81L582.83,247.81z
					 M574.87,243.31c3.08,0,4.91,1.1,6.42,2.3l0.45,0.35c0.05,0.04,0.1,0.08,0.16,0.12c-1.16-1.99-3.29-3.91-5.29-4.75
					c-1.48-0.62-2.79-0.47-3.34,0.34c-0.27,0.4-0.32,0.91-0.12,1.39c0.05,0.2,0.06,0.27,0.62,0.27c0.14,0,0.3,0,0.47-0.01
					L574.87,243.31z"/>
			</g>
			<path class="st3" d="M552.12,237.43c2.22-3.79,11.11-13.33,23.51-18.61c0,11.66,6.2,29.8,20.55,30.26
				c-0.46,4.81-1.02,8.33,0.18,8.79c1.21,0.46,5.18-2.13,5.83-7.87c3.43-3.7,11.66-2.5,13.51,3.33c1.85,5.83-3.79,14.9-14.16,10.74
				c-1.67-0.28-3.7,2.78-3.33,9.44c8.42,0.93,17.68-2.04,22.77-10.74c5.09-8.7,4.16-19.34-1.12-27.86
				c-5.27-8.52-6.29-11.94-5.27-16.29c15.37,3.15,24.91-7.6,22.83-21.2c-2.08-13.61-15.16-22-29.88-18.25
				c-14.71,3.75-18.88,21.12-4,31.25c-2.08,2.36-8.48,0.06-16.54-3.69c-8.05-3.75-32.03-9.23-43.87,9.3
				c-12.12,18.97,5.83,31.38,10.41,30.13C551.89,241.17,552.12,237.43,552.12,237.43z"/>
			<g>
				<g>
					<path class="st5" d="M670.88,384.31c-9.44-21.84-12.59-34.8-21.66-57.38c-9.07-22.58-25.73-22.58-35.73-23.7
						c-10-1.11-13.22-5.66-13.78-13.07c-20.55,7.59-24.54-2.11-24.91-1.37c-1.76,10.92-5.18,10.92-17.03,9.25
						c-11.85-1.67-27.03,17.59-39.24,33.32c0,0-7.41-20.83-9.26-23.97c-9.72,8.47-17.68,7.56-23.65,5.62c0,0,2.59,9.19,4.11,15.58
						c-11.93,4.03,2.39,35.95,8.71,48.22c11.57,22.49,31.73,15.8,47.1-7.52c3.72,3.85,7.9,7.78,8.09,9.63
						c0.18,1.85,0.07,11.5-0.85,17.05c-0.92,5.55-5.55,21.47-5.55,22.03c0,0.56,5.92,15,5.92,15s58.13,1.11,57.94,9.44
						c8.88-1.3,38.5,0.55,56.09-7.96C684.76,425.97,680.32,406.16,670.88,384.31z M625.71,409.12l2.41-26.29l6.66,25.55
						L625.71,409.12z"/>
				</g>
				<g>
					<path class="st5" d="M671.31,384.06c-5.22-12.12-9.56-24.54-13.97-36.96c-2.31-6.51-4.72-12.98-7.27-19.4
						c-2.12-5.34-4.84-10.34-8.81-14.54c-5.57-5.89-13.19-8.68-21.08-9.71c-4.01-0.52-8.13-0.59-12-1.86
						c-5.29-1.73-7.51-6.19-7.96-11.43c-0.03-0.3-0.3-0.6-0.63-0.48c-6.91,2.5-17.07,5.37-23.3-0.3c-0.42-0.39-1.31-1.68-1.91-0.84
						c-0.47,0.65-0.46,2.32-0.65,3.13c-0.25,1.05-0.59,2.08-1.04,3.06c-0.79,1.71-2.11,2.83-3.92,3.33
						c-4.22,1.16-8.7-0.7-12.94-0.61c-4.32,0.09-8.39,2.62-11.75,5.09c-10.28,7.56-18.14,18.49-25.9,28.47
						c0.28,0.07,0.56,0.15,0.84,0.22c-1.32-3.7-2.66-7.38-4.03-11.06c-1.6-4.31-3-9.01-5.28-13.04c-0.17-0.3-0.54-0.31-0.79-0.1
						c-6.81,5.79-14.52,8.24-23.16,5.49c-0.37-0.12-0.72,0.26-0.62,0.62c1.46,5.17,2.86,10.35,4.11,15.58
						c0.12-0.21,0.23-0.41,0.35-0.62c-6.61,2.43-5.15,11.52-4.04,16.87c1.96,9.43,5.9,18.52,10.02,27.18
						c3.9,8.2,8.9,17.23,18.73,18.8c10.07,1.61,19.27-6.16,25.43-13.14c2.28-2.59,4.32-5.4,6.24-8.27c-0.26,0.03-0.52,0.07-0.79,0.1
						c1.62,1.66,3.25,3.3,4.84,4.99c1.2,1.27,3.02,2.9,3.13,4.75c0.2,3.35-0.01,6.76-0.21,10.11c-0.42,6.99-2.27,13.63-4.08,20.36
						c-0.67,2.47-1.37,4.93-2,7.41c-0.29,1.15,0.28,2.1,0.69,3.18c1.64,4.25,3.37,8.47,5.1,12.69c0.09,0.21,0.24,0.36,0.48,0.37
						c9.11,0.18,18.24,0.68,27.32,1.45c6.73,0.57,13.48,1.28,20.1,2.67c2.16,0.45,9.97,1.6,10.03,4.82
						c0.01,0.36,0.31,0.53,0.63,0.48c8.22-1.14,16.72-0.69,25-1.28c10.17-0.73,20.65-2.08,30.06-6.2
						C687.7,426.07,678.23,400.15,671.31,384.06c-0.25-0.59-1.12-0.08-0.86,0.5c4.14,9.64,8.3,20.09,8.21,30.75
						c-0.03,4.3-1.12,8.5-3.54,12.07c-2.87,4.23-7.58,6.63-12.23,8.36c-9.54,3.56-20,4.52-30.09,5.12
						c-7.24,0.43-14.65,0.1-21.84,1.09c0.21,0.16,0.42,0.32,0.63,0.48c-0.07-3.75-7.02-4.93-9.62-5.54
						c-7.35-1.72-14.97-2.42-22.48-3.04c-7-0.58-14.01-0.96-21.03-1.21c-1.65-0.06-3.31-0.11-4.96-0.15
						c-0.72-0.02,0.28,0.72-0.05-0.1c-0.59-1.43-1.17-2.87-1.75-4.31c-0.97-2.39-1.93-4.78-2.87-7.18
						c-0.42-1.06-1.21-2.46-0.98-3.38c1.27-5.17,2.81-10.28,4.1-15.44c1.49-5.95,2.09-11.83,2.24-17.97
						c0.04-1.76,0.52-4.49-0.32-6.15c-1.77-3.5-5.27-6.27-7.96-9.04c-0.24-0.24-0.61-0.16-0.79,0.1
						c-5.96,8.95-14.32,18.83-25.49,20.87c-10.76,1.96-17.67-7.12-21.9-15.63c-4.01-8.06-7.58-16.42-10.07-25.08
						c-1.49-5.2-5.03-17.45,2.22-20.12c0.26-0.1,0.42-0.33,0.35-0.62c-1.25-5.22-2.65-10.41-4.11-15.58
						c-0.21,0.21-0.41,0.41-0.62,0.62c9,2.86,17.05,0.28,24.13-5.75c-0.26-0.03-0.52-0.07-0.79-0.1c2.33,4.1,3.73,8.9,5.37,13.3
						c1.3,3.51,2.59,7.03,3.84,10.56c0.11,0.31,0.59,0.54,0.84,0.22c7.86-10.12,15.81-21.05,26.24-28.71
						c4.22-3.1,8.65-5.01,13.93-4.29c3.5,0.48,7.58,1.29,11-0.03c2.81-1.09,3.95-4.06,4.64-6.75c0.25-0.96,0.78-2.07,0-2.72
						c0.16,0.13,0.3,0.29,0.44,0.44c0.51,0.52,1.07,0.99,1.67,1.42c6.53,4.75,16.26,2.03,23.05-0.43c-0.21-0.16-0.42-0.32-0.63-0.48
						c0.32,3.75,1.32,7.33,4.21,9.92c3.2,2.87,7.8,3.43,11.9,3.84c8.37,0.83,16.42,2.36,23.06,7.92c4.78,4,8.02,9.52,10.36,15.22
						c2.75,6.69,5.21,13.5,7.64,20.31c4.45,12.5,8.82,25,14.07,37.2C670.7,385.16,671.56,384.65,671.31,384.06z"/>
					<path class="st5" d="M626.21,409.12c0.8-8.76,1.6-17.52,2.41-26.29c-0.33,0.04-0.65,0.09-0.98,0.13
						c2.22,8.52,4.44,17.03,6.66,25.55c0.16-0.21,0.32-0.42,0.48-0.63c-3.02,0.25-6.05,0.49-9.07,0.74c-0.64,0.05-0.64,1.05,0,1
						c3.02-0.25,6.05-0.49,9.07-0.74c0.32-0.03,0.57-0.3,0.48-0.63c-2.22-8.52-4.44-17.03-6.66-25.55
						c-0.15-0.58-0.93-0.41-0.98,0.13c-0.8,8.76-1.6,17.52-2.41,26.29C625.15,409.76,626.15,409.76,626.21,409.12z"/>
				</g>
			</g>
			<path class="st2" d="M514.08,422.82c4.07-3.89,13.88-10.74,16.29-7.22c3.33-2.59,6.29-2.04,6.29-2.04
				c2.78-2.96,6.11-3.7,9.44,0.18c3.33,3.89,13.33,12.22,14.99,13.88c1.67,1.67,14.62,1.29,43.69-5c5.92,2.41,6.24,19.17,6.24,19.17
				c-10.79,0.68-90.26,0.3-90.26,0.3L514.08,422.82z"/>
			<g>
				<path d="M547.59,433.13c-0.13,0-0.26-0.05-0.36-0.15l-0.14-0.14c-0.06-0.06-0.1-0.13-0.12-0.2c-0.46-0.68-0.71-1.44-0.96-2.18
					c-0.26-0.52-0.5-1.04-0.74-1.55c-0.25-0.53-0.49-1.05-0.77-1.61c-0.61-0.94-1.18-2.01-1.73-3.04c-0.43-0.81-0.88-1.65-1.35-2.44
					c-0.72,0.84-1.48,1.64-2.23,2.43c-1.07,1.12-2.18,2.29-3.14,3.55l-0.18,0.24c-1.24,1.67-3.54,4.76-6.44,3.08
					c-0.8-0.42-1.34-1.07-1.58-1.9c-0.51-1.78,0.52-3.82,0.98-4.61c0.71-1.14,1.49-2.24,2.25-3.3c0.75-1.05,1.52-2.14,2.2-3.23
					c0.37-0.56,0.71-1.14,1.04-1.71c0.68-1.18,1.39-2.4,2.36-3.37c0.2-0.2,0.51-0.2,0.71,0c0.2,0.2,0.2,0.51,0,0.71
					c-0.88,0.88-1.52,1.99-2.2,3.17c-0.34,0.59-0.69,1.19-1.07,1.75c-0.69,1.11-1.47,2.21-2.23,3.27c-0.75,1.05-1.52,2.14-2.21,3.24
					c-0.3,0.52-1.29,2.38-0.88,3.82c0.16,0.57,0.52,1,1.1,1.3c1.98,1.15,3.57-0.67,5.15-2.8l0.18-0.25c1-1.31,2.13-2.49,3.22-3.63
					c0.93-0.98,1.82-1.91,2.63-2.91c0.1-0.12,0.26-0.2,0.42-0.18c0.16,0.01,0.31,0.09,0.39,0.23c0.64,0.99,1.21,2.06,1.76,3.09
					c0.54,1.02,1.1,2.07,1.71,3.02c0.31,0.62,0.56,1.15,0.81,1.68c0.24,0.51,0.47,1.02,0.75,1.56c0.01,0.02,0.03,0.07,0.04,0.1
					c0.27,0.8,0.52,1.56,1.02,2.17c0.17,0.21,0.14,0.51-0.06,0.69C547.82,433.09,547.71,433.13,547.59,433.13z"/>
			</g>
			<g>
				<path d="M522.09,429.38c-1.18,0-2.37-0.41-3.21-1.43c-1.83-2.56,0.82-5.21,1.7-6.09c2.98-2.83,6.53-4.82,9.97-6.75
					c0.24-0.13,0.54-0.05,0.68,0.19c0.13,0.24,0.05,0.55-0.19,0.68c-3.38,1.89-6.88,3.85-9.76,6.59c-1.99,1.99-2.5,3.51-1.6,4.76
					c1.11,1.35,3.12,1.23,4.51,0.54c1.47-0.67,2.85-1.77,4.18-2.83l0.66,0.75c-1.41,1.13-2.84,2.27-4.41,2.98
					C523.87,429.15,522.98,429.38,522.09,429.38z"/>
			</g>
			<g>
				<path d="M515.93,429.24c-0.24,0-0.46-0.18-0.49-0.43c-0.04-0.27,0.15-0.53,0.42-0.57c0.85-0.12,2.16-0.63,2.77-1.25
					c0.2-0.2,0.51-0.2,0.71,0c0.2,0.2,0.2,0.51,0,0.71c-0.8,0.8-2.32,1.38-3.34,1.53C515.98,429.24,515.96,429.24,515.93,429.24z"/>
			</g>
			<g>
				<path d="M547.46,372.11c-0.12,0-0.25-0.05-0.34-0.13c-1.72-1.6-3.72-4.81-4.46-7.14c-2.94-9.19-0.58-18.74,2.4-27.7
					c0.16-0.49-0.63-1.38-1.16-1.97c-0.2-0.23-0.4-0.45-0.55-0.64c-0.53-0.89-1.02-1.73-1.5-2.57c-0.14-0.24-0.06-0.54,0.18-0.68
					c0.24-0.14,0.54-0.06,0.68,0.18c0.49,0.84,0.97,1.68,1.46,2.51c0.1,0.13,0.28,0.33,0.47,0.54c0.76,0.85,1.71,1.91,1.36,2.95
					c-2.93,8.8-5.24,18.16-2.39,27.08c0.61,1.93,2.45,5.08,4.19,6.72c0.2,0.19,0.21,0.5,0.02,0.71
					C547.73,372.05,547.59,372.11,547.46,372.11z"/>
			</g>
			<g>
				<path d="M493.45,329.66c-2.18,0-3.91-0.36-4.9-1.01c-0.23-0.15-0.29-0.46-0.14-0.69c0.15-0.23,0.46-0.29,0.69-0.14
					c3,1.98,13.57,0.73,22.02-5.04c0.23-0.15,0.54-0.1,0.7,0.13c0.16,0.23,0.1,0.54-0.13,0.7
					C505.42,327.89,498.31,329.66,493.45,329.66z"/>
			</g>
			<g>
				<path d="M522.65,344.21c-0.23,0-0.44-0.17-0.49-0.41c-0.91-4.74-1.67-7.19-4.32-13.83c-0.1-0.26,0.02-0.55,0.28-0.65
					c0.26-0.1,0.55,0.02,0.65,0.28c2.67,6.71,3.45,9.2,4.37,14.01c0.05,0.27-0.13,0.53-0.4,0.58
					C522.71,344.21,522.68,344.21,522.65,344.21z"/>
			</g>
			<g>
				<path d="M634.92,408.42c-0.22,0-0.42-0.14-0.48-0.36c-0.78-2.71-1.61-5.82-2.5-9.11c-1.76-6.58-3.76-14.04-5.88-20.26
					c-3.05-8.97-5.5-18.1-8.15-28.26c-0.07-0.27,0.09-0.54,0.36-0.61c0.27-0.07,0.54,0.09,0.61,0.36
					c2.65,10.13,5.09,19.25,8.13,28.19c2.13,6.25,4.13,13.73,5.9,20.32c0.88,3.29,1.71,6.39,2.49,9.09
					c0.08,0.27-0.08,0.54-0.34,0.62C635.01,408.41,634.96,408.42,634.92,408.42z"/>
			</g>
			<g>
				<path d="M604.37,422.58c-0.13,0-0.25-0.05-0.35-0.14c-0.14-0.14-0.22-0.41-0.15-0.6c0.08-0.19,0.35-0.32,0.55-0.32
					c0.05,0,0.11,0,0.14-0.02c0.03-0.02,0.07-0.03,0.1-0.04c0.22-0.05,0.44-0.13,0.67-0.22c0.34-0.12,0.72-0.26,1.15-0.34
					c0.79-0.11,1.48-0.32,2.21-0.53l0.53-0.15c0.47-0.08,0.88-0.12,1.28-0.15c0.17-0.01,0.34-0.03,0.5-0.05
					c-0.03-0.06-0.06-0.13-0.08-0.19c-0.52-1.19-1.06-2.41-0.81-3.8c0.37-2.38,2.61-4.04,3.56-4.64c2.53-1.57,5.51-2.02,8.39-2.45
					c0.55-0.08,1.1-0.17,1.65-0.26c2.35-0.38,4.73-0.5,7.02-0.62c1.14-0.06,2.29-0.12,3.43-0.21c2.73-0.14,5.54-0.28,8.37-0.28h6.11
					c0.28,0,0.5,0.22,0.5,0.5c0,0.28-0.22,0.5-0.5,0.5h-6.11c-2.8,0-5.6,0.14-8.3,0.28c-1.14,0.09-2.29,0.15-3.45,0.21
					c-2.27,0.12-4.62,0.25-6.92,0.61c-0.54,0.09-1.1,0.17-1.66,0.26c-2.78,0.42-5.66,0.86-8.01,2.31c-0.83,0.53-2.79,1.97-3.1,3.95
					c-0.2,1.1,0.26,2.14,0.74,3.23c0.12,0.27,0.24,0.54,0.34,0.81c0.06,0.14,0.05,0.29-0.02,0.42c-0.07,0.13-0.2,0.22-0.34,0.25
					c-0.39,0.08-0.8,0.11-1.23,0.15c-0.37,0.03-0.76,0.07-1.15,0.13l-0.47,0.14c-0.77,0.23-1.49,0.44-2.32,0.56
					c-0.33,0.07-0.67,0.19-0.99,0.3c-0.25,0.09-0.48,0.17-0.72,0.23c-0.11,0.05-0.22,0.07-0.32,0.09
					C604.56,422.55,604.47,422.58,604.37,422.58z"/>
			</g>
			<g>
				<path d="M619.92,440.35c-0.28,0-0.5-0.22-0.5-0.5c0-3.75-0.6-7.24-1.77-10.38l-0.24-0.68c-0.58-1.66-1.13-3.22-2.2-4.76
					c-0.97-1.52-2.78-2.72-4.13-3.46c-0.24-0.13-0.33-0.44-0.2-0.68c0.13-0.24,0.44-0.33,0.68-0.2c1.46,0.79,3.41,2.09,4.49,3.78
					c1.13,1.63,1.7,3.26,2.31,4.98l0.24,0.67c1.18,3.15,1.8,6.65,1.83,10.4c0,0.01,0,0.02,0,0.04v0.28
					C620.42,440.13,620.2,440.35,619.92,440.35z"/>
			</g>
			<g>
				<path d="M563.97,422.03c-0.01,0-0.02,0-0.03,0c-0.28-0.02-0.49-0.25-0.47-0.53c0.09-1.56,1.77-7.57,2.55-9.39
					c0.74-1.73,1.22-3.44,1.72-5.26c0.21-0.77,0.43-1.54,0.67-2.33c1.88-6.19,3.49-11.79,4.05-17.66c0.37-1.86,0.55-3.7,0.55-5.5
					c0-1.77-0.53-3.35-1.08-5.02c-0.34-1.06-0.69-2.12-1.04-3.18c-0.81-2.45-1.66-4.99-2.31-7.6c-1.14-3.62-1.51-7.28-1.86-10.81
					c-0.14-1.44,0.04-2.88,0.21-4.28c0.06-0.46,0.12-0.92,0.16-1.38l0.05-0.47c0.18-1.77,0.36-3.6,0.7-5.32
					c0.29-0.96,0.51-1.87,0.74-2.78c0.23-0.92,0.47-1.87,0.75-2.82c0.39-1.44,0.88-2.7,1.39-4.03c0.21-0.56,0.43-1.13,0.66-1.73
					c0.62-1.96,1.17-3.95,1.76-6.05c0.45-1.6,0.9-3.22,1.38-4.84c0.17-0.89,0.41-1.83,0.64-2.74c0.23-0.91,0.46-1.85,0.65-2.77
					c0.12-0.42,0.21-0.79,0.3-1.15c0.22-0.88,0.43-1.71,0.84-2.66c0.11-0.25,0.4-0.37,0.66-0.26c0.25,0.11,0.37,0.4,0.26,0.66
					c-0.37,0.87-0.58,1.67-0.79,2.51c-0.09,0.37-0.19,0.74-0.3,1.14c-0.18,0.9-0.42,1.86-0.65,2.78c-0.22,0.9-0.46,1.83-0.64,2.74
					c-0.49,1.66-0.94,3.27-1.39,4.87c-0.56,2.02-1.14,4.12-1.77,6.11c-0.23,0.63-0.45,1.21-0.67,1.77c-0.5,1.31-0.98,2.54-1.36,3.95
					c-0.28,0.93-0.52,1.87-0.74,2.78c-0.23,0.93-0.46,1.86-0.74,2.78c-0.32,1.63-0.5,3.43-0.67,5.18l-0.05,0.47
					c-0.05,0.47-0.1,0.93-0.16,1.4c-0.17,1.4-0.34,2.72-0.21,4.05c0.35,3.48,0.71,7.08,1.83,10.64c0.65,2.6,1.49,5.12,2.29,7.55
					c0.35,1.06,0.71,2.12,1.04,3.18c0.56,1.67,1.13,3.4,1.13,5.33c0,1.87-0.19,3.77-0.56,5.65c-0.56,5.91-2.18,11.57-4.08,17.81
					c-0.24,0.77-0.45,1.54-0.66,2.3c-0.49,1.77-1,3.6-1.76,5.39c-0.73,1.71-2.38,7.59-2.47,9.05
					C564.46,421.82,564.24,422.03,563.97,422.03z"/>
			</g>
			<g>
				<path d="M590.01,309.75c-1.5,0-2.89-0.8-3.96-2.35c-1.89-2.42-2.33-5.32-2.75-8.12c-0.09-0.57-0.17-1.16-0.27-1.74
					c-0.77,1.3-1.55,2.6-2.4,3.88l-0.24,0.36c-1.2,1.82-3.43,5.2-5.95,5.52c-0.95,0.12-1.82-0.19-2.62-0.92
					c-2-1.86-1.86-4.22-1.72-6.5l0.03-0.43c0.02-0.28,0.26-0.5,0.53-0.47c0.28,0.02,0.49,0.25,0.47,0.53l-0.03,0.43
					c-0.13,2.14-0.26,4.17,1.4,5.7c0.58,0.53,1.16,0.74,1.82,0.66c2.06-0.26,4.21-3.51,5.24-5.07l0.24-0.36
					c1.09-1.63,2.06-3.29,3-4.9c0.1-0.18,0.32-0.31,0.53-0.28c0.2,0.03,0.39,0.15,0.43,0.35c0.23,1.02,0.38,2.08,0.54,3.09
					c0.42,2.8,0.82,5.44,2.56,7.68c0.71,1.03,2.23,2.58,4.56,1.65c1.29-0.46,3.75-1.42,5.89-2.74c1.84-1.14,3.44-2.5,4.74-4.06
					c0.18-0.21,0.49-0.24,0.7-0.06c0.21,0.18,0.24,0.49,0.06,0.7c-1.37,1.64-3.04,3.08-4.98,4.27c-2.22,1.36-4.75,2.35-6.07,2.82
					C591.18,309.64,590.59,309.75,590.01,309.75z"/>
			</g>
			<g>
				<path d="M581.04,310.71c-0.12,0-0.24-0.01-0.36-0.03c-0.71-0.13-1.22-0.64-1.37-1.38c-0.24-1.02,0.1-2.03,0.87-2.61
					c0.75-0.57,1.76-0.63,2.64-0.15c0.2,0.11,0.3,0.34,0.25,0.56c0.11,0.17,0.2,0.35,0.26,0.56c0.17,0.65,0.03,1.48-0.34,1.98
					C582.57,310.29,581.8,310.71,581.04,310.71z M581.58,307.22c-0.29,0-0.56,0.09-0.8,0.27c-0.46,0.35-0.65,0.95-0.5,1.61
					c0.07,0.35,0.26,0.55,0.57,0.6c0.4,0.07,0.99-0.12,1.3-0.62c0.19-0.26,0.3-0.77,0.2-1.16c-0.06-0.24-0.19-0.39-0.39-0.48
					c-0.11-0.05-0.19-0.12-0.24-0.22C581.68,307.22,581.63,307.22,581.58,307.22z"/>
			</g>
			<g>
				<path d="M576.45,337c-0.4,0-0.89-0.15-1.42-0.62c-0.52-0.51-0.76-1.19-0.71-1.92c0.06-0.89,0.55-1.76,1.29-2.32
					c0.75-0.56,1.27-0.36,1.92-0.1c0.09,0.04,0.17,0.09,0.23,0.17c0.49,0.13,0.82,0.56,0.92,1.19c0.18,1.13-0.38,2.82-1.42,3.4
					C577.07,336.89,576.79,337,576.45,337z M576.56,332.77c-0.12,0-0.2,0.05-0.35,0.16c-0.51,0.38-0.85,0.99-0.9,1.59
					c-0.02,0.31,0.03,0.76,0.39,1.12c0.59,0.52,0.95,0.33,1.07,0.26c0.63-0.35,1.04-1.61,0.92-2.36c-0.01-0.08-0.07-0.36-0.21-0.39
					c-0.13-0.02-0.24-0.1-0.32-0.2c0,0-0.01,0-0.01,0C576.85,332.83,576.69,332.77,576.56,332.77z"/>
			</g>
			<g>
				<path d="M574.51,364.42c-0.38,0-0.86-0.16-1.35-0.75c-0.44-0.55-0.66-1.56-0.53-2.42c0.1-0.62,0.36-1.1,0.77-1.37
					c0.15-0.1,0.32-0.11,0.47-0.04c0.02-0.27,0.24-0.49,0.52-0.46c1.02,0.05,1.75,0.69,1.95,1.7c0.25,1.27-0.33,2.77-1.26,3.21
					C574.97,364.35,574.77,364.42,574.51,364.42z M574.19,360.34c-0.01,0.15-0.09,0.29-0.22,0.37c-0.17,0.11-0.29,0.36-0.34,0.69
					c-0.1,0.64,0.09,1.35,0.31,1.63c0.27,0.33,0.51,0.45,0.73,0.35c0.45-0.22,0.88-1.25,0.71-2.11c-0.12-0.58-0.45-0.87-1.02-0.9
					C574.3,360.38,574.24,360.36,574.19,360.34z"/>
			</g>
			<g>
				<path d="M576.19,404.11c-0.29,0-0.53-0.09-0.71-0.21c-0.91-0.58-1.1-2.21-0.89-3.17c0.03-0.15,0.14-0.28,0.27-0.34
					c0.01-0.17,0.11-0.33,0.27-0.41c0.09-0.05,0.17-0.15,0.25-0.26c0.06-0.08,0.12-0.15,0.17-0.21c0.04-0.04,0.08-0.07,0.13-0.09
					c0.67-0.34,1.44-0.15,2.1,0.51c0.9,1.08,0.74,2.77-0.31,3.65C576.97,403.97,576.54,404.11,576.19,404.11z M575.58,400.87
					c0,0.02,0,0.05-0.01,0.08c-0.16,0.7,0.03,1.84,0.45,2.11c0.23,0.15,0.58-0.06,0.84-0.25c0.61-0.51,0.71-1.58,0.2-2.2
					c-0.2-0.19-0.52-0.43-0.84-0.32c-0.01,0.01-0.02,0.03-0.04,0.05C576.06,400.48,575.88,400.72,575.58,400.87
					C575.58,400.87,575.58,400.87,575.58,400.87z"/>
			</g>
			<path class="st2" d="M491.13,281.86c-1.94-2.13-6.85-4.72-11.2-6.85c-3.69-1.81-8.61,1.57-3.33,7.22
				c5.28,5.65,15.18,8.42,15.18,8.42"/>
			<g>
				<path d="M491.78,291.15c-0.04,0-0.09-0.01-0.13-0.02c-0.41-0.12-10.1-2.88-15.41-8.56c-3.5-3.74-2.41-6.13-1.77-6.99
					c1.18-1.59,3.63-2.03,5.69-1.02c4.21,2.06,9.29,4.71,11.35,6.96c0.19,0.2,0.17,0.52-0.03,0.71c-0.2,0.19-0.52,0.17-0.71-0.03
					c-1.96-2.15-7.25-4.88-11.05-6.74c-1.61-0.79-3.57-0.47-4.45,0.72c-1.01,1.36-0.37,3.49,1.7,5.71
					c5.12,5.48,14.85,8.25,14.95,8.28c0.27,0.07,0.42,0.35,0.35,0.62C492.2,291,492,291.15,491.78,291.15z"/>
			</g>
			<g>
				<path class="st0" d="M561.96,432.35h-39.47l-15.88-46.39c-1.39-4.04-6.02-7.36-10.29-7.36h-67.41c-4.28,0-6.64,3.31-5.26,7.36
					L440,433.75c1.79,4.64,2,8.46,6.65,8.46h115.3c2.72,0,4.93-2.21,4.93-4.93C566.89,434.56,564.68,432.35,561.96,432.35z"/>
				<g>
					<path class="st0" d="M561.96,431.85c-12.26,0-24.52,0-36.78,0c-0.77,0-1.54,0-2.3,0c-0.77,0,0.2,0.68-0.01,0.07
						c-0.6-1.76-1.2-3.51-1.8-5.27c-2.44-7.12-4.88-14.25-7.32-21.38c-2.05-5.98-4.09-11.96-6.14-17.94
						c-1.79-5.24-5.93-9.23-11.77-9.23c-12.48,0-24.97,0-37.45,0c-7.23,0-14.46,0-21.69,0c-3.39,0-7.95-0.7-11.13,0.78
						c-5.1,2.38-1.81,8.95-0.53,12.67c2.43,7.09,4.85,14.17,7.28,21.26c2.15,6.27,4.29,12.54,6.44,18.81
						c1.47,4.3,2.34,11.09,7.98,11.09c8.45,0,16.89,0,25.34,0c28.47,0,56.95,0,85.42,0c1.48,0,2.96,0,4.45,0
						C569,442.71,568.89,432.32,561.96,431.85c-0.64-0.04-0.64,0.96,0,1c6.11,0.41,5.38,8.86-0.48,8.86c-1.13,0-2.26,0-3.39,0
						c-4.9,0-9.81,0-14.71,0c-15.52,0-31.03,0-46.55,0c-13.85,0-27.69,0-41.54,0c-2.82,0-5.63,0-8.45,0c-4.44,0-5.2-4.72-6.36-8.12
						c-0.45-1.32-0.9-2.64-1.36-3.96c-4.6-13.45-9.21-26.9-13.82-40.35c-0.39-1.15-0.79-2.3-1.18-3.45
						c-1.49-4.36,1.79-6.72,5.69-6.72c4.99,0,9.97,0,14.96,0c15.01,0,30.02,0,45.03,0c5.71,0,11.09-0.56,15.1,4.67
						c1.11,1.45,1.59,3.38,2.17,5.08c0.95,2.76,1.89,5.53,2.84,8.29c4.03,11.78,8.06,23.55,12.1,35.33
						c0.07,0.21,0.25,0.37,0.48,0.37c13.16,0,26.32,0,39.47,0C562.6,432.85,562.6,431.85,561.96,431.85z"/>
				</g>
			</g>
			<g>
				<path d="M519,434.54h-78.4c-0.28,0-0.5-0.22-0.5-0.5c0-0.28,0.22-0.5,0.5-0.5H519c0.28,0,0.5,0.22,0.5,0.5
					C519.5,434.32,519.28,434.54,519,434.54z"/>
			</g>
			<g>
				<path d="M471.95,417.99c-3.42,0-7.19-3.39-8.39-7.56c-0.69-2.39-0.44-4.62,0.69-6.12c0.83-1.11,2.09-1.71,3.54-1.71
					c3.42,0,7.19,3.39,8.39,7.56c0.69,2.39,0.44,4.62-0.69,6.12C474.66,417.38,473.4,417.99,471.95,417.99z M467.79,403.59
					c-1.15,0-2.1,0.46-2.74,1.31c-0.94,1.25-1.13,3.16-0.53,5.25c1.09,3.77,4.42,6.84,7.43,6.84c1.15,0,2.09-0.46,2.74-1.31
					c0.94-1.25,1.13-3.16,0.53-5.25C474.13,406.66,470.8,403.59,467.79,403.59z"/>
			</g>
			<g>
				<path class="st3" d="M561.11,243.44c-2.37-2.88-5.89-5.38-7.32-4.69c-1.43,0.69-1.73,2.86-0.73,3.31c1,0.45,1.37-1.38,4.67,0.06
					C560.63,243.37,561.35,243.96,561.11,243.44z"/>
				<path class="st3" d="M561.1,244.13L561.1,244.13c-0.23,0-0.48-0.12-1.2-0.47c-0.53-0.26-1.3-0.63-2.36-1.09
					c-0.79-0.35-1.48-0.52-2.03-0.52c-0.55,0-0.9,0.16-1.23,0.32c-0.42,0.2-0.92,0.36-1.41,0.14c-0.54-0.24-0.87-0.83-0.88-1.56
					c-0.01-0.9,0.48-2.12,1.6-2.66c0.23-0.11,0.49-0.16,0.78-0.16c1.97,0,5.15,2.57,7.14,4.99c0.03,0.03,0.05,0.07,0.07,0.11
					c0.04,0.09,0.17,0.38,0,0.65C561.48,244.02,561.27,244.13,561.1,244.13z M555.5,241.05c0.71,0,1.5,0.2,2.43,0.6
					c0.58,0.25,1.08,0.48,1.49,0.68c-1.86-1.85-3.93-3.2-5.07-3.2c-0.14,0-0.25,0.02-0.34,0.07c-0.69,0.33-1.04,1.13-1.03,1.74
					c0,0.13,0.03,0.54,0.29,0.66c0.06,0.03,0.1,0.03,0.12,0.03c0.11,0,0.27-0.08,0.46-0.16
					C554.22,241.29,554.73,241.05,555.5,241.05z"/>
			</g>
			<g>
				<path d="M609.54,216.13c-0.18,0-0.35-0.1-0.44-0.26c-0.88-1.64-1.77-3.41-2.29-5.22c-0.78-2.17-1.14-3.97-1.14-5.64
					c0-1.34,0.58-2.46,1.51-2.93c0.47-0.24,1.44-0.5,2.66,0.4c4.34,3.33,2.09,10.27,0.92,13.09c-0.11,0.25-0.4,0.38-0.65,0.27
					c-0.03-0.01-0.06-0.03-0.09-0.05c-0.04,0.11-0.12,0.21-0.23,0.27C609.7,216.11,609.62,216.13,609.54,216.13z M608.13,202.85
					c-0.17,0-0.34,0.04-0.51,0.12c-0.58,0.3-0.96,1.09-0.96,2.04c0,1.54,0.35,3.24,1.1,5.33c0.48,1.67,1.28,3.29,2.09,4.81
					c1.09-2.64,3.15-8.98-0.61-11.87C608.94,203.06,608.54,202.85,608.13,202.85z"/>
			</g>
			<g>
				<path d="M620.57,220.39c-1.75,0-3.55-0.74-5.15-1.39l-0.69-0.28c-1.76-0.75-3.66-1.51-5.5-2.25c-0.22-0.09-0.35-0.32-0.31-0.56
					c0.05-0.24,0.25-0.41,0.49-0.41h0.02c0.04-0.14,0.14-0.27,0.28-0.33l1.01-0.45c1.68-0.75,3.41-1.53,5.33-1.95
					c2.6-0.52,6.15-0.14,7.67,2.62c0.61,1.15,0.64,2.36,0.09,3.34c-0.55,0.98-1.6,1.58-2.88,1.65
					C620.82,220.39,620.69,220.39,620.57,220.39z M610.52,215.91c1.55,0.62,3.13,1.26,4.59,1.89l0.68,0.28
					c1.69,0.69,3.45,1.42,5.09,1.31c0.93-0.05,1.68-0.47,2.06-1.15c0.38-0.68,0.35-1.52-0.1-2.37c-1.26-2.28-4.33-2.57-6.59-2.12
					c-1.81,0.4-3.49,1.16-5.12,1.89L610.52,215.91z"/>
			</g>
			<g>
				<path d="M615.41,221c-0.11,0-0.21-0.03-0.3-0.1c-0.45-0.34-0.88-0.73-1.29-1.1c-0.53-0.48-1.08-0.98-1.68-1.38
					c-0.78-0.47-1.47-0.99-2.19-1.54c-0.42-0.32-0.85-0.64-1.32-0.97c-1.92-1.54-3.57-3.19-5.32-4.93c-0.2-0.2-0.2-0.51,0-0.71
					c0.2-0.2,0.51-0.2,0.71,0c1.73,1.73,3.36,3.36,5.21,4.84c0.45,0.31,0.89,0.65,1.32,0.97c0.7,0.53,1.37,1.04,2.12,1.49
					c0.69,0.46,1.26,0.98,1.82,1.49c0.27,0.25,0.54,0.49,0.8,0.71c0.3-0.07,0.62,0.17,0.62,0.49v0.25c0,0.19-0.11,0.36-0.28,0.45
					C615.57,220.99,615.49,221,615.41,221z"/>
			</g>
		</g>
		<g>
			<g>
				<path class="st2" d="M279.7,442.42h-26.39c-0.24,0-0.44-0.16-0.49-0.39l-12.44-57.71c-0.37-1.73-0.12-3.25,0.7-4.27
					c1.05-1.31,2.94-1.68,5.1-0.98l69.05,22.21c1.94,0.62,3.18,1.78,3.5,3.25c0.32,1.47-0.34,3.03-1.85,4.4l-36.84,33.36
					C279.94,442.37,279.82,442.42,279.7,442.42z M253.71,441.42h25.79l36.7-33.23c1.23-1.12,1.78-2.34,1.54-3.45
					c-0.24-1.11-1.24-2-2.83-2.51l-69.05-22.21c-1.74-0.56-3.22-0.31-4.01,0.66c-0.63,0.78-0.81,2-0.5,3.43L253.71,441.42z"/>
			</g>
			<g>
				<path class="st0" d="M267.18,109.28c-0.04,0-0.09,0-0.13,0c-3.27-0.06-6.36-2.32-8.48-6.2c-2.77-5.09-2.49-11.89,0.39-17.79
					c-3.58-0.35-7.29,0.12-10.47,1.3c-7.56,2.8-11.2,8.98-9.75,16.55c0.05,0.27-0.13,0.53-0.4,0.59c-0.27,0.05-0.53-0.13-0.59-0.4
					c-1.56-8.08,2.33-14.69,10.38-17.67c3.42-1.27,7.44-1.74,11.3-1.3c0.85-1.56,1.88-3.04,3.09-4.39
					c6.02-6.74,14.62-8.52,23.57-4.87c0.26,0.1,0.38,0.4,0.27,0.65c-0.1,0.26-0.4,0.38-0.65,0.27c-8.54-3.48-16.72-1.8-22.44,4.61
					c-1.07,1.2-2,2.51-2.78,3.87c5.14,0.82,9.87,3.3,12.39,7.72c2.71,4.73,3.04,9.51,0.91,13.1
					C272.33,107.81,269.86,109.28,267.18,109.28z M260,85.42c-2.89,5.69-3.23,12.29-0.56,17.19c1.97,3.61,4.67,5.62,7.62,5.68
					c2.33,0.03,4.56-1.26,5.88-3.47c1.94-3.28,1.61-7.68-0.92-12.1C269.6,88.47,264.99,86.13,260,85.42z"/>
			</g>
			<g>
				<path class="st2" d="M73.98,254.61c-2.02,0-4.12-0.52-6.24-1.56c-0.25-0.12-0.35-0.42-0.23-0.67c0.12-0.25,0.42-0.35,0.67-0.23
					c4.98,2.44,9.81,1.77,13.58-1.89c1.3-1.26,2.39-2.8,3.23-4.48c-3.42-0.72-6.58-2.7-8.26-6.23c-2.34-4.92-1.54-9.02-0.01-11.2
					c1.15-1.65,2.8-2.5,4.54-2.34c2.21,0.2,4.18,1.99,5.56,5.02c1.83,4.03,1.55,9.38-0.38,13.97c1.91,0.22,3.85,0.04,5.59-0.5
					c4.57-1.4,9.04-5.65,7.86-13.34c-0.04-0.27,0.15-0.53,0.42-0.57c0.27-0.04,0.53,0.15,0.57,0.42c1.28,8.33-3.58,12.92-8.55,14.45
					c-1.96,0.6-4.16,0.79-6.31,0.49c-0.91,1.88-2.11,3.61-3.56,5.02C79.97,253.39,77.07,254.61,73.98,254.61z M80.85,227
					c-1.25,0-2.45,0.69-3.31,1.93c-1.37,1.96-2.06,5.66,0.1,10.2c1.56,3.29,4.56,5.11,7.79,5.73c1.92-4.38,2.23-9.54,0.48-13.4
					c-1.22-2.69-2.9-4.27-4.74-4.44C81.06,227,80.95,227,80.85,227z"/>
			</g>
			<g>
				<path class="st0" d="M679.56,338.66c-0.08,0-0.16-0.02-0.23-0.05c-6.84-3.51-9.47-10.17-7.03-17.81
					c1.04-3.24,2.99-6.45,5.53-9.04c-0.65-1.51-1.14-3.12-1.44-4.78c-1.49-8.31,2.14-15.65,9.98-20.13
					c0.24-0.14,0.54-0.06,0.68,0.19c0.14,0.24,0.05,0.54-0.19,0.68c-7.45,4.26-10.91,11.22-9.49,19.09
					c0.26,1.46,0.68,2.87,1.23,4.21c3.55-3.29,8.08-5.32,12.78-4.64c5.04,0.74,8.75,3.24,10.17,6.88c1,2.56,0.63,5.28-0.98,7.26
					c-1.93,2.38-5.37,3.35-9.45,2.68c-5.32-0.88-10.16-4.98-12.84-10.48c-2.29,2.42-4.06,5.39-5.02,8.38
					c-2.28,7.14,0.16,13.35,6.53,16.62c0.25,0.13,0.34,0.43,0.22,0.67C679.91,338.56,679.74,338.66,679.56,338.66z M679.02,311.97
					c2.51,5.37,7.15,9.39,12.26,10.24c3.77,0.63,6.79-0.2,8.51-2.32c1.38-1.7,1.69-4.05,0.82-6.27c-1.29-3.29-4.71-5.57-9.38-6.25
					C686.74,306.71,682.4,308.74,679.02,311.97z"/>
			</g>
			<g>
				<path class="st2" d="M620.19,152.55c-1.87,0-3.61-0.92-4.65-2.45l-10.02-14.76c-0.84-1.23-1.14-2.73-0.86-4.2
					c0.28-1.48,1.12-2.75,2.35-3.59l14.76-10.03c0.93-0.63,2.01-0.96,3.14-0.96c1.87,0,3.61,0.92,4.66,2.45l10.02,14.75
					c1.74,2.56,1.07,6.06-1.49,7.79l-14.75,10.02C622.4,152.21,621.31,152.55,620.19,152.55z M624.9,117.56
					c-0.92,0-1.81,0.27-2.58,0.79l-14.76,10.03c-1.01,0.69-1.7,1.74-1.93,2.95c-0.23,1.21,0.02,2.44,0.71,3.45l10.02,14.76
					c0.86,1.26,2.29,2.01,3.83,2.01c0.92,0,1.82-0.27,2.58-0.79l14.75-10.02c2.1-1.43,2.65-4.3,1.22-6.41l-10.02-14.75
					C627.87,118.31,626.43,117.56,624.9,117.56z"/>
			</g>
			<g>
				<path class="st5" d="M566.59,106.27c-3.7,0-6.71-3.01-6.71-6.71c0-3.7,3.01-6.71,6.71-6.71s6.71,3.01,6.71,6.71
					C573.3,103.26,570.29,106.27,566.59,106.27z M566.59,93.84c-3.15,0-5.71,2.56-5.71,5.71c0,3.15,2.56,5.71,5.71,5.71
					s5.71-2.56,5.71-5.71C572.3,96.41,569.74,93.84,566.59,93.84z"/>
			</g>
			<g>
				<circle class="st5" cx="110.74" cy="167.79" r="4.8"/>
				<path class="st5" d="M126.46,158.16c0,2.65-2.15,4.8-4.8,4.8c-2.65,0-4.8-2.15-4.8-4.8c0-2.65,2.15-4.8,4.8-4.8
					C124.32,153.36,126.46,155.51,126.46,158.16z"/>
				<path class="st5" d="M128.32,172.23c0,2.65-2.15,4.8-4.8,4.8c-2.65,0-4.8-2.15-4.8-4.8c0-2.65,2.15-4.8,4.8-4.8
					C126.17,167.43,128.32,169.58,128.32,172.23z"/>
			</g>
			<g>
				<path class="st5" d="M412.16,426.54c-2.06,0-3.95-1.21-4.81-3.07c-0.6-1.29-0.66-2.72-0.17-4.05c0.49-1.33,1.46-2.39,2.75-2.99
					c0.7-0.33,1.45-0.49,2.22-0.49c2.06,0,3.95,1.21,4.81,3.07c0.6,1.29,0.66,2.72,0.17,4.05c-0.49,1.33-1.46,2.39-2.75,2.99
					C413.68,426.38,412.93,426.54,412.16,426.54z M412.15,416.94c-0.62,0-1.23,0.13-1.8,0.4c-1.04,0.48-1.83,1.34-2.23,2.42
					c-0.4,1.08-0.35,2.25,0.14,3.29c0.7,1.51,2.24,2.49,3.91,2.49c0.62,0,1.23-0.13,1.8-0.4c1.04-0.48,1.83-1.34,2.23-2.42
					c0.4-1.08,0.35-2.25-0.14-3.29C415.35,417.92,413.82,416.94,412.15,416.94z"/>
			</g>
			<g>
				<path class="st5" d="M398.83,420.69c-2.06,0-3.95-1.2-4.81-3.07c-1.23-2.65-0.07-5.81,2.58-7.04c0.7-0.33,1.45-0.49,2.22-0.49
					c2.06,0,3.95,1.21,4.81,3.07c1.23,2.65,0.07,5.81-2.58,7.04C400.35,420.52,399.6,420.69,398.83,420.69z M398.82,411.08
					c-0.62,0-1.23,0.13-1.8,0.4c-2.15,1-3.09,3.56-2.09,5.71c0.7,1.51,2.24,2.49,3.91,2.49c0.62,0,1.23-0.13,1.8-0.4
					c2.15-1,3.09-3.56,2.09-5.71C402.03,412.06,400.49,411.08,398.82,411.08z"/>
			</g>
			<g>
				<path class="st5" d="M410.81,413.09c-2.06,0-3.94-1.21-4.81-3.07c-1.23-2.65-0.07-5.81,2.58-7.04c0.71-0.33,1.46-0.49,2.23-0.49
					c2.06,0,3.95,1.2,4.81,3.07c0.6,1.29,0.66,2.72,0.17,4.05s-1.46,2.39-2.75,2.98C412.33,412.92,411.58,413.09,410.81,413.09z
					 M410.81,403.49c-0.62,0-1.23,0.13-1.81,0.4c-2.15,1-3.09,3.56-2.09,5.71c0.7,1.51,2.23,2.49,3.9,2.49
					c0.63,0,1.23-0.13,1.81-0.4c1.04-0.48,1.84-1.34,2.23-2.42c0.39-1.08,0.35-2.25-0.14-3.29
					C414.01,404.46,412.48,403.49,410.81,403.49z"/>
			</g>
			<g>
				<path class="st4" d="M666.37,254.23c-2.06,0-3.95-1.21-4.81-3.07c-0.59-1.28-0.66-2.72-0.17-4.05c0.49-1.33,1.46-2.39,2.75-2.98
					c0.71-0.33,1.45-0.49,2.22-0.49c2.06,0,3.95,1.2,4.81,3.07c1.23,2.65,0.07,5.81-2.58,7.04
					C667.89,254.07,667.14,254.23,666.37,254.23z M666.36,244.63c-0.62,0-1.23,0.13-1.8,0.4c-1.04,0.48-1.83,1.34-2.23,2.42
					c-0.39,1.08-0.35,2.25,0.14,3.29c0.7,1.51,2.23,2.49,3.91,2.49c0.62,0,1.23-0.13,1.8-0.4c2.15-1,3.09-3.56,2.09-5.71
					C669.56,245.61,668.03,244.63,666.36,244.63z"/>
			</g>
			<g>
				<path class="st4" d="M653.04,248.37c-2.06,0-3.95-1.21-4.81-3.07c-0.6-1.28-0.66-2.72-0.17-4.05c0.49-1.33,1.46-2.39,2.75-2.98
					c0.7-0.33,1.45-0.49,2.22-0.49c2.06,0,3.95,1.2,4.81,3.07c1.23,2.65,0.07,5.81-2.58,7.04
					C654.56,248.21,653.81,248.37,653.04,248.37z M653.03,238.77c-0.62,0-1.23,0.13-1.8,0.4c-1.04,0.48-1.83,1.34-2.23,2.42
					c-0.4,1.08-0.35,2.25,0.14,3.29c0.7,1.51,2.23,2.49,3.9,2.49c0.63,0,1.23-0.13,1.81-0.4c2.15-1,3.09-3.56,2.09-5.71
					C656.23,239.75,654.7,238.77,653.03,238.77z"/>
			</g>
			<g>
				<path class="st4" d="M665.02,240.77c-2.06,0-3.94-1.21-4.81-3.07c-1.23-2.65-0.07-5.81,2.58-7.04c0.71-0.33,1.46-0.49,2.23-0.49
					c2.06,0,3.95,1.21,4.81,3.07c0.6,1.28,0.66,2.72,0.17,4.05c-0.49,1.33-1.46,2.39-2.75,2.98
					C666.54,240.61,665.79,240.77,665.02,240.77z M665.02,231.17c-0.63,0-1.23,0.13-1.81,0.4c-2.15,1-3.09,3.56-2.09,5.71
					c0.7,1.51,2.23,2.49,3.9,2.49c0.63,0,1.23-0.14,1.81-0.4c1.04-0.48,1.84-1.34,2.23-2.42c0.4-1.08,0.35-2.25-0.14-3.29
					C668.22,232.15,666.69,231.17,665.02,231.17z"/>
			</g>
		</g>
		<path class="st1" d="M698.58,443.07H58.82c-0.55,0-1-0.45-1-1c0-0.55,0.45-1,1-1h639.76c0.55,0,1,0.45,1,1
			C699.58,442.62,699.14,443.07,698.58,443.07z"/>
	</g>
</g>
</svg>
