<?xml version="1.0" encoding="utf-8"?>
<!-- Generator: Adobe Illustrator 27.6.1, SVG Export Plug-In . SVG Version: 6.00 Build 0)  -->
<svg version="1.1" xmlns="http://www.w3.org/2000/svg" xmlns:xlink="http://www.w3.org/1999/xlink" x="0px" y="0px"
	 viewBox="0 0 2500 2500" style="enable-background:new 0 0 2500 2500;" xml:space="preserve">
<style type="text/css">
	.st0{fill:#F2E6DC;}
	.st1{fill:#FFFFFF;}
	.st2{fill:#E6D0BE;}
	.st3{fill:#363E44;}
	.st4{fill:#776E42;}
	.st5{fill:#8B865C;}
	.st6{fill:#9E9569;}
	.st7{fill:#D87355;}
	.st8{fill:#E2A18D;}
	.st9{fill:#BC8271;}
	.st10{fill:#EFBC73;}
	.st11{fill:#9E6C5A;}
	.st12{clip-path:url(#SVGID_00000098901233946888422000000015555196217759125424_);fill:#8B865C;}
	.st13{clip-path:url(#SVGID_00000041978603711744106380000014157617713136294319_);fill:#363E44;}
	.st14{fill:#D3BBA3;}
	.st15{fill:#84524D;}
</style>
<g id="Background">
</g>
<g id="Illustration">
	<g id="Software_development_team_1_">
		<circle class="st0" cx="1250" cy="1250" r="915"/>
		<g>
			<g>
				<path class="st1" d="M1449.38,1184.24c0,0-584.17-19.39-589.69,2.04l-171.93,667.87h942.84l171.92-667.87
					C1808.04,1164.85,1449.38,1184.24,1449.38,1184.24z"/>
				<polygon class="st2" points="1821.16,1113.86 878.33,1113.86 859.69,1186.29 1802.52,1186.29 				"/>
				<path class="st1" d="M933.51,1150.58c-2.34,9.1-11.61,16.47-20.71,16.47c-9.1,0-14.58-7.38-12.23-16.47
					c2.34-9.1,11.61-16.47,20.71-16.47C930.37,1134.11,935.85,1141.48,933.51,1150.58z"/>
				
					<ellipse transform="matrix(0.7509 -0.6604 0.6604 0.7509 -518.1779 927.432)" class="st1" cx="970.26" cy="1150.58" rx="18.73" ry="14.49"/>
				
					<ellipse transform="matrix(0.7509 -0.6604 0.6604 0.7509 -504.9195 962.5926)" class="st1" cx="1023.48" cy="1150.58" rx="18.73" ry="14.49"/>
			</g>
			<g>
				<polygon class="st2" points="1423.27,1401.96 856.48,1401.96 862.89,1377.05 1429.68,1377.05 				"/>
				<polygon class="st2" points="1664.7,1401.96 1461.01,1401.96 1467.42,1377.05 1671.12,1377.05 				"/>
				<polygon class="st2" points="1261.72,1482.43 1098.26,1482.43 1104.67,1457.53 1268.13,1457.53 				"/>
				<polygon class="st2" points="1623.87,1482.43 1299.46,1482.43 1305.87,1457.53 1630.28,1457.53 				"/>
				<polygon class="st2" points="1199.58,1723.87 1036.12,1723.87 1042.53,1698.96 1205.99,1698.96 				"/>
				<polygon class="st2" points="1561.73,1723.87 1237.32,1723.87 1243.73,1698.96 1568.15,1698.96 				"/>
				<polygon class="st2" points="1522.68,1562.91 1178.15,1562.91 1184.56,1538 1529.09,1538 				"/>
				<polygon class="st2" points="1341.01,1643.39 1157.43,1643.39 1163.84,1618.48 1347.42,1618.48 				"/>
			</g>
			<g>
				<path class="st3" d="M960.02,1335.37c-0.67,0-1.34-0.31-1.77-0.89l-31.3-42.14l52.51-41.76c0.95-0.76,2.34-0.6,3.1,0.35
					c0.76,0.95,0.6,2.34-0.35,3.1l-49.17,39.11l28.75,38.72c0.73,0.98,0.52,2.36-0.45,3.08
					C960.93,1335.23,960.47,1335.37,960.02,1335.37z"/>
				<path class="st3" d="M1026.25,1335.37c-0.65,0-1.29-0.29-1.73-0.83c-0.76-0.95-0.6-2.34,0.35-3.1l49.17-39.1l-28.75-38.72
					c-0.73-0.98-0.52-2.36,0.45-3.08c0.98-0.73,2.36-0.52,3.09,0.46l31.3,42.15l-52.51,41.76
					C1027.21,1335.22,1026.73,1335.37,1026.25,1335.37z"/>
				<path class="st3" d="M976.47,1332.88c-0.44,0-0.89-0.13-1.28-0.41c-0.99-0.71-1.22-2.09-0.51-3.08l54.5-76.17
					c0.71-0.99,2.08-1.22,3.08-0.51c0.99,0.71,1.22,2.09,0.51,3.08l-54.5,76.17C977.83,1332.56,977.16,1332.88,976.47,1332.88z"/>
			</g>
		</g>
		<g>
			<g>
				<g>
					<g>
						<g>
							<rect x="1339.21" y="937.25" class="st1" width="816.62" height="591.36"/>
							<path class="st4" d="M2155.83,1530.81h-816.62c-1.22,0-2.2-0.99-2.2-2.2V937.25c0-1.22,0.99-2.2,2.2-2.2h816.62
								c1.22,0,2.2,0.99,2.2,2.2v591.36C2158.04,1529.83,2157.05,1530.81,2155.83,1530.81z M1341.42,1526.4h812.21V939.45h-812.21
								V1526.4z"/>
						</g>
						<path class="st5" d="M2153.8,937.24h-812.55c-1.12,0-2.03,0.93-2.03,2.07v50.41h816.62v-50.41
							C2155.83,938.17,2154.92,937.24,2153.8,937.24z"/>
						<path class="st1" d="M1385.15,963.85c0,6.59-5.24,11.94-11.71,11.94s-11.71-5.34-11.71-11.94c0-6.59,5.24-11.94,11.71-11.94
							S1385.15,957.26,1385.15,963.85z"/>
						<ellipse class="st1" cx="1411.26" cy="963.85" rx="11.71" ry="11.94"/>
						<path class="st1" d="M1460.8,963.85c0,6.59-5.24,11.94-11.71,11.94c-6.47,0-11.71-5.34-11.71-11.94
							c0-6.59,5.24-11.94,11.71-11.94C1455.55,951.92,1460.8,957.26,1460.8,963.85z"/>
					</g>
					<g>
						
							<rect x="1727.62" y="1133.51" transform="matrix(-1 -1.224647e-16 1.224647e-16 -1 3822.6379 2283.231)" class="st6" width="367.39" height="16.22"/>
						
							<rect x="1436.12" y="1133.51" transform="matrix(-1 -1.224647e-16 1.224647e-16 -1 3118.187 2283.231)" class="st6" width="245.94" height="16.22"/>
						
							<rect x="1897.66" y="1185.91" transform="matrix(-1 -1.224647e-16 1.224647e-16 -1 3992.6775 2388.0283)" class="st6" width="197.35" height="16.22"/>
						
							<rect x="1460.42" y="1185.91" transform="matrix(-1 -1.224647e-16 1.224647e-16 -1 3312.5183 2388.0283)" class="st6" width="391.69" height="16.22"/>
						
							<rect x="1897.66" y="1343.1" transform="matrix(-1 -1.224647e-16 1.224647e-16 -1 3992.6775 2702.4216)" class="st6" width="197.35" height="16.22"/>
						
							<rect x="1460.42" y="1343.1" transform="matrix(-1 -1.224647e-16 1.224647e-16 -1 3312.5183 2702.4216)" class="st6" width="391.69" height="16.22"/>
						
							<rect x="1557.58" y="1238.3" transform="matrix(-1 -1.224647e-16 1.224647e-16 -1 3531.1411 2492.8264)" class="st6" width="415.98" height="16.22"/>
						
							<rect x="1751.91" y="1290.7" transform="matrix(-1 -1.224647e-16 1.224647e-16 -1 3725.4722 2597.624)" class="st6" width="221.65" height="16.22"/>
					</g>
					<g>
						<path class="st7" d="M2002.75,1097.36c-0.57,0-1.14-0.22-1.57-0.66l-34.65-35.34c-0.84-0.86-0.84-2.23,0-3.09l34.65-35.33
							c0.85-0.87,2.25-0.88,3.12-0.03c0.87,0.85,0.88,2.25,0.03,3.12l-33.14,33.79l33.14,33.79c0.85,0.87,0.84,2.27-0.03,3.12
							C2003.87,1097.15,2003.31,1097.36,2002.75,1097.36z"/>
						<path class="st7" d="M2059.52,1097.36c-0.56,0-1.12-0.21-1.54-0.63c-0.87-0.85-0.88-2.25-0.03-3.12l33.14-33.79l-33.14-33.79
							c-0.85-0.87-0.84-2.27,0.03-3.12c0.87-0.85,2.27-0.84,3.12,0.03l34.66,35.33c0.84,0.86,0.84,2.23,0,3.09l-34.66,35.34
							C2060.67,1097.14,2060.09,1097.36,2059.52,1097.36z"/>
						<path class="st7" d="M2016.31,1095.19c-0.3,0-0.61-0.06-0.9-0.19c-1.11-0.5-1.61-1.8-1.11-2.91l29.91-66.56
							c0.5-1.11,1.8-1.61,2.92-1.11c1.11,0.5,1.61,1.8,1.11,2.91l-29.91,66.56C2017.95,1094.7,2017.15,1095.19,2016.31,1095.19z"/>
					</g>
				</g>
			</g>
			<g>
				<g>
					<g>
						<polygon class="st8" points="1430.32,1097.98 1414.15,1178.22 1518.36,1201.92 1544.59,1099.06 						"/>
						<g>
							<path class="st2" d="M1304.07,1257.48h227.34v-97.32h-135.39c-50.78,0-91.94,41.16-91.94,91.94V1257.48z"/>
							<g>
								<path class="st3" d="M1409.74,1181.76c-0.54,0-1.08-0.2-1.51-0.6l-20.06-18.77c-0.89-0.83-0.93-2.23-0.1-3.12
									c0.84-0.89,2.23-0.94,3.12-0.1l20.06,18.77c0.89,0.83,0.93,2.23,0.1,3.12C1410.92,1181.52,1410.33,1181.76,1409.74,1181.76z
									"/>
								<path class="st3" d="M1386.94,1188.16c-0.54,0-1.08-0.2-1.51-0.6l-20.06-18.77c-0.89-0.83-0.93-2.23-0.1-3.12
									c0.83-0.89,2.23-0.94,3.12-0.1l20.06,18.77c0.89,0.83,0.93,2.23,0.1,3.12C1388.12,1187.92,1387.53,1188.16,1386.94,1188.16z
									"/>
							</g>
						</g>
					</g>
					<g>
						<polygon class="st8" points="1665.4,1029.56 1749.53,1070.52 1774.75,959.35 1671.72,933.16 						"/>
						<g>
							<path class="st2" d="M1830.4,1159.03l-0.77-210.54h-97.48l0.77,121.6c0,49.12,39.88,88.93,89.08,88.93H1830.4z"/>
							<g>
								<path class="st3" d="M1733.54,1081.13c-0.56,0-1.13-0.22-1.56-0.65c-0.86-0.86-0.86-2.26,0-3.12l18.8-18.77
									c0.86-0.86,2.26-0.86,3.12,0c0.86,0.86,0.86,2.26,0,3.12l-18.8,18.77C1734.67,1080.91,1734.11,1081.13,1733.54,1081.13z"/>
								<path class="st3" d="M1739.95,1102.47c-0.56,0-1.13-0.22-1.56-0.65c-0.86-0.86-0.86-2.26,0-3.12l18.8-18.77
									c0.86-0.86,2.26-0.86,3.12,0c0.86,0.86,0.86,2.26,0,3.12l-18.8,18.77C1741.08,1102.25,1740.52,1102.47,1739.95,1102.47z"/>
							</g>
						</g>
					</g>
					<g>
						<path class="st3" d="M1494.96,743.92c-33.96-22.21-76.46-27.59-105-19.1c-47.72,14.21-82.6,73.27-6.7,133.73l305.98,207.28
							l58.18-165.49L1494.96,743.92z"/>
						<g>
							<path class="st3" d="M1945.71,848.61c0,0-3.35,84-99.34,84c-89.24,0-372.96,0-372.96,0l17.16-190.98l249.48,34.27
								L1945.71,848.61z"/>
							<polygon class="st3" points="1607.77,897.92 1572.05,1130.55 1361.92,1130.55 1490.57,741.63 							"/>
							<path class="st2" d="M1437.61,903.95c-0.23,0-0.46-0.04-0.69-0.11c-1.16-0.38-1.78-1.63-1.4-2.79l36.78-111.18
								c0.38-1.15,1.62-1.79,2.79-1.4c1.16,0.38,1.78,1.63,1.4,2.79l-36.78,111.18C1439.39,903.36,1438.53,903.95,1437.61,903.95z"
								/>
							<path class="st2" d="M1590.46,1012.87c-0.12,0-0.24-0.01-0.36-0.03c-1.2-0.2-2.02-1.33-1.82-2.53l12.57-76.81
								c0.17-1.07,1.1-1.85,2.18-1.85h152.31c1.22,0,2.2,0.99,2.2,2.2c0,1.22-0.99,2.2-2.2,2.2H1604.9l-12.26,74.96
								C1592.46,1012.11,1591.52,1012.87,1590.46,1012.87z"/>
						</g>
					</g>
				</g>
				<g>
					<g>
						<g>
							<polygon class="st9" points="1751.58,718.27 1842.71,709.07 1844.72,682.69 1755.83,662.5 							"/>
						</g>
						<g>
							<path class="st8" d="M1776.2,794.31c33.57,7.01,61.32-17.13,64.08-53.43l2.42-31.8l-229.32-55.77
								c-58.25-12.16-100.08,12.11-109.61,65.1l83.68,25.3L1776.2,794.31z"/>
							<path class="st8" d="M1574.17,756.55L1574.17,756.55c5.92,1.24,11.73-2.56,12.97-8.47l2.24-10.71
								c1.24-5.91-2.56-11.71-8.48-12.95l0,0c-5.92-1.24-11.73,2.56-12.97,8.47l-2.24,10.71
								C1564.44,749.51,1568.24,755.31,1574.17,756.55z"/>
							<path class="st9" d="M1552.71,752.07L1552.71,752.07c5.92,1.24,11.73-2.56,12.97-8.47l2.24-10.71
								c1.24-5.91-2.56-11.71-8.48-12.95l0,0c-5.92-1.24-11.73,2.56-12.97,8.47l-2.24,10.71
								C1542.99,745.03,1546.79,750.83,1552.71,752.07z"/>
							<path class="st9" d="M1531.26,747.59L1531.26,747.59c5.92,1.24,11.73-2.56,12.97-8.47l2.24-10.71
								c1.24-5.91-2.56-11.71-8.48-12.95l0,0c-5.92-1.24-11.73,2.56-12.97,8.47l-2.24,10.71
								C1521.53,740.55,1525.33,746.35,1531.26,747.59z"/>
							<path class="st9" d="M1509.8,743.11L1509.8,743.11c5.92,1.24,11.73-2.56,12.97-8.47l2.24-10.71
								c1.24-5.91-2.56-11.71-8.48-12.95l0,0c-5.92-1.24-11.73,2.56-12.97,8.47l-2.24,10.71
								C1500.08,736.07,1503.88,741.87,1509.8,743.11z"/>
							<g>
								<path class="st3" d="M1564.84,748.95c-0.17,0-0.34-0.02-0.5-0.06c-1.19-0.28-1.92-1.46-1.65-2.65l3.44-14.68
									c0.28-1.18,1.46-1.93,2.65-1.64c1.19,0.28,1.92,1.46,1.65,2.65l-3.44,14.68C1566.75,748.26,1565.84,748.95,1564.84,748.95z"
									/>
								<path class="st3" d="M1544.15,743.2c-0.17,0-0.34-0.02-0.51-0.06c-1.18-0.28-1.91-1.47-1.63-2.66l4.27-17.87
									c0.28-1.18,1.48-1.91,2.66-1.63c1.18,0.28,1.91,1.47,1.63,2.66l-4.27,17.87C1546.05,742.52,1545.15,743.2,1544.15,743.2z"/>
								<path class="st3" d="M1522.24,738.29c-0.17,0-0.34-0.02-0.51-0.06c-1.18-0.28-1.91-1.47-1.63-2.66l4.4-18.44
									c0.28-1.18,1.48-1.91,2.66-1.63c1.18,0.28,1.91,1.47,1.63,2.66l-4.4,18.44C1524.14,737.61,1523.24,738.29,1522.24,738.29z"
									/>
							</g>
							<path class="st3" d="M1815.22,704.59c-0.17,0-0.35-0.02-0.52-0.06l-61.09-14.86c-1.18-0.29-1.91-1.48-1.62-2.66
								c0.29-1.18,1.48-1.92,2.66-1.62l61.09,14.86c1.18,0.29,1.91,1.48,1.62,2.66C1817.12,703.92,1816.21,704.59,1815.22,704.59z"
								/>
						</g>
					</g>
					<g>
						<path class="st10" d="M1970.26,882.88l59.65-177.4c0,0,19.6-60.98,18.63-82.12c-1.83-39.67-13.71-71.43-62.79-96.53
							c-38.38-19.63-100.16-23.75-151.95-4.18c-57.49,21.73-60.27,122.58-93.76,270.8L1970.26,882.88z"/>
						<path class="st10" d="M1833.81,522.65c0,0-59.39,15.97-75.76,74.8c-14.65,52.66-14.23,66.03-14.23,66.03l53.16,7.1
							L1833.81,522.65z"/>
						<path class="st3" d="M1765.44,667.92c-0.14,0-0.28-0.01-0.43-0.04c-1.19-0.23-1.97-1.39-1.74-2.59
							c3.87-19.69,7.46-34.84,10.76-48.27c0.29-1.18,1.48-1.9,2.67-1.61c1.18,0.29,1.9,1.49,1.61,2.67
							c-3.29,13.38-6.86,28.46-10.71,48.06C1767.4,667.19,1766.47,667.92,1765.44,667.92z"/>
					</g>
					<g>
						<polygon class="st1" points="1497.71,736.66 1725.91,736.66 1725.91,745.62 1490.17,752.66 						"/>
						<path class="st7" d="M1367.16,762.55h202.48c7.12,0,11.83-7.39,8.81-13.83l-89.7-191.41h-236.69l88.17,188.13
							C1345.12,755.88,1355.62,762.55,1367.16,762.55z"/>
						<path class="st7" d="M1725.91,741.94L1725.91,741.94c0,11.43-9.28,20.7-20.74,20.7h-198.03l-9.7-20.7H1725.91z"/>
						<path class="st1" d="M1400.23,658.85c3,7.63,9.91,12.06,15.43,9.89c5.52-2.17,7.56-10.11,4.55-17.74
							c-3-7.63-9.91-12.06-15.43-9.89C1399.26,643.28,1397.22,651.22,1400.23,658.85z"/>
					</g>
					<g>
						<g>
							<polygon class="st8" points="1922.82,747.76 2031.52,728.4 2031.52,696.5 1922.82,680.34 							"/>
							<path class="st10" d="M1930.33,566.34c6.93-11.25,25.06-25.16,38.26-26.14c18.62-1.37,44.76,3.59,63.35,26.88
								c28.11,35.24,27.07,143.9,27.07,143.9l-155.71-25.91C1903.29,685.07,1905.8,606.17,1930.33,566.34z"/>
							<path class="st3" d="M1922.55,690.34c-0.11,0-0.23-0.01-0.35-0.03l-21.17-3.37l0.06-1.94c0.02-0.49,1.71-49.57,14.25-89.61
								c0.36-1.16,1.59-1.81,2.76-1.44c1.16,0.36,1.81,1.6,1.44,2.76c-10.96,34.99-13.52,77.05-13.97,86.49l17.32,2.76
								c1.2,0.19,2.02,1.32,1.83,2.52C1924.55,689.57,1923.62,690.34,1922.55,690.34z"/>
						</g>
						<g>
							<path class="st8" d="M1959.38,836.91c40.99,5.36,72.14-26.19,72.14-70.07V728.4l-280.74-46.12
								c-71.12-9.3-119.18,23.69-125.79,88.25l102.89,22.77L1959.38,836.91z"/>
							<path class="st3" d="M1632.87,740.01c-0.28,0-0.56-0.05-0.83-0.16c-1.13-0.46-1.67-1.75-1.21-2.87
								c16-39.2,52.27-59.96,102.15-58.37c1.22,0.04,2.17,1.05,2.14,2.27c-0.04,1.22-1.1,2.21-2.27,2.13
								c-47.9-1.48-82.67,18.26-97.93,55.63C1634.57,739.5,1633.74,740.01,1632.87,740.01z"/>
							<path class="st8" d="M1713.08,809.95l0.02,0c7.23,0.95,13.85-4.14,14.8-11.37l1.71-13.06c0.95-7.23-4.15-13.86-11.38-14.81
								l-0.02,0c-7.23-0.95-13.85,4.14-14.8,11.37l-1.71,13.06C1700.75,802.38,1705.85,809.01,1713.08,809.95z"/>
							<path class="st8" d="M1686.88,806.53l0.02,0c7.23,0.95,13.85-4.15,14.8-11.37l1.71-13.06c0.95-7.23-4.15-13.86-11.38-14.81
								l-0.02,0c-7.23-0.95-13.85,4.14-14.8,11.37l-1.71,13.06C1674.56,798.95,1679.65,805.58,1686.88,806.53z"/>
							<path class="st8" d="M1660.68,803.1l0.02,0c7.23,0.95,13.85-4.14,14.8-11.37l1.71-13.06c0.95-7.23-4.15-13.86-11.38-14.81
								l-0.02,0c-7.23-0.95-13.85,4.14-14.8,11.37l-1.71,13.06C1648.36,795.52,1653.45,802.15,1660.68,803.1z"/>
							<path class="st8" d="M1634.48,799.67l0.02,0c7.23,0.95,13.85-4.14,14.8-11.37l1.71-13.06c0.95-7.23-4.15-13.86-11.38-14.81
								l-0.02,0c-7.23-0.95-13.85,4.14-14.8,11.37l-1.71,13.06C1622.16,792.1,1627.25,798.73,1634.48,799.67z"/>
							<g>
								<path class="st3" d="M1700.98,801.23c-0.11,0-0.23-0.01-0.34-0.03c-1.2-0.19-2.03-1.31-1.84-2.52l3.59-23.12
									c0.19-1.2,1.32-2.02,2.52-1.84c1.2,0.19,2.03,1.31,1.84,2.52l-3.59,23.12C1702.98,800.45,1702.05,801.23,1700.98,801.23z"/>
								<path class="st3" d="M1675.58,796.21c-0.12,0-0.23-0.01-0.35-0.03c-1.2-0.19-2.02-1.32-1.83-2.53l3.5-21.86
									c0.19-1.2,1.32-2.03,2.53-1.83c1.2,0.19,2.02,1.32,1.83,2.53l-3.5,21.86C1677.59,795.44,1676.65,796.21,1675.58,796.21z"/>
								<path class="st3" d="M1648.79,792.31c-0.11,0-0.23-0.01-0.35-0.03c-1.2-0.19-2.02-1.32-1.83-2.52l3.6-22.56
									c0.19-1.2,1.29-2.03,2.53-1.83c1.2,0.19,2.02,1.32,1.83,2.52l-3.6,22.56C1650.8,791.54,1649.86,792.31,1648.79,792.31z"/>
							</g>
							<path class="st3" d="M1997.86,725.07c-0.12,0-0.24-0.01-0.36-0.03l-74.78-12.28c-1.2-0.2-2.02-1.33-1.82-2.53
								c0.2-1.2,1.33-2.02,2.53-1.82l74.78,12.28c1.2,0.2,2.02,1.33,1.82,2.53C1999.86,724.31,1998.93,725.07,1997.86,725.07z"/>
						</g>
					</g>
				</g>
				<g>
					<path class="st8" d="M1901.59,558.32l1.66-0.14c17.81-1.53,31-17.22,29.46-35.03l-9.31-107.72
						c-1.27-14.68-14.2-25.56-28.88-24.29l-12.95,1.12c-14.69,1.27-25.57,14.2-24.3,28.89l9.31,107.73
						C1868.12,546.67,1883.79,559.86,1901.59,558.32z"/>
					<g>
						<path class="st8" d="M1882.74,373.08c-2.33-0.32-24.71-3.1-38.88,11.66c-10.54,10.98-12.37,25.57-11.72,50.51
							c0.76,29.36,5.33,46.81,13.53,52.94c12.95,9.69,53.78-9.06,69.88-33.99c11.62-18,11.39-41.82,0.69-60.55
							C1905.57,374.96,1884.23,373.28,1882.74,373.08z"/>
						<path class="st3" d="M1833.57,405.98c18-6.09,23.68-5.12,25.25-2.74c1.32,2.02-0.8,4.29,0.83,6.29
							c2.72,3.35,10.24-1.06,21.22,1.99c1.28,0.36,2.31,0.73,2.98,0.99c-0.55,10.1-1.1,20.19-1.66,30.29
							c14.15,0.15,28.29,0.3,42.44,0.44c2.12-2.11,5.42-5,9.95-7.56c10.49-5.93,15.88-4.38,20.39-8.44
							c8.57-7.72,3.05-26.68,1.39-32.4c-5.79-19.95-19.89-31.5-25.26-35.79c-12.93-10.31-25.59-13.89-32.33-15.72
							c-7.31-1.99-29.25-7.77-52.72,0.99c-11.11,4.15-16.66,9.25-17.9,10.43c-9.15,8.65-16.39,22.98-11.94,29.3
							c1.99,2.82,4.73,1.84,8.95,4.97C1830.92,393.26,1832.85,400.44,1833.57,405.98z"/>
						<path class="st3" d="M1863.17,493.01c-1.02,0-1.94-0.71-2.16-1.76c-0.25-1.19,0.52-2.36,1.71-2.61
							c16.25-3.38,39.8-17.3,51.06-34.74c0.66-1.02,2.02-1.32,3.05-0.66c1.02,0.66,1.32,2.02,0.65,3.05
							c-12.34,19.1-36.96,33.15-53.87,36.67C1863.47,492.99,1863.31,493.01,1863.17,493.01z"/>
						<g>
							<path class="st1" d="M1878.82,424.57c0,0-3.04,8.48-10.15,14.85c-1.49,1.34-9.53-13.26-7.51-13.86
								C1870.17,422.86,1878.82,424.57,1878.82,424.57z"/>
							<path class="st3" d="M1839.94,446.59c0,0,12.96,2.55,23.69-3.53c1.88-1.06,3.56-2.32,5.06-3.67
								c0.1-5.78-2.87-10.93-7.46-13.86c-2.05,0.61-4.12,1.44-6.11,2.56C1844.39,434.18,1839.94,446.59,1839.94,446.59z"/>
						</g>
						<path class="st3" d="M1850.71,467.12c-1.49,0-3.01-0.4-4.37-1.2c-1.05-0.62-1.39-1.97-0.77-3.02
							c0.62-1.05,1.98-1.39,3.02-0.77c1.52,0.9,3.4,0.76,4.59-0.34c1.44-1.35,1-3.58,0.99-3.6c-0.25-1.18,0.5-2.36,1.68-2.62
							c1.19-0.26,2.35,0.46,2.62,1.64c0.05,0.19,1.05,4.69-2.29,7.8C1854.69,466.4,1852.72,467.12,1850.71,467.12z"/>
						<path class="st9" d="M1834.5,444.6c0.03,1.43-0.14,3.52-1.22,5.66c-1.3,2.57-2.96,3.3-2.99,4.95
							c-0.02,1.11,0.69,2.73,4.26,4.76L1834.5,444.6z"/>
						<path class="st3" d="M1834.55,462.17c-0.37,0-0.74-0.09-1.09-0.29c-3.66-2.08-5.42-4.27-5.38-6.71
							c0.03-1.7,0.94-2.8,1.74-3.76c0.51-0.61,1.03-1.24,1.49-2.15c0.68-1.35,1.02-2.91,0.98-4.62c-0.02-1.22,0.95-2.22,2.17-2.24
							c1.24-0.05,2.22,0.95,2.24,2.17c0.04,2.44-0.45,4.69-1.46,6.69c-0.69,1.35-1.46,2.29-2.03,2.97
							c-0.32,0.39-0.72,0.87-0.73,1.02c-0.01,0.35,0.64,1.38,3.14,2.8c1.06,0.6,1.43,1.95,0.83,3.01
							C1836.06,461.77,1835.31,462.17,1834.55,462.17z"/>
						<path class="st8" d="M1890.55,427.17c1.51-7.33,11.34-10.43,17.36-7.26c7.65,4.02,9.99,14.61,5.22,23.64
							c-3.85,7.31-11.18,11.36-17.88,10.52l-6.14-2.64C1889.12,451.43,1889.02,434.62,1890.55,427.17z"/>
						<path class="st3" d="M1897.05,456.39c-0.69,0-1.39-0.04-2.08-0.13c-1.21-0.15-2.06-1.26-1.91-2.46
							c0.15-1.21,1.21-2.07,2.46-1.91c6.02,0.76,12.31-3,15.66-9.36c2.27-4.31,2.83-9.19,1.53-13.39c-1.01-3.24-3.07-5.82-5.82-7.26
							c-4.98-2.62-11.49-1.17-16.2,3.61c-0.85,0.87-2.25,0.88-3.12,0.03c-0.87-0.85-0.88-2.25-0.03-3.12
							c6.07-6.18,14.67-7.96,21.4-4.42c3.79,1.99,6.63,5.5,7.98,9.86c1.65,5.31,0.98,11.42-1.84,16.76
							C1911.25,451.85,1904.2,456.39,1897.05,456.39z"/>
						<path class="st3" d="M1905.29,443.78c-0.47,0-0.94-0.15-1.35-0.46c-0.96-0.74-1.14-2.13-0.4-3.09
							c0.31-0.4,0.59-0.83,0.82-1.28c1.02-1.94,1.28-4.12,0.7-5.98c-0.3-0.97-0.96-2.28-2.43-3.05c-0.65-0.34-1.35-0.52-2.11-0.54
							c-1.22-0.03-2.18-1.03-2.16-2.25c0.03-1.2,1.01-2.16,2.2-2.16c0.02,0,0.03,0,0.05,0c1.44,0.03,2.81,0.38,4.06,1.04
							c2.18,1.15,3.81,3.15,4.59,5.65c0.92,2.97,0.55,6.38-1.01,9.34c-0.35,0.67-0.77,1.31-1.23,1.92
							C1906.61,443.48,1905.95,443.78,1905.29,443.78z"/>
					</g>
				</g>
			</g>
		</g>
		<g>
			<g>
				<g>
					<path class="st1" d="M1102.75,1834l-72.01,162.38l285.32,152.15C1316.05,2148.53,1343.96,1887.9,1102.75,1834z"/>
					<path class="st5" d="M1071.62,1568.99l7.16,276.24c0.93-0.11,165.21,90.83,164.06,83c-0.76-5.17,9.45-230.37,16.47-382.5
						c0.96-20.73-1.85-40.87-7.79-59.73l-113.39,19.19L1071.62,1568.99z"/>
					<g>
						<polygon class="st11" points="1153.74,1961.6 1259.58,2058.23 1341.13,2010.09 1254.1,1889.56 						"/>
						<path class="st2" d="M1162.63,2156.02h410.73c0,0-93.68-131.98-257.3-192.77l-110.84,55.54
							C1205.22,2018.78,1177.11,2088.76,1162.63,2156.02z"/>
						<path class="st3" d="M1317.09,2039.82c-0.5,0-1-0.17-1.41-0.51c-0.93-0.78-1.06-2.17-0.28-3.11l42.32-50.6
							c0.78-0.93,2.17-1.06,3.1-0.28c0.93,0.78,1.06,2.17,0.28,3.11l-42.32,50.6C1318.34,2039.55,1317.72,2039.82,1317.09,2039.82z"
							/>
						<path class="st3" d="M1352,2055.8c-0.5,0-1-0.17-1.41-0.51c-0.93-0.78-1.06-2.17-0.28-3.11l42.32-50.6
							c0.78-0.93,2.17-1.06,3.1-0.28c0.93,0.78,1.06,2.17,0.28,3.11l-42.32,50.6C1353.26,2055.53,1352.63,2055.8,1352,2055.8z"/>
					</g>
					<path class="st5" d="M812.89,1612.27l349.81,381.02l122.58-96.59l-194.87-317.67c0,0-63.28-91.77-147.64-49.15
						C858.41,1572.49,812.89,1612.27,812.89,1612.27z"/>
					<g>
						<defs>
							<rect id="SVGID_1_" x="369.81" y="1347.63" width="885.93" height="350.45"/>
						</defs>
						<clipPath id="SVGID_00000062901756283772510610000004357751251981960860_">
							<use xlink:href="#SVGID_1_"  style="overflow:visible;"/>
						</clipPath>
						<path style="clip-path:url(#SVGID_00000062901756283772510610000004357751251981960860_);fill:#8B865C;" d="M1117.56,1368.54
							c-246.71-42.37-486.82,39.49-721.98,214.53c0,0-16.57,110.2,113.05,140.5c129.62,30.3,561.97-193.69,561.97-193.69l1.01,39.12
							l179.9-83C1232.72,1426.36,1182.24,1379.64,1117.56,1368.54z"/>
					</g>
					<path class="st3" d="M863.14,1629.68c-0.83,0-1.63-0.48-2-1.28c-0.51-1.11-0.03-2.41,1.08-2.93L1116,1508.34
						c1.11-0.51,2.42-0.03,2.93,1.08c0.51,1.11,0.03,2.41-1.08,2.93l-253.78,117.14C863.77,1629.61,863.45,1629.68,863.14,1629.68z"
						/>
					<path class="st3" d="M1239.99,1825.08c-0.74,0-1.47-0.37-1.88-1.05l-156.83-256.36c-0.64-1.04-0.31-2.4,0.73-3.03
						c1.03-0.64,2.39-0.31,3.03,0.73l156.83,256.36c0.64,1.04,0.31,2.4-0.73,3.03C1240.78,1824.97,1240.38,1825.08,1239.99,1825.08z
						"/>
				</g>
				<g>
					<path class="st3" d="M717.49,895.83c0,0-31.53,4.5-54.53-17.61c-23-22.11-82.18-35.5-130.41,1.39
						c-95.95,73.39-91.93-55.15-177.07-9.81v31.69c9.13-3.39,23.58-3.26,41.55,15.58c26.54,27.82,43.45,23.26,48.2,21.07
						c0.89-0.46,1.38-0.75,1.38-0.75s-0.47,0.33-1.38,0.75c-6.35,3.29-33.43,15.38-54.34-4.95c-13.38-13.01-26.05-13.33-35.41-10.5
						v129.47c0,0,18.41,49.52,76.58,28.55c58.18-20.98,73.12-89.38,133.12-63.11c60,26.27,47.24,31.73,103.36,4.85
						C724.66,995.57,717.49,895.83,717.49,895.83z"/>
					<g>
						<g>
							<path class="st11" d="M722.77,1066.54c-22.94,4.73-57.49-50.69-57.49-50.69l-2.26-71.51c13.26-30.16,48.46-43.86,78.62-30.59
								c30.16,13.26,43.86,48.46,30.59,78.62C772.23,992.37,746.14,1061.73,722.77,1066.54z"/>
							<polygon class="st11" points="602.57,1081.78 667.22,1165.6 672.44,1102.47 729.46,972.83 663.29,943.73 							"/>
							<path class="st11" d="M759.64,1003.97c0,0,8.26,22.78,5.58,26.66c-3.2,4.63-21.62,0.21-21.62,0.21
								S760.03,1004.19,759.64,1003.97z"/>
							<g>
								<path class="st1" d="M711.39,979.96c0,0,11.3-0.9,22.33,3.95c2.34,1.03-10.33,17.85-12.09,15.81
									C713.89,990.74,711.39,979.96,711.39,979.96z"/>
								<g>
									<defs>
										<path id="SVGID_00000013878956337707120670000013359502768570881701_" d="M711.39,979.96c0,0,16.63-1.32,29.21,7.89
											c12.58,9.21,16.36,25.45,16.36,25.45s-16.63,1.32-29.21-7.89C715.16,996.21,711.39,979.96,711.39,979.96z"/>
									</defs>
									<clipPath id="SVGID_00000069369700587165577220000012036559585774661295_">
										<use xlink:href="#SVGID_00000013878956337707120670000013359502768570881701_"  style="overflow:visible;"/>
									</clipPath>
									<path style="clip-path:url(#SVGID_00000069369700587165577220000012036559585774661295_);fill:#363E44;" d="M734.39,983.63
										c10.49-4.08,22.31,1.11,26.4,11.61c4.08,10.49-1.11,22.31-11.61,26.4c-10.49,4.08-22.31-1.11-26.4-11.61
										C718.7,999.54,723.9,987.72,734.39,983.63z"/>
								</g>
							</g>
							<path class="st3" d="M729.33,1037.27c-3.53,0-6.89-1.76-8.85-4.76c-2.19-3.34-2.29-7.73-0.25-11.18
								c0.62-1.05,1.97-1.4,3.02-0.78c1.05,0.62,1.4,1.97,0.78,3.02c-1.19,2.02-1.13,4.58,0.14,6.53c1.33,2.02,3.74,3.08,6.14,2.69
								c1.2-0.19,2.33,0.63,2.52,1.83c0.19,1.2-0.63,2.33-1.83,2.52C730.44,1037.23,729.88,1037.27,729.33,1037.27z"/>
							<path class="st3" d="M704.66,1064.43c-0.42,0-0.85-0.12-1.23-0.37c-19.88-13.32-39.61-44.76-40.44-46.09
								c-0.64-1.03-0.33-2.39,0.7-3.04c1.04-0.64,2.39-0.33,3.04,0.7c0.2,0.32,20.07,31.97,39.15,44.76
								c1.01,0.68,1.28,2.05,0.61,3.06C706.07,1064.08,705.37,1064.43,704.66,1064.43z"/>
						</g>
						<g>
							<path class="st3" d="M637.29,970.03c-7.7-17.25,14.3-51.25,38.93-64.08c31.75-16.54,56.03-20.78,83.51-4.92
								c41.49,23.96,32.94,81.57,32.94,81.57s-42.96-18.02-57.6-23.69c-20.58-7.97-31.6,59.45-55.23,20.99
								c-2.6-4.23-35.24,78.53-70.97,56.68C559.92,1006.65,645.46,988.33,637.29,970.03z"/>
						</g>
					</g>
					
						<ellipse transform="matrix(0.7071 -0.7071 0.7071 0.7071 -492.3276 771.2066)" class="st11" cx="684.76" cy="979.9" rx="20.41" ry="20.41"/>
					<path class="st3" d="M449.89,1089.19c-6.54,0-13.25-1.52-19.56-4.54c-11.16-5.34-19.48-14.58-22.8-25.36
						c-0.36-1.16,0.29-2.4,1.46-2.76c1.16-0.36,2.4,0.29,2.76,1.46c2.97,9.61,10.44,17.88,20.5,22.68
						c10.06,4.81,21.18,5.43,30.53,1.71c13.2-5.26,22.46-17.26,31.42-28.87c0.98-1.26,1.95-2.52,2.92-3.77
						c9.64-12.34,22.97-26.67,40.74-28.05c9.4-0.71,18.33,2.38,26.97,5.38c7.04,2.45,14.32,4.98,21.62,5.28
						c9.72,0.4,19.56-3.84,27.06-11.62c7.5-7.78,11.36-17.79,10.6-27.47c-0.09-1.21,0.81-2.27,2.03-2.37
						c1.2-0.08,2.28,0.81,2.37,2.03c0.85,10.93-3.46,22.18-11.83,30.87c-8.37,8.69-19.46,13.41-30.41,12.97
						c-7.95-0.33-15.54-2.97-22.89-5.52c-8.58-2.99-16.67-5.81-25.18-5.15c-16.05,1.24-28.53,14.74-37.61,26.36
						c-0.97,1.24-1.93,2.49-2.9,3.75c-9.32,12.08-18.96,24.57-33.28,30.27C459.83,1088.29,454.91,1089.19,449.89,1089.19z"/>
					<path class="st3" d="M482.56,894.61c-18.2,0-36.49-10.76-44.2-27.39c-0.51-1.1-0.03-2.42,1.07-2.93
						c1.12-0.51,2.42-0.03,2.93,1.07c8.54,18.42,31.39,28.91,50.92,23.38c7.67-2.17,14.44-6.31,21.61-10.69
						c3.21-1.96,6.53-3.99,9.91-5.8c34.15-18.33,79.47-14.63,110.21,8.98c0.96,0.74,1.15,2.13,0.4,3.09
						c-0.74,0.96-2.13,1.15-3.09,0.4c-29.4-22.59-72.77-26.13-105.44-8.59c-3.27,1.75-6.53,3.75-9.69,5.68
						c-7.11,4.34-14.45,8.83-22.71,11.17C490.59,894.09,486.58,894.61,482.56,894.61z"/>
				</g>
				<g>
					<path class="st3" d="M1167.72,1362.48H958.08c-14.22,0-25.75-11.53-25.75-25.75l0,0h235.39V1362.48z"/>
					<path class="st3" d="M1169.28,1361.75l63.49-199.79c4.31-13.55-3.19-28.03-16.74-32.34h0l-71.29,224.33L1169.28,1361.75z"/>
					<path class="st1" d="M1145.46,1328.17c-0.22,0-0.45-0.03-0.67-0.1c-1.16-0.37-1.8-1.61-1.43-2.77l62.4-196.35
						c0.37-1.16,1.61-1.8,2.77-1.43c1.16,0.37,1.8,1.61,1.43,2.77l-62.4,196.35C1147.26,1327.57,1146.4,1328.17,1145.46,1328.17z"/>
				</g>
				<g>
					<path class="st1" d="M365.61,1601.04l384.42-171.08l-58.01-258.3l12.35-57.15l-151.57-57.06l-25.32,53.62
						C527.47,1111.06,402.11,1227.39,365.61,1601.04z"/>
					<g>
						<g>
							<path class="st11" d="M1044.81,1285.6c-13.88-5.24-68.05-36.25-92.45-20.42c-24.57,15.94-34.22,46.73-33.55,75.9
								c0.08,0.08,0.18,0.18,0.26,0.26c3.57,7.25,10.04,17.56,21.56,24.44c13.14,7.84,20.27,3.71,35.42,9.84
								c25.58,10.34,30.23,32.98,39.07,28.82c6.07-2.85,3.94-16.16-1.18-27.8c-5.26-11.95-13.71-17.47-12.4-19.16
								c1.44-1.86,9.29,4.86,19.83,12.32c4.9,3.47,12.45,21.22,21.33,18.54c7.07-2.14,3.86-22.55-7.95-36.22
								c-8.35-9.67-20.65-11.56-19.84-13.74c0.61-1.64,7.91-0.34,13.86,2.65c9.83,4.93,17.75,23.01,25.87,20.39
								c7.95-2.57,4.83-20.35-5.23-33.61c-8.48-11.18-22.3-12.63-21.31-15.35c0.7-1.91,7.02-2.54,20.05,0.11
								c10.88,2.21,30.6,13.5,34.62,2.52C1086.18,1305.85,1065.75,1293.51,1044.81,1285.6z"/>
							<path class="st11" d="M687.79,1303.9c-30.77,11.18-51.24,41.08-49.14,73.61c1.38,21.33,12.5,43.04,46.27,55.34
								c82.22,29.93,260.51-91.59,260.51-91.59l20.74-80.38C872.4,1258.98,772.49,1273.12,687.79,1303.9z"/>
						</g>
						<path class="st1" d="M550.49,1159.39l83.44,38.34l-37.62,128.53c0,0,127.29-45.45,224.77-65.55l14.2,176.87l-334.3,76.56
							c-69.34,18.11-134.7-40.57-123.42-111c10.69-66.76,41.41-164.4,116.34-234.6C509.11,1154.29,531.51,1150.68,550.49,1159.39z"
							/>
						<path class="st3" d="M475.3,1519.68c-29.7,0-58.09-13.02-77.92-36.75c-0.78-0.93-0.65-2.33,0.28-3.11s2.33-0.65,3.1,0.28
							c24.5,29.33,62.69,41.57,99.65,31.91l77.68-17.79c1.18-0.28,2.37,0.47,2.64,1.66c0.27,1.19-0.47,2.37-1.66,2.64l-77.61,17.77
							C492.76,1518.57,483.97,1519.68,475.3,1519.68z"/>
						<path class="st3" d="M596.31,1328.47c-0.55,0-1.1-0.21-1.51-0.6c-0.6-0.57-0.84-1.43-0.6-2.22l17.73-60.57
							c0.34-1.17,1.56-1.84,2.74-1.5c1.17,0.34,1.84,1.57,1.5,2.74l-16.52,56.45c13.64-4.78,59.87-20.73,113.08-36.42
							c1.19-0.34,2.4,0.33,2.74,1.49c0.34,1.17-0.32,2.39-1.49,2.74c-63.11,18.62-116.38,37.59-116.91,37.78
							C596.81,1328.43,596.56,1328.47,596.31,1328.47z"/>
						<path class="st3" d="M620.14,1247.04c-0.23,0-0.46-0.04-0.69-0.11c-1.16-0.38-1.79-1.63-1.41-2.78
							c16.83-51.07-45.75-74.42-48.42-75.39c-1.14-0.42-1.74-1.68-1.32-2.82c0.42-1.15,1.68-1.74,2.82-1.32
							c0.7,0.25,69.28,25.77,51.11,80.92C621.93,1246.45,621.07,1247.04,620.14,1247.04z"/>
					</g>
				</g>
			</g>
			<g>
				
					<rect x="343.9" y="1659.39" transform="matrix(-1 -1.224647e-16 1.224647e-16 -1 1238.3132 3709.1521)" class="st2" width="550.51" height="390.37"/>
				
					<rect x="457.97" y="1579.86" transform="matrix(-1.836970e-16 1 -1 -1.836970e-16 2457.0024 1218.6893)" class="st1" width="322.37" height="515.96"/>
				<path class="st2" d="M561.21,2058.03h16.3l0,0c0,12.23,9.91,22.14,22.14,22.14h39.03c12.23,0,22.14-9.91,22.14-22.14l0,0h16.3
					l16.3,86.61v7.24H544.91v-7.24L561.21,2058.03z"/>
				<path class="st1" d="M693.4,2163.15H544.91c-1.22,0-2.2-0.99-2.2-2.21c0-1.22,0.99-2.2,2.2-2.2H693.4c1.22,0,2.2,0.99,2.2,2.2
					C695.61,2162.16,694.62,2163.15,693.4,2163.15z"/>
				<g>
					<rect x="380.16" y="1841.08" class="st0" width="334.6" height="134.35"/>
					<rect x="734.12" y="1841.08" class="st0" width="124.03" height="134.35"/>
					<g>
						<path class="st5" d="M858.15,1827.78H380.16c-1.22,0-2.2-0.99-2.2-2.2v-125.31c0-1.22,0.99-2.2,2.2-2.2h477.99
							c1.22,0,2.2,0.99,2.2,2.2v125.31C860.36,1826.79,859.37,1827.78,858.15,1827.78z M382.36,1823.37h473.58v-120.9H382.36
							V1823.37z"/>
						<g>
							<path class="st5" d="M833.79,1727.64H727.08c-1.22,0-2.2-0.99-2.2-2.2c0-1.22,0.99-2.2,2.2-2.2h106.72
								c1.22,0,2.2,0.99,2.2,2.2C836,1726.65,835.01,1727.64,833.79,1727.64z"/>
							<path class="st5" d="M833.79,1744.65H709.07c-1.22,0-2.2-0.99-2.2-2.2c0-1.22,0.99-2.2,2.2-2.2h124.72
								c1.22,0,2.2,0.99,2.2,2.2C836,1743.66,835.01,1744.65,833.79,1744.65z"/>
							<path class="st5" d="M833.79,1761.65H709.07c-1.22,0-2.2-0.99-2.2-2.2s0.99-2.2,2.2-2.2h124.72c1.22,0,2.2,0.99,2.2,2.2
								S835.01,1761.65,833.79,1761.65z"/>
						</g>
					</g>
				</g>
				
					<ellipse transform="matrix(0.1602 -0.9871 0.9871 0.1602 -1215.0024 2388.4421)" class="st1" cx="796.14" cy="1908.25" rx="14.19" ry="14.19"/>
			</g>
		</g>
		<g>
			<g>
				<g>
					<g>
						<g>
							<path class="st0" d="M734.24,769.7c-36.07-50.31-50.38-111.65-40.31-172.73c10.07-61.08,43.33-114.58,93.64-150.65
								c50.31-36.07,111.66-50.38,172.73-40.31c61.08,10.07,114.58,43.33,150.65,93.64c36.07,50.31,50.38,111.66,40.31,172.73
								c-10.07,61.08-43.33,114.58-93.64,150.65c-50.31,36.07-111.65,50.38-172.73,40.31C823.8,853.26,770.3,820.01,734.24,769.7z
								 M766.13,608.87c-14.23,86.27,44.39,168.03,130.66,182.26c86.27,14.23,168.03-44.39,182.26-130.66
								c14.23-86.27-44.39-168.03-130.66-182.26C862.12,463.99,780.36,522.6,766.13,608.87z"/>
							<path class="st1" d="M741.67,764.37c-34.64-48.32-48.39-107.25-38.72-165.92c9.67-58.67,41.62-110.06,89.94-144.7
								c48.32-34.64,107.25-48.39,165.92-38.72c58.67,9.67,110.06,41.62,144.7,89.94c34.64,48.32,48.39,107.25,38.72,165.92
								c-9.67,58.67-41.62,110.06-89.94,144.7c-48.32,34.64-107.25,48.39-165.92,38.72C827.7,844.63,776.31,812.69,741.67,764.37z
								 M757.1,607.38c-15.05,91.25,46.95,177.73,138.2,192.77c91.25,15.05,177.72-46.95,192.77-138.2
								c15.05-91.25-46.95-177.73-138.2-192.77C858.63,454.14,772.15,516.13,757.1,607.38z"/>
							<g>
								<path class="st7" d="M906.68,467.7c-69.67,6.65-129.65,56.78-146.9,126.68l-54.27-8.95c12-53.23,42.67-99.62,87.39-131.68
									c33.71-24.17,72.58-38.15,112.92-41.13L906.68,467.7z"/>
								<path class="st2" d="M755.46,620.55c-7.35,86.26,52.99,165.28,139.84,179.6c45.59,7.52,90-4.2,124.89-29.19l35.51,42.11
									c-1.13,0.85-2.27,1.69-3.42,2.52c-48.32,34.64-107.25,48.39-165.92,38.72c-58.67-9.67-110.06-41.62-144.7-89.94
									c-32.05-44.71-46.21-98.5-40.48-152.76L755.46,620.55z"/>
								<path class="st14" d="M1031.4,507.09c-22.47-19.23-50.28-32.76-81.52-37.91c-5.58-0.92-11.14-1.55-16.67-1.9l-0.87-55.03
									c8.81,0.4,17.64,1.32,26.47,2.77c42.11,6.94,80.47,25.36,111.58,53.08L1031.4,507.09z"/>
								<path class="st10" d="M1103.5,504.97c34.64,48.32,48.39,107.25,38.72,165.92c-7.99,48.45-31.17,91.92-66.22,125.11
									l-35.53-42.13c24.35-24.02,41.62-55.65,47.6-91.91c8.35-50.62-7.03-99.77-37.94-136.08l38.97-38.97
									C1094.17,492.64,1098.98,498.66,1103.5,504.97z"/>
							</g>
						</g>
					</g>
				</g>
			</g>
			<g>
				<g>
					
						<ellipse transform="matrix(1.610121e-03 -1 1 1.610121e-03 293.537 1548.4805)" class="st1" cx="922.26" cy="627.24" rx="124.32" ry="124.34"/>
					<path class="st15" d="M912.78,760.18c-36.67,0-72.64-15.66-97.45-44.29c-22.46-25.93-33.48-59.06-31.03-93.28
						c2.46-34.22,18.09-65.43,44.03-87.89c53.53-46.37,134.82-40.54,181.2,12.99c9.25,10.68,16.62,22.66,21.9,35.62
						c0.46,1.13-0.08,2.41-1.21,2.87c-1.12,0.46-2.41-0.08-2.87-1.21c-5.1-12.52-12.22-24.09-21.15-34.4
						c-44.78-51.7-123.27-57.32-174.98-12.55c-25.04,21.69-40.14,51.83-42.51,84.88c-2.37,33.04,8.27,65.03,29.96,90.07
						c33.71,38.91,88.78,53.01,137.02,35.08c1.15-0.42,2.41,0.16,2.84,1.3c0.42,1.14-0.16,2.41-1.3,2.84
						C942.77,757.59,927.72,760.18,912.78,760.18z"/>
				</g>
				<g>
					<path class="st7" d="M844.62,631.42l35.76,14.58v20.31l-54.02-26.48v-17.12l54.02-26.48v20.31L844.62,631.42z"/>
					<path class="st7" d="M901.02,685.33h-13.49l33.63-114.7h13.49L901.02,685.33z"/>
					<path class="st7" d="M980.32,631.21l-36.45-14.73v-20.17l54.64,26.48v17.05l-54.64,26.55v-20.24L980.32,631.21z"/>
				</g>
			</g>
		</g>
		<g>
			<g>
				<g>
					<path class="st3" d="M1974.05,2005.42c-0.13,0-0.25-0.01-0.38-0.03c-1.2-0.21-2-1.35-1.79-2.55
						c19.76-112.64,30.29-136.12,58.43-198.89l4.73-10.57c0.5-1.11,1.79-1.61,2.91-1.11c1.11,0.5,1.61,1.8,1.11,2.91l-4.73,10.57
						c-27.98,62.4-38.45,85.75-58.11,197.85C1976.03,2004.67,1975.1,2005.42,1974.05,2005.42z"/>
				</g>
				<g>
					<path class="st3" d="M1928.85,2062.49c-1.18,0-2.16-0.93-2.2-2.12c-6.15-165.48-48.68-233.07-93.71-304.63l-2.07-3.29
						c-0.65-1.03-0.34-2.39,0.69-3.04c1.03-0.65,2.39-0.34,3.04,0.69l2.07,3.29c45.35,72.07,88.19,140.15,94.39,306.82
						c0.05,1.22-0.9,2.24-2.12,2.29C1928.9,2062.49,1928.87,2062.49,1928.85,2062.49z"/>
				</g>
				<polygon class="st7" points="1996.04,2159.12 1867.93,2159.12 1853.28,1991.19 2010.68,1991.19 				"/>
			</g>
			<g>
				<g>
					<path class="st5" d="M1749.05,1579.89l2.65,11.61c-5.42,2.33-10.59,5.08-15.48,8.18l-8.1-8.72h0l-29.55,27.43l0,0l8.12,8.74
						c-3.48,4.69-6.59,9.64-9.3,14.81l-11.4-3.51l-11.87,38.53l0,0l11.38,3.51c-0.67,5.75-0.9,11.59-0.64,17.49l-11.61,2.65
						l8.98,39.31l0,0l11.61-2.65c2.33,5.42,5.08,10.59,8.18,15.48l-8.73,8.1l0,0l27.43,29.55l8.74-8.12
						c4.69,3.48,9.64,6.59,14.81,9.3l-3.51,11.4l0,0l38.53,11.87h0l3.51-11.38c5.75,0.67,11.59,0.9,17.49,0.64l2.65,11.61
						l39.31-8.98l0,0l-2.65-11.61c5.42-2.33,10.59-5.08,15.48-8.18l8.1,8.72l0,0l29.55-27.43v0l-8.12-8.74
						c3.48-4.69,6.59-9.64,9.3-14.81l11.4,3.51l11.87-38.53l0,0l-11.38-3.51c0.67-5.75,0.9-11.59,0.64-17.49l11.61-2.65v0
						l-8.98-39.31l-11.61,2.65c-2.33-5.42-5.08-10.59-8.18-15.48l8.73-8.1v0l-27.43-29.55l-8.74,8.12
						c-4.69-3.48-9.64-6.59-14.81-9.3l3.51-11.4l0,0l-38.53-11.87l-3.51,11.38c-5.75-0.67-11.59-0.9-17.49-0.64l-2.65-11.61
						L1749.05,1579.89z M1861.59,1704.66c-2.41,17.54-12.32,33.32-27.07,43.12c-50.13,33.28-113-6.19-104.8-65.81
						c2.41-17.54,12.32-33.32,27.07-43.12C1806.92,1605.57,1869.8,1645.05,1861.59,1704.66z"/>
				</g>
				<path class="st4" d="M1795.48,1783.75c-16.81,0-33.32-4.72-47.9-13.87c-20.45-12.84-34.68-32.88-40.06-56.42
					c-9.18-40.15,9.92-81.43,46.43-100.38c1.08-0.56,2.41-0.14,2.97,0.94c0.56,1.08,0.14,2.41-0.94,2.97
					c-34.73,18.02-52.89,57.29-44.16,95.48c5.12,22.39,18.65,41.45,38.1,53.67c19.45,12.21,42.5,16.12,64.89,11
					c1.18-0.27,2.37,0.47,2.64,1.66c0.27,1.19-0.47,2.37-1.66,2.64C1809.05,1782.99,1802.24,1783.75,1795.48,1783.75z"/>
			</g>
			<g>
				<g>
					<path class="st6" d="M2021.7,1673.49l1.71,7.5c-3.5,1.51-6.84,3.28-9.99,5.28l-5.23-5.63h0l-19.08,17.71v0l5.24,5.65
						c-2.25,3.03-4.26,6.22-6,9.56l-7.36-2.27l-7.66,24.88l0,0l7.35,2.26c-0.43,3.71-0.58,7.48-0.41,11.29l-7.5,1.71l5.8,25.38l0,0
						l7.5-1.71c1.51,3.5,3.28,6.84,5.28,9.99l-5.63,5.23l0,0l17.71,19.08l5.65-5.24c3.03,2.25,6.22,4.26,9.56,6l-2.27,7.36v0
						l24.88,7.66l0,0l2.26-7.35c3.71,0.43,7.48,0.58,11.29,0.41l1.71,7.5l25.38-5.8l0,0l-1.71-7.5c3.5-1.51,6.84-3.28,9.99-5.28
						l5.23,5.63l0,0l19.08-17.71v0l-5.24-5.65c2.25-3.03,4.26-6.22,6-9.56l7.36,2.27l7.67-24.88l0,0l-7.35-2.26
						c0.43-3.71,0.58-7.48,0.41-11.29l7.5-1.71v0l-5.8-25.38l-7.5,1.71c-1.51-3.5-3.28-6.84-5.28-9.99l5.63-5.23v0l-17.71-19.08
						l-5.65,5.24c-3.03-2.25-6.22-4.26-9.56-6l2.27-7.36v0l-24.88-7.66l-2.26,7.35c-3.71-0.43-7.48-0.58-11.29-0.41l-1.71-7.5
						L2021.7,1673.49z M2094.36,1754.04c-1.56,11.33-7.95,21.51-17.48,27.83c-32.36,21.49-72.95-4-67.66-42.48
						c1.56-11.33,7.95-21.51,17.48-27.83C2059.06,1690.07,2099.65,1715.55,2094.36,1754.04z"/>
				</g>
				<path class="st4" d="M2051.67,1805.88c-11,0-21.8-3.09-31.34-9.08c-13.38-8.4-22.69-21.51-26.2-36.91
					c-6-26.27,6.49-53.27,30.37-65.67c1.08-0.56,2.41-0.14,2.97,0.94c0.56,1.08,0.14,2.41-0.94,2.97
					c-22.1,11.47-33.66,36.46-28.11,60.77c3.26,14.25,11.87,26.38,24.25,34.16c12.38,7.77,27.04,10.26,41.3,7
					c1.18-0.27,2.37,0.47,2.64,1.66c0.27,1.19-0.47,2.37-1.66,2.64C2060.55,1805.38,2056.09,1805.88,2051.67,1805.88z"/>
			</g>
		</g>
	</g>
</g>
</svg>
