<?xml version="1.0" encoding="utf-8"?>
<!-- Generator: Adobe Illustrator 27.6.1, SVG Export Plug-In . SVG Version: 6.00 Build 0)  -->
<svg version="1.1" xmlns="http://www.w3.org/2000/svg" xmlns:xlink="http://www.w3.org/1999/xlink" x="0px" y="0px"
	 viewBox="0 0 500 500" style="enable-background:new 0 0 500 500;" xml:space="preserve">
<style type="text/css">
	.st0{fill:#D8DBFF;}
	.st1{fill:#814EFF;}
	.st2{fill:none;stroke:#060305;stroke-linecap:round;stroke-linejoin:round;stroke-miterlimit:10;}
	.st3{fill:#060305;}
	.st4{fill:#FFFFFF;}
	.st5{fill:#C14F4F;}
	.st6{fill:#9E97FF;}
	.st7{fill:none;stroke:#FFFFFF;stroke-linecap:round;stroke-linejoin:round;stroke-miterlimit:10;}
	.st8{fill:#F6921E;}
	.st9{fill:#FF99A8;}
</style>
<g id="BACKGROUND">
</g>
<g id="OBJECTS">
	<path class="st0" d="M460.49,330.35c-14,38.8-48.2,68.16-86.75,82.82c-12.53,4.77-25.45,8.39-38.58,10.95
		c-27.27,5.34-55.48,6.14-83.17,3.24c-13.16-1.38-26.35-3.54-39.31-6.6c-34.66-8.2-67.66-22.9-94.05-46.51
		c-36.26-32.43-57.84-83.68-46.44-130.97c5.1-21.12,24.95-34.85,45.68-41.34c20.74-6.5,42.95-6.16,64.27-10.36
		c21.32-4.19,38.96-12.26,50.8-30.48c20.44-31.47,58.92-49.31,96.42-47.87c37.51,1.43,73.26,20.9,97.58,49.48
		c24.32,28.59,37.64,65.63,40.73,103.03C469.47,287.51,467.9,309.81,460.49,330.35z"/>
	<g>
		<g>
			<path class="st1" d="M367.22,290.98c-10.92,44.24-21.22,88.86-32.06,133.14c-27.27,5.34-55.48,6.14-83.17,3.24
				c-13.16-1.38-26.35-3.54-39.31-6.6c-5.39-15.62-8.09-32.21-6.19-48.56c4.46-38.22,19.95-81.64,41.1-113.78
				C288.77,263.92,327.29,279.55,367.22,290.98z"/>
			<path class="st2" d="M277.54,329.85c-4.2,34.81-7.52,62.25-11.72,97.06"/>
			<path class="st2" d="M213.26,406.54c2.58,4.05,6.99,6.87,11.74,7.52c4.75,0.65,9.76-0.89,13.32-4.1"/>
			<path class="st2" d="M271.05,380.39c-2.69,4.76-5.37,9.51-8.06,14.27c1.73,0.1,3.27,0.95,3.51,2.67c0.24,1.72-0.86,3.53-2.49,4.1
				c1.03,4.86,1.97,9.48,3,14.34"/>
			<path class="st2" d="M357.73,292.65c-9.65,46.48-18.98,85.72-31.27,131.57"/>
			<path class="st2" d="M338.64,285.51c-1.24,14.84,2.74,30.07,11.07,42.42"/>
		</g>
		<g>
			<path class="st3" d="M337.42,156.39c-2.42,2.32-3.07,6.29-1.5,9.26c1.56,2.97,5.2,4.69,8.49,4l2.33-14.37
				C343.84,153.6,339.84,154.07,337.42,156.39z"/>
			<path class="st2" d="M378.1,167.03c2.55,0.48,4.88,2.01,6.33,4.15c1.46,2.14,2.02,4.87,1.53,7.42"/>
			<path class="st3" d="M379.24,167.28c1.15-1.29,0.54-4.52-1.1-5.06c2.12-1.96,2.08-5.77-0.07-7.69c-1.34-1.2-3.27-1.69-4.38-3.1
				c-0.65-0.83-0.93-1.88-1.31-2.87c-1.33-3.48-4.09-6.39-7.5-7.9c-3.4-1.51-7.41-1.61-10.89-0.26c2.42,10.43,3.72,21.85,4.09,32.56
				l20.82,9.22c3.09-0.93,5.41-3.98,5.47-7.2C384.46,171.75,382.29,168.33,379.24,167.28z"/>
		</g>
		<g>
			<path class="st4" d="M397.03,191.91c-9.01-10.15-19.42-19.06-30.85-26.38c-1.96,1.13-4.85,2.6-7.08,2.98
				c-2.23,0.38-4.68,0.03-6.45-1.39c-1.58-1.27-2.48-3.34-2.32-5.37c-19.94-1.34-40.81-2.35-60.74-3.69
				c-7.54,36.99-18.46,67.35-39.02,99l117.56,37.61c3.23-13.79,7.1-27.35,10.33-41.14c12.06-4.96,24.64-10.2,36.75-15.05
				c3.48-1.39,6.7-1.98,10.18-3.38C418.57,219.12,408.56,204.91,397.03,191.91z"/>
			<path class="st2" d="M343.04,163.57c-0.95,5.41,1.18,11.2,5.25,14.9c4.06,3.7,9.89,5.29,15.31,4.42
				c5.43-0.86,10.39-4.09,13.6-8.54"/>
			<path class="st2" d="M313.13,160.01c-4.97,11.78-10.62,23.26-16.93,34.38"/>
			<path class="st2" d="M403.85,201.33c-6.77,9.61-13.54,19.22-20.31,28.83"/>
			<path class="st2" d="M401.08,238.74c7.48-3.06,14.97-6.12,22.45-9.18"/>
		</g>
		<g>
			<g>
				<path class="st5" d="M372.6,172.09c-1.35-1.01-2.84-2.17-4.18-3.17c-0.26-1.65-0.5-3.39-0.76-5.04
					c2.11-0.14,4.07-1.58,4.84-3.54c0.77-1.97,0.29-4.36-1.17-5.88c-1.46-1.53-3.83-2.11-5.83-1.43c-0.64,1.27-1.37,2.62-2.01,3.89
					c-0.3-2.18-0.89-4.35-1.19-6.53c-0.63-4.57-5.04-8.44-9.63-8.78c-4.6-0.34-8.11,2.82-9.46,7.23c-1.17,3.82-1.73,7.88-1.34,11.86
					c0.3,3.02,2.05,5.35,4.91,6.36c1.06,5.52,5.64,10.63,11.16,11.68C363.48,179.77,369.59,176.83,372.6,172.09z"/>
				<g>
					<path class="st2" d="M346.66,167.41c2.47,1.43,5.42,2.02,8.25,1.63c2.83-0.38,5.52-1.73,7.52-3.77"/>
					<path class="st2" d="M366.48,157.4c1.1-0.42,2.2-0.84,3.3-1.26"/>
					<path class="st2" d="M367.94,163.91c-0.46,0-0.91,0-1.37,0"/>
				</g>
				<g>
					<circle class="st3" cx="355.4" cy="158.98" r="1"/>
					<circle class="st3" cx="344.74" cy="156.75" r="1"/>
					<path class="st2" d="M343.67,151.59c0.53-0.7,1.49-1.06,2.35-0.88c0.86,0.18,1.59,0.89,1.8,1.75"/>
					<path class="st2" d="M353.85,153.26c1.08,0.16,2.16,0.31,3.23,0.47"/>
					<path class="st2" d="M349.72,156.18c-0.6,1.3-1.21,2.6-1.81,3.9c0.47,0.08,0.95,0.15,1.42,0.23"/>
					<path class="st2" d="M350.92,162.04c0.3,0.49,0.91,0.77,1.47,0.69c0.57-0.08,1.07-0.52,1.22-1.08"/>
				</g>
			</g>
			<g>
				<path class="st3" d="M362.45,142.44c-1.28-1.62-3.2-2.62-5.19-3.16c-3.49-0.96-7.31-0.62-10.58,0.93
					c-3.26,1.55-5.94,4.31-7.39,7.62l24.76,5.37C364.46,149.5,364.76,145.37,362.45,142.44z"/>
				<path class="st2" d="M337.4,147.18c2.13-3.72,5.76-6.55,9.88-7.73c4.12-1.17,8.7-0.67,12.47,1.36"/>
			</g>
		</g>
	</g>
	<g>
		<g>
			<rect x="36.35" y="94.57" class="st6" width="262.42" height="189.08"/>
			<rect x="119.04" y="154.37" class="st4" width="77" height="31.33"/>
			<g>
				<line class="st2" x1="119.04" y1="205.61" x2="196.05" y2="205.61"/>
				<line class="st2" x1="119.04" y1="213.45" x2="196.05" y2="213.45"/>
				<line class="st2" x1="119.04" y1="221.28" x2="196.05" y2="221.28"/>
				<line class="st2" x1="119.04" y1="229.11" x2="196.05" y2="229.11"/>
				<line class="st2" x1="119.04" y1="236.95" x2="196.05" y2="236.95"/>
				<line class="st2" x1="119.04" y1="244.78" x2="196.05" y2="244.78"/>
			</g>
			<g>
				<line class="st2" x1="212.9" y1="154.37" x2="285.01" y2="154.37"/>
				<line class="st2" x1="212.9" y1="162.21" x2="285.01" y2="162.21"/>
				<line class="st2" x1="212.9" y1="170.04" x2="285.01" y2="170.04"/>
				<line class="st2" x1="212.9" y1="177.87" x2="285.01" y2="177.87"/>
				<line class="st2" x1="212.9" y1="185.71" x2="285.01" y2="185.71"/>
			</g>
		</g>
		<g>
			<rect x="36.35" y="140.63" class="st3" width="66.85" height="143.02"/>
			<path class="st7" d="M58.36,266.83c0-2.86-2.32-5.17-5.17-5.17c-2.86,0-5.17,2.32-5.17,5.17c0,2.86,2.32,5.17,5.17,5.17
				C56.04,272,58.36,269.68,58.36,266.83z"/>
			<path class="st8" d="M74.95,266.83c0-2.86-2.32-5.17-5.17-5.17c-2.86,0-5.17,2.32-5.17,5.17c0,2.86,2.32,5.17,5.17,5.17
				C72.64,272,74.95,269.68,74.95,266.83z"/>
			<path class="st9" d="M91.54,266.83c0-2.86-2.32-5.17-5.17-5.17c-2.86,0-5.17,2.32-5.17,5.17c0,2.86,2.32,5.17,5.17,5.17
				C89.23,272,91.54,269.68,91.54,266.83z"/>
		</g>
		<g>
			<rect x="36.35" y="94.57" class="st1" width="262.42" height="20.16"/>
			<circle class="st7" cx="47.47" cy="104.65" r="3.01"/>
			<circle class="st7" cx="60.17" cy="104.65" r="3.01"/>
			<circle class="st7" cx="72.86" cy="104.65" r="3.01"/>
		</g>
		<g>
			<rect x="36.35" y="114.73" class="st4" width="262.42" height="25.9"/>
			<rect x="44.46" y="124.45" class="st9" width="14.79" height="6.05"/>
			<g>
				<line class="st2" x1="74.56" y1="125.64" x2="107.09" y2="125.64"/>
				<line class="st2" x1="74.56" y1="129.29" x2="107.09" y2="129.29"/>
			</g>
			<g>
				<line class="st2" x1="119.04" y1="125.64" x2="151.57" y2="125.64"/>
				<line class="st2" x1="119.04" y1="129.29" x2="151.57" y2="129.29"/>
			</g>
			<g>
				<line class="st2" x1="163.52" y1="125.64" x2="196.05" y2="125.64"/>
				<line class="st2" x1="163.52" y1="129.29" x2="196.05" y2="129.29"/>
			</g>
			<g>
				<line class="st2" x1="208" y1="125.64" x2="240.53" y2="125.64"/>
				<line class="st2" x1="208" y1="129.29" x2="240.53" y2="129.29"/>
			</g>
			<g>
				<line class="st2" x1="252.48" y1="125.64" x2="285.01" y2="125.64"/>
				<line class="st2" x1="252.48" y1="129.29" x2="285.01" y2="129.29"/>
			</g>
		</g>
	</g>
	<g>
		<polygon class="st3" points="168.19,318.25 174.19,307.87 162.2,307.87 		"/>
		<polygon class="st1" points="123.15,398.18 117.16,408.56 129.15,408.56 		"/>
		<polygon class="st1" points="447.28,348.9 457.67,354.9 457.67,342.91 		"/>
		<polygon class="st1" points="401.81,131.52 391.43,125.53 391.43,137.52 		"/>
		<polygon class="st2" points="203.59,60.42 197.59,70.81 209.58,70.81 		"/>
		<path class="st1" d="M205.92,303.13c0-0.92-0.75-1.66-1.66-1.66c-0.92,0-1.66,0.75-1.66,1.66c0,0.92,0.75,1.66,1.66,1.66
			C205.17,304.79,205.92,304.05,205.92,303.13z"/>
		<path class="st1" d="M370.87,362.2c0-0.92-0.75-1.66-1.66-1.66c-0.92,0-1.66,0.75-1.66,1.66c0,0.92,0.75,1.66,1.66,1.66
			C370.12,363.87,370.87,363.12,370.87,362.2z"/>
		<circle class="st3" cx="100.12" cy="290.79" r="1.66"/>
		<circle class="st1" cx="56.39" cy="310.73" r="1.66"/>
		<path class="st2" d="M196.55,429.02c0-0.92-0.75-1.66-1.66-1.66c-0.92,0-1.66,0.75-1.66,1.66c0,0.92,0.75,1.66,1.66,1.66
			C195.8,430.68,196.55,429.94,196.55,429.02z"/>
		<path class="st3" d="M392.57,336.05c0-0.92-0.75-1.66-1.66-1.66c-0.92,0-1.66,0.75-1.66,1.66c0,0.92,0.75,1.66,1.66,1.66
			C391.82,337.72,392.57,336.97,392.57,336.05z"/>
		<path class="st2" d="M448.95,330.48c0-0.92-0.75-1.66-1.66-1.66c-0.92,0-1.66,0.75-1.66,1.66c0,0.92,0.75,1.66,1.66,1.66
			C448.2,332.14,448.95,331.39,448.95,330.48z"/>
		<path class="st3" d="M434.2,117.45c0-0.92-0.75-1.66-1.66-1.66c-0.92,0-1.66,0.75-1.66,1.66c0,0.92,0.75,1.66,1.66,1.66
			C433.45,119.11,434.2,118.36,434.2,117.45z"/>
		<path class="st2" d="M316.77,133.63c0-0.92-0.75-1.66-1.66-1.66c-0.92,0-1.66,0.75-1.66,1.66c0,0.92,0.75,1.66,1.66,1.66
			C316.03,135.29,316.77,134.55,316.77,133.63z"/>
		<path class="st1" d="M403.48,159.55c0-0.92-0.75-1.66-1.66-1.66c-0.92,0-1.66,0.75-1.66,1.66c0,0.92,0.75,1.66,1.66,1.66
			C402.73,161.21,403.48,160.46,403.48,159.55z"/>
		<path class="st1" d="M244.55,75.6c0-0.92-0.75-1.66-1.66-1.66s-1.66,0.75-1.66,1.66c0,0.92,0.75,1.66,1.66,1.66
			S244.55,76.52,244.55,75.6z"/>
		<circle class="st2" cx="134.12" cy="341.74" r="1.66"/>
	</g>
	<g>
		<path class="st2" d="M150.01,363.87L150.01,363.87c-1.03,3.21-5.58,3.21-6.61,0h0c-1.03-3.21-5.58-3.21-6.61,0l0,0
			c-1.03,3.21-5.58,3.21-6.61,0l0,0c-1.03-3.21-5.58-3.21-6.61,0l0,0c-1.03,3.21-5.58,3.21-6.61,0l0,0c-1.03-3.21-5.58-3.21-6.61,0
			l0,0c-1.03,3.21-5.58,3.21-6.61,0l0,0c-1.03-3.21-5.58-3.21-6.61,0l0,0c-1.03,3.21-5.58,3.21-6.61,0l0,0
			c-1.03-3.21-5.58-3.21-6.61,0"/>
		<path class="st2" d="M382.24,65.61L382.24,65.61c-1.03,3.21-5.58,3.21-6.61,0v0c-1.03-3.21-5.58-3.21-6.61,0v0
			c-1.03,3.21-5.58,3.21-6.61,0v0c-1.03-3.21-5.58-3.21-6.61,0v0c-1.03,3.21-5.58,3.21-6.61,0v0c-1.03-3.21-5.58-3.21-6.61,0v0
			c-1.03,3.21-5.58,3.21-6.61,0v0c-1.03-3.21-5.58-3.21-6.61,0v0c-1.03,3.21-5.58,3.21-6.61,0v0c-1.03-3.21-5.58-3.21-6.61,0"/>
		<path class="st2" d="M429.22,400.76L429.22,400.76c-1.03,3.21-5.58,3.21-6.61,0l0,0c-1.03-3.21-5.58-3.21-6.61,0l0,0
			c-1.03,3.21-5.58,3.21-6.61,0l0,0c-1.03-3.21-5.58-3.21-6.61,0l0,0c-1.03,3.21-5.58,3.21-6.61,0l0,0c-1.03-3.21-5.58-3.21-6.61,0
			l0,0c-1.03,3.21-5.58,3.21-6.61,0l0,0c-1.03-3.21-5.58-3.21-6.61,0l0,0c-1.03,3.21-5.58,3.21-6.61,0l0,0
			c-1.03-3.21-5.58-3.21-6.61,0"/>
	</g>
	<g>
		<rect x="234.55" y="200.1" class="st2" width="88.36" height="43.11"/>
		<g>
			<path class="st5" d="M418.84,235.85c-4.9,1.69-9.84,3.54-14.74,5.23c-15.29-14.04-37.05-20.71-57.71-18.71
				c-11.43,1.11-22.86,2.21-34.29,3.32c-0.24,1.36,0.55,2.71,1.73,3.42c1.18,0.71,2.59,0.93,3.95,1.12
				c-2.41,0.27-4.83,0.53-7.24,0.8c-0.65,1.23-0.1,2.65,1.02,3.48c1.12,0.83,2.55,1.09,3.93,1.32c9.31,1.57,18.61,3.14,27.92,4.71
				c-8.38,2.39-17.11,4.81-25.49,7.2c0.03,1.4,0.57,2.69,1.87,3.18s2.75,0.44,4.15,0.38c7.17-0.3,14.33-0.6,21.5-0.89
				c-3.48,0.96-7.14,1.84-10.62,2.81c-1.31,1.63-2.17,3.01-3.48,4.64c0.31,0.63,0.86,1.05,1.55,1.17c0.69,0.12,1.4,0,2.09-0.17
				c1.17-0.29,2.29-0.73,3.35-1.3c3.5,0.19,7,0,10.5,0.19c4.74,0.25,9.49,0.5,14.24,0.33c5.82,8.46,11.55,16.42,17.37,24.88
				c4.79,6.97,13.98,10.07,22.39,9.19c8.41-0.87,16.23-6.21,20.1-13.73c3.39-6.58,3.77-14.39,2.48-21.69
				C424.09,249.41,421.67,242.69,418.84,235.85z"/>
			<path class="st2" d="M404,240.84c4.04,1.04,7.75,3.31,10.52,6.42"/>
			<path class="st2" d="M362.86,258.42c4.9-0.45,9.79-0.9,14.69-1.35"/>
			<path class="st2" d="M342.08,251.31c3.01-0.4,6.02-0.79,9.03-1.19"/>
			<path class="st2" d="M340.33,240.75c3.13,0.24,6.26,0.47,9.39,0.71"/>
			<path class="st2" d="M317.02,230.6c-0.29-0.05-0.58-0.11-0.87-0.16c11.39,0.13,22.77,0.26,34.16,0.4"/>
		</g>
	</g>
</g>
</svg>
